<svg width="17" height="17" viewBox="0 0 17 17" fill="none" xmlns="http://www.w3.org/2000/svg">
<g clip-path="url(#clip0_1_2036)">
<path d="M8.5 0.708252V16.2916" stroke="#6CAC3D" stroke-width="2" stroke-linecap="round" stroke-linejoin="round"/>
<path d="M12.0417 3.54175H6.72917C6.07165 3.54175 5.44107 3.80295 4.97613 4.26788C4.5112 4.73281 4.25 5.3634 4.25 6.02092C4.25 6.67843 4.5112 7.30902 4.97613 7.77395C5.44107 8.23888 6.07165 8.50008 6.72917 8.50008H10.2708C10.9283 8.50008 11.5589 8.76128 12.0239 9.22621C12.4888 9.69115 12.75 10.3217 12.75 10.9792C12.75 11.6368 12.4888 12.2674 12.0239 12.7323C11.5589 13.1972 10.9283 13.4584 10.2708 13.4584H4.25" stroke="#6CAC3D" stroke-width="2" stroke-linecap="round" stroke-linejoin="round"/>
</g>
<defs>
<clipPath id="clip0_1_2036">
<rect width="17" height="17" fill="white"/>
</clipPath>
</defs>
</svg>
