<svg width="17" height="17" viewBox="0 0 17 17" fill="none" xmlns="http://www.w3.org/2000/svg">
<path d="M9.91671 1.41675H4.25004C3.87432 1.41675 3.51398 1.566 3.24831 1.83168C2.98263 2.09736 2.83337 2.45769 2.83337 2.83341V14.1667C2.83337 14.5425 2.98263 14.9028 3.24831 15.1685C3.51398 15.4342 3.87432 15.5834 4.25004 15.5834H12.75C13.1258 15.5834 13.4861 15.4342 13.7518 15.1685C14.0175 14.9028 14.1667 14.5425 14.1667 14.1667V5.66675L9.91671 1.41675Z" stroke="#6CAC3D" stroke-width="2" stroke-linecap="round" stroke-linejoin="round"/>
<path d="M9.91663 1.41675V5.66675H14.1666" stroke="#6CAC3D" stroke-width="2" stroke-linecap="round" stroke-linejoin="round"/>
<path d="M11.3333 9.20825H5.66663" stroke="#6CAC3D" stroke-width="2" stroke-linecap="round" stroke-linejoin="round"/>
<path d="M11.3333 12.0417H5.66663" stroke="#6CAC3D" stroke-width="2" stroke-linecap="round" stroke-linejoin="round"/>
<path d="M7.08329 6.375H6.37496H5.66663" stroke="#6CAC3D" stroke-width="2" stroke-linecap="round" stroke-linejoin="round"/>
</svg>
