<svg aria-hidden="true" style="position: absolute; width: 0; height: 0; overflow: hidden;" version="1.1" xmlns="http://www.w3.org/2000/svg" xmlns:xlink="http://www.w3.org/1999/xlink">
<defs>
<symbol id="GroupA" viewBox="0 0 32 32">
<title>GroupA</title>
<path d="M25.12 3.333c-0.453 0.373-0.88 1.040-0.987 1.467-0.16 0.72-0.267 0.773-1.547 0.853-1.227 0.080-1.387 0.16-1.467 0.693-0.133 0.933 0.667 1.653 1.813 1.653h0.987l0.187 1.573c0.133 1.253 0.347 1.787 0.96 2.427 0.8 0.853 1.040 1.6 0.533 1.6-0.133 0-0.267 0.293-0.267 0.64 0 0.427-0.187 0.72-0.533 0.827-0.293 0.080-0.773 0.48-1.067 0.853-0.48 0.613-0.533 1.067-0.533 3.973v3.307h-1.013c-0.56 0-1.253 0.187-1.547 0.4-0.267 0.213-0.88 0.4-1.333 0.4-1.040 0-1.547 0.56-1.28 1.387 0.267 0.907 0.56 1.013 2.987 1.013h2.187v2.933h8.8v-3.227c0-2.907-0.053-3.2-0.453-3.12-0.427 0.080-0.48 0.453-0.56 2.827l-0.080 2.72h-6.907v-2.133h1.84c2.347 0 3.173-0.587 3.413-2.4 0.107-0.667 0.347-1.333 0.56-1.493 0.293-0.213 0.373-0.907 0.293-3.387-0.053-1.707-0.027-3.12 0.080-3.12 0.4 0 0.613 0.747 0.747 2.533 0.107 1.413 0.24 1.867 0.533 1.867s0.427-0.4 0.48-1.627c0.107-2-0.24-2.933-1.28-3.52-0.427-0.24-0.8-0.667-0.8-0.907s-0.107-0.533-0.267-0.613c-0.48-0.293-0.293-0.987 0.533-1.92 0.667-0.747 0.8-1.12 0.8-2.32 0-1.040 0.107-1.467 0.4-1.6 0.88-0.32 0.187-3.573-0.987-4.56-0.667-0.56-1.067-0.667-2.613-0.667-1.573 0-1.947 0.107-2.613 0.667zM29.707 4.027c0.373 0.293 0.693 0.773 0.693 1.067 0 0.453-0.213 0.507-2.667 0.507-2.96 0-3.253-0.213-2-1.467 0.853-0.88 2.933-0.933 3.973-0.107zM28.613 6.853c-1.227 0.053-3.2 0.053-4.4 0-1.227-0.027-0.24-0.080 2.187-0.080s3.413 0.053 2.213 0.080zM30.053 8.427c0.080 0.213 0.053 0.907-0.080 1.493-0.693 3.227-4.907 2.613-4.907-0.72v-1.2h2.4c1.947 0 2.453 0.080 2.587 0.427zM28.267 13.333c0 0.133-0.293 0.267-0.667 0.267s-0.667-0.133-0.667-0.267c0-0.16 0.293-0.267 0.667-0.267s0.667 0.107 0.667 0.267zM28.8 14.933c0 0.133-0.587 0.267-1.333 0.267-0.72 0-1.333-0.133-1.333-0.267 0-0.16 0.613-0.267 1.333-0.267 0.747 0 1.333 0.107 1.333 0.267zM25.333 19.333c0 2.773 0.053 3.333 0.4 3.333 0.213 0 0.4 0.107 0.4 0.267 0 0.133-0.48 0.267-1.067 0.267h-1.067v-3.013c0-2.293 0.107-3.147 0.427-3.6 0.213-0.32 0.507-0.587 0.667-0.587 0.133 0 0.24 1.413 0.24 3.333zM28.747 16.587c0.213 0.213 0.32 1.2 0.32 2.667v2.347h-2.933v-2.347c0-2.613 0.187-2.987 1.467-2.987 0.453 0 0.96 0.133 1.147 0.32zM28.267 23.68c0 0.56-0.133 1.147-0.32 1.333-0.24 0.24-1.6 0.32-4.72 0.267-2.453 0-4-0.080-3.493-0.133 0.507-0.080 1.12-0.293 1.333-0.48 0.293-0.267 1.307-0.4 3.2-0.453l2.8-0.080 0.080-0.747c0.053-0.507 0.24-0.72 0.613-0.72 0.4 0 0.507 0.187 0.507 1.013z"></path>
<path d="M1.44 4.64c-0.827 0.827-0.907 1.067-0.907 2.4 0 0.827 0.107 1.707 0.24 1.973 0.16 0.24 0.32 0.88 0.427 1.413 0.080 0.533 0.427 1.227 0.8 1.573 0.693 0.64 0.88 1.44 0.4 1.733-0.16 0.080-0.267 0.373-0.267 0.613s-0.373 0.667-0.8 0.907c-0.453 0.24-0.933 0.773-1.067 1.147-0.16 0.4-0.267 3.413-0.267 6.827v6.107h8.8v-2.933h2.213c2.4 0 2.693-0.107 2.96-1.013 0.267-0.827-0.24-1.387-1.28-1.387-0.453 0-1.067-0.187-1.333-0.4-0.293-0.213-0.987-0.4-1.52-0.4h-1.013l-0.080-1.333c-0.107-1.733-0.587-1.733-0.693 0l-0.080 1.333h-1.067c-0.56 0-1.040-0.133-1.040-0.267 0-0.16 0.187-0.267 0.4-0.267 0.347 0 0.4-0.56 0.4-3.36 0-3.627 0.213-4.053 1.147-2.16 0.533 1.067 0.987 1.093 0.987 0.080 0-0.747-0.88-1.92-1.6-2.16-0.347-0.107-0.533-0.4-0.533-0.827 0-0.347-0.107-0.64-0.267-0.64-0.507 0-0.267-0.747 0.507-1.573 0.587-0.64 0.827-1.227 0.96-2.293 0.107-0.8 0.133-1.653 0.027-1.893-0.080-0.213 0.027-0.667 0.24-0.987 0.56-0.8 0.507-1.6-0.16-2.427-0.533-0.667-0.667-0.693-3.093-0.693-2.533 0-2.533 0-3.44 0.907zM7.040 4.88c0.267 0.187 0.453 0.587 0.373 0.88-0.080 0.4-0.347 0.533-1.547 0.587-1.573 0.080-2.32 0.533-2.453 1.493-0.053 0.453-0.267 0.56-1.013 0.56-0.88 0-0.933-0.053-1.013-0.933-0.080-1.147 0.427-2.16 1.28-2.587 0.88-0.453 3.76-0.453 4.373 0zM6.88 8.827c0.053 1.28-0.027 1.627-0.587 2.293-0.373 0.453-0.987 0.88-1.333 0.933-1.040 0.213-2.267-0.453-2.667-1.44-0.48-1.093-0.347-1.28 0.8-1.28 0.933 0 1.067-0.16 1.547-1.68 0.133-0.373 0.373-0.48 1.147-0.4l1.013 0.080 0.080 1.493zM5.067 13.333c0 0.133-0.293 0.267-0.667 0.267s-0.667-0.133-0.667-0.267c0-0.16 0.293-0.267 0.667-0.267s0.667 0.107 0.667 0.267zM5.867 14.933c0 0.133-0.587 0.267-1.333 0.267-0.72 0-1.333-0.133-1.333-0.267 0-0.16 0.613-0.267 1.333-0.267 0.747 0 1.333 0.107 1.333 0.267zM2.133 16.507c-0.427 0.8-0.347 5.813 0.107 6.080 0.187 0.107 0.427 0.747 0.507 1.413 0.24 1.813 1.067 2.4 3.413 2.4h1.84v2.133h-6.933v-5.76c0-5.76 0.133-6.773 0.96-6.773 0.293 0 0.32 0.107 0.107 0.507zM5.547 16.587c0.213 0.213 0.32 1.2 0.32 2.667v2.347h-2.933v-2.347c0-2.613 0.187-2.987 1.467-2.987 0.453 0 0.96 0.133 1.147 0.32zM4.853 23.387l0.080 0.747 2.8 0.080c1.893 0.053 2.907 0.187 3.2 0.453 0.213 0.187 0.827 0.4 1.333 0.48 0.507 0.053-1.040 0.133-3.467 0.133-3.147 0.053-4.507-0.027-4.747-0.267-0.187-0.187-0.32-0.773-0.32-1.333 0-0.827 0.107-1.013 0.507-1.013 0.373 0 0.56 0.213 0.613 0.72z"></path>
<path d="M9.867 15.707c0 1.013 0.133 1.947 0.267 2.027 0.16 0.080 0.267 1.227 0.267 2.507v2.373l0.827 0.16c1.12 0.213 8.987 0.16 9.84-0.080 0.64-0.16 0.667-0.32 0.853-2.693 0.107-1.387 0.267-3.040 0.347-3.68 0.107-0.613 0.107-1.44 0.027-1.813-0.16-0.64-0.24-0.667-1.973-0.587-1.387 0.053-1.787 0.16-1.787 0.48 0 0.293 0.373 0.427 1.413 0.48 1.333 0.080 1.387 0.107 1.387 0.88v0.773h-10.667v-1.573l2.88-0.080c2.32-0.053 2.853-0.16 2.853-0.48s-0.587-0.4-3.253-0.48l-3.28-0.080v1.867zM20.8 19.6v2h-9.253l-0.187-1.413c-0.080-0.747-0.16-1.653-0.16-2v-0.587h9.6v2z"></path>
<path d="M12.453 18.32c-0.107 0.080-0.187 0.693-0.187 1.333v1.147h1.2c1.067 0 1.2-0.080 1.36-0.693 0.293-1.12-0.267-1.973-1.307-1.973-0.507 0-0.987 0.080-1.067 0.187z"></path>
<path d="M15.387 19.093c-0.107 0.107-0.187 0.347-0.187 0.56 0 0.267 0.56 0.347 2.293 0.347 2.027 0 2.267-0.053 2.187-0.48-0.080-0.373-0.427-0.453-2.107-0.533-1.093-0.027-2.080 0-2.187 0.107z"></path>
</symbol>
<symbol id="GroupC" viewBox="0 0 32 32">
<title>GroupC</title>
<path d="M5.009 1.53c-0.557 0.557-0.835 4.174-0.835 11.826v10.991h-2.087c-1.6 0-2.087 0.278-2.087 1.391 0 2.226 2.226 2.783 11.061 2.783 7.93 0 8.417 0.070 8.417 1.391 0 1.53 1.043 1.878 1.809 0.626 0.278-0.557 0.626-0.557 1.183 0 1.183 1.183 1.878 0.904 1.878-0.626 0-0.765 0.278-1.391 0.626-1.391s1.183-0.487 1.739-1.113c0.904-0.904 1.113-2.991 1.113-11.826v-10.713h2.087c1.53 0 2.087-0.348 2.087-1.252 0-2.643-1.252-2.922-13.913-2.922-8.626 0-12.522 0.278-13.078 0.835zM26.574 13.357c-0.070 6.609-0.348 12.452-0.487 12.87-0.557 1.6-1.878 0.974-1.53-0.696 1.322-5.565 1.252-5.983-0.139-7.374-1.878-1.878-3.2-1.809-5.009 0-1.043 1.043-1.391 2.017-1.113 3.409 0.487 2.365-0.487 2.783-7.652 2.783h-5.078v-10.991c0-6.052 0.209-11.27 0.487-11.478 0.209-0.278 5.009-0.487 10.574-0.487h10.157l-0.209 11.965zM30.47 2.643c0.139 0.487-0.417 0.835-1.183 0.835-1.461 0-1.878-0.765-0.974-1.67 0.626-0.626 1.809-0.139 2.157 0.835zM23.93 19.826c0.139 0.487-0.139 1.461-0.626 2.226-0.765 0.974-1.252 1.113-2.157 0.487-1.739-1.043-1.878-2.017-0.626-3.27 1.183-1.183 2.783-0.904 3.409 0.557zM23.096 25.391c0.278 0.348 0.557 1.391 0.557 2.157 0 1.113-0.417 1.461-1.739 1.461-1.809 0-2.017-0.487-1.322-3.061 0.417-1.6 1.6-1.809 2.504-0.557zM19.339 26.226c0.209 0.696-1.878 0.904-8.835 0.904-7.722 0-9.113-0.139-9.113-1.043s1.252-1.043 8.835-0.904c6.261 0.139 8.904 0.487 9.113 1.043z"></path>
<path d="M13.426 5.357c0.626 0.139 1.739 0.139 2.435 0 0.626-0.209 0.070-0.348-1.252-0.348s-1.878 0.139-1.183 0.348z"></path>
<path d="M17.948 5.357c0.487 0.209 1.113 0.139 1.322-0.070 0.278-0.209-0.139-0.417-0.904-0.348-0.765 0-0.974 0.209-0.417 0.417z"></path>
<path d="M13.009 8.139c1.67 0.139 4.313 0.139 5.913 0 1.67-0.139 0.348-0.278-2.922-0.278s-4.591 0.139-2.991 0.278z"></path>
<path d="M8.348 11.13c0 0.348 0.487 0.696 1.043 0.696s1.043-0.348 1.043-0.696c0-0.417-0.487-0.696-1.043-0.696s-1.043 0.278-1.043 0.696z"></path>
<path d="M11.826 11.13c0 0.417 2.435 0.696 5.913 0.696s5.913-0.278 5.913-0.696c0-0.417-2.435-0.696-5.913-0.696s-5.913 0.278-5.913 0.696z"></path>
<path d="M8.348 13.913c0 0.348 1.252 0.696 2.783 0.696s2.783-0.348 2.783-0.696c0-0.417-1.252-0.696-2.783-0.696s-2.783 0.278-2.783 0.696z"></path>
<path d="M15.304 13.913c0 0.417 1.878 0.696 4.174 0.696s4.174-0.278 4.174-0.696c0-0.417-1.878-0.696-4.174-0.696s-4.174 0.278-4.174 0.696z"></path>
<path d="M8.348 16.696c0 0.417 2.226 0.696 5.217 0.696s5.217-0.278 5.217-0.696c0-0.417-2.226-0.696-5.217-0.696s-5.217 0.278-5.217 0.696z"></path>
<path d="M8.696 19.13c1.67 0.557 8.696 0.765 8.696 0.209 0-0.278-2.087-0.557-4.661-0.487-2.643 0-4.383 0.139-4.035 0.278z"></path>
</symbol>
<symbol id="GroupB" viewBox="0 0 32 32">
<title>GroupB</title>
<path d="M2.922 0.835c-0.487 0.487-0.835 2.017-0.835 3.478 0 2.504 0.139 2.643 2.087 2.643h2.087v11.687c0 8.139 0.278 11.965 0.835 12.522 1.183 1.183 20.8 1.183 21.983 0 0.487-0.487 0.835-1.739 0.835-2.783 0-1.461-0.348-1.948-1.391-1.948-1.322 0-1.391-0.487-1.391-12.383 0-8.696-0.278-12.661-0.835-13.217-1.183-1.183-22.191-1.183-23.374 0zM6.261 3.478c0 1.6-0.278 2.087-1.391 2.087s-1.391-0.487-1.391-2.087c0-1.6 0.278-2.087 1.391-2.087s1.391 0.487 1.391 2.087zM26.296 14.052l0.139 12.313-15.652 0.417-0.209 1.878c-0.139 1.391-0.626 1.948-1.53 1.948-1.252 0-1.322-0.835-1.53-14.609l-0.209-14.678 18.783 0.417 0.209 12.313zM28.522 29.217c0 1.322-0.487 1.391-8.348 1.391s-8.348-0.070-8.348-1.391c0-1.322 0.487-1.391 8.348-1.391s8.348 0.070 8.348 1.391z"></path>
<path d="M13.774 2.852c-0.696 0.348-1.252 1.391-1.252 2.226 0 1.948 2.504 6.052 3.687 6.052 1.461 0 3.757-2.922 4.174-5.426 0.417-1.948 0.209-2.365-1.322-2.922-2.226-0.904-3.757-0.835-5.287 0.070zM17.67 3.896c1.391 0.557 1.461 3.061 0.139 4.8-0.765 1.113-1.183 1.183-2.017 0.487-1.53-1.252-2.157-4.383-1.043-5.078s1.53-0.765 2.922-0.209z"></path>
<path d="M16.487 6.4c-0.278 0.835-0.278 1.67-0.070 1.878 0.417 0.487 1.67-1.391 1.67-2.574 0-1.461-1.183-0.904-1.6 0.696z"></path>
<path d="M13.913 12.522c-1.322 0.417-0.626 0.557 2.435 0.557 2.922 0.070 3.757-0.139 2.783-0.557-1.67-0.696-2.922-0.696-5.217 0z"></path>
<path d="M8.696 15.304c-0.278 0.417 0.557 0.696 2.017 0.696 1.391 0 2.504-0.348 2.504-0.696 0-0.417-0.904-0.696-2.017-0.696-1.183 0-2.296 0.278-2.504 0.696z"></path>
<path d="M14.609 15.304c0 0.417 2.226 0.696 5.217 0.696s5.217-0.278 5.217-0.696c0-0.417-2.226-0.696-5.217-0.696s-5.217 0.278-5.217 0.696z"></path>
<path d="M10.922 17.878c1.67 0.139 4.313 0.139 5.913 0 1.67-0.139 0.348-0.278-2.922-0.278s-4.591 0.139-2.991 0.278z"></path>
<path d="M21.774 17.878c0.626 0.139 1.739 0.139 2.435 0 0.626-0.209 0.070-0.348-1.252-0.348s-1.878 0.139-1.183 0.348z"></path>
<path d="M9.6 19.965c0.835 0.139 2.087 0.139 2.783 0 0.626-0.209-0.070-0.348-1.6-0.278-1.53 0-2.087 0.139-1.183 0.278z"></path>
<path d="M17.252 19.965c1.6 0.139 4.104 0.139 5.565 0 1.391-0.139 0.070-0.278-2.991-0.278s-4.243 0.139-2.574 0.278z"></path>
<path d="M8.904 22.052c0.487 0.209 1.113 0.139 1.322-0.070 0.278-0.209-0.139-0.417-0.904-0.348-0.765 0-0.974 0.209-0.417 0.417z"></path>
<path d="M15.165 22.052c2.017 0.139 5.148 0.139 6.957 0s0.139-0.209-3.687-0.209c-3.826 0-5.287 0.070-3.27 0.209z"></path>
<path d="M10.226 24.139c1.252 0.139 3.478 0.139 4.87 0 1.461-0.139 0.487-0.278-2.226-0.278-2.643 0-3.826 0.139-2.643 0.278z"></path>
<path d="M19.687 24.139c1.043 0.139 2.713 0.139 3.826 0 1.043-0.139 0.139-0.278-1.948-0.278s-2.991 0.139-1.878 0.278z"></path>
</symbol>
<symbol id="GroupV" viewBox="0 0 32 32">
<title>GroupV</title>
<path d="M25.6 5.333c-1.493 0.427-6.293 0.853-10.773 0.96s-9.6 0.64-11.52 1.28l-3.413 1.173 0.32 10.88 0.32 10.773 2.667-0.32c1.493-0.107 7.467-0.64 13.333-1.067 5.867-0.533 11.733-1.493 13.12-2.24 2.347-1.173 2.453-1.813 2.133-11.627-0.32-11.093-0.64-11.627-6.187-9.813zM30.933 15.36c0 8.533-0.32 10.133-1.813 10.773-1.067 0.533-6.72 1.173-12.587 1.6-5.867 0.533-11.733 1.173-13.013 1.6-2.453 0.747-2.453 0.64-2.453-9.493 0-10.027 0.107-10.347 2.773-11.307 1.493-0.64 6.613-1.067 11.413-1.173 4.8 0 9.707-0.427 10.88-0.96 4.587-1.92 4.8-1.493 4.8 8.96z"></path>
<path d="M26.133 8.533c-0.32 0.64 0.107 0.747 0.96 0.427 2.347-0.96 2.24 2.667-0.107 4.48-1.707 1.28-1.707 1.28 0.533 0.747 1.707-0.427 2.347-1.387 2.347-3.627 0-3.093-2.347-4.267-3.733-2.027z"></path>
<path d="M10.773 9.813c-0.107 1.6 0.853 1.92 5.227 1.92s5.333-0.32 5.227-1.92c0-1.067-0.32-1.28-0.64-0.533-0.213 0.747-2.347 1.387-4.587 1.387s-4.373-0.64-4.587-1.387c-0.32-0.747-0.64-0.533-0.64 0.533z"></path>
<path d="M12.8 14.933c-0.64 1.28-1.067 3.52-0.853 5.12 0.32 2.56 0.747 2.88 4.053 2.88s3.733-0.32 4.053-2.88c0.747-6.187-4.693-9.92-7.253-5.12zM18.987 18.88c0.32 2.133-0.107 2.453-2.88 2.453-3.413 0-3.84-0.64-2.667-3.733 1.067-2.56 5.12-1.6 5.547 1.28z"></path>
<path d="M26.88 15.893c-1.173 0.64-1.067 1.067 0.427 1.6 0.96 0.32 2.027 0.427 2.347 0.107s-0.107-0.533-0.96-0.533c-1.173 0-1.173-0.213 0.107-1.067 0.853-0.533 1.173-1.067 0.533-1.067-0.533 0-1.707 0.427-2.453 0.96z"></path>
<path d="M2.453 18.667c0 0.747 0.853 1.067 2.027 0.747 2.453-0.64 2.453-0.853 0-1.493-1.173-0.32-2.027 0-2.027 0.747z"></path>
<path d="M3.52 21.013c-1.387 0.427-2.027 6.72-0.747 6.72 2.133 0 4.693-2.56 4.693-4.8 0-2.56-1.173-3.093-3.947-1.92zM6.4 23.36c0 1.067-0.747 2.24-1.6 2.667-1.6 0.533-2.347-2.56-0.853-3.947 1.28-1.387 2.453-0.747 2.453 1.28z"></path>
<path d="M13.12 26.347c0.96 0.213 2.453 0.213 3.2 0 0.64-0.32-0.107-0.533-1.92-0.533-1.707 0-2.347 0.213-1.28 0.533z"></path>
</symbol>
<symbol id="GroupN" viewBox="0 0 32 32">
<title>GroupN</title>
<path d="M24.853 3.2c-2.133 2.133-3.84 2.987-5.12 2.56-1.173-0.533-3.2 0.64-6.187 3.627-2.773 2.667-6.293 4.8-8.96 5.547l-4.587 1.173v5.227c0 5.013 0.107 5.227 5.013 8l5.013 2.773 10.987-3.52 10.987-3.413v-5.12c0-3.627-0.533-5.333-1.6-5.76-0.853-0.427-1.6-1.493-1.6-2.453 0-1.067-1.28-2.453-2.773-3.2-3.2-1.387-2.773-2.24 2.027-3.84 1.92-0.533 3.413-1.813 3.413-2.667 0-2.773-3.2-2.24-6.613 1.067zM30.293 2.027c0.32 0.533-0.32 1.173-1.6 1.493-1.707 0.427-1.92 0.32-0.853-0.96 1.387-1.707 1.707-1.813 2.453-0.533zM21.333 8.107c0 0.213-1.493 1.173-3.307 2.027-1.813 0.96-2.987 2.027-2.667 2.347s2.133-0.32 4.053-1.493c2.773-1.6 4.16-1.813 5.973-1.067 1.28 0.64 2.347 1.387 2.347 1.707 0 0.427-4.053 1.707-9.067 2.987-9.813 2.347-9.92 2.24-4.053-4.373 2.24-2.347 4.16-3.52 5.12-3.2 0.853 0.427 1.6 0.853 1.6 1.067zM28.8 14.72c0 0.427-4.16 2.027-9.28 3.627-8.533 2.56-9.493 2.667-12.373 1.173-1.707-0.853-3.307-1.28-3.627-0.96-0.32 0.213 0.853 1.173 2.56 2.133 2.667 1.28 3.093 2.133 2.667 4.8-0.533 3.84-0.427 3.84-4.48 1.707-2.56-1.28-3.2-2.347-3.2-5.013 0-1.92 0.747-3.84 1.92-4.693 2.133-1.707 4.907-1.92 3.947-0.427-0.32 0.533 0 1.067 0.96 1.067 0.853 0 2.347 0.32 3.413 0.747 1.387 0.533 1.6 0.32 0.96-0.747s-0.32-1.28 1.387-0.853c1.28 0.427 2.347 0.213 2.347-0.427 0-0.533 0.853-0.853 1.92-0.747 0.96 0.107 2.987-0.32 4.48-0.96 3.2-1.387 6.4-1.6 6.4-0.427zM30.933 20.16v4.053l-8.213 2.347c-4.587 1.387-9.173 2.667-10.133 2.987-1.6 0.32-1.92-0.213-1.92-3.307v-3.733l9.92-3.2c5.333-1.707 9.92-3.2 10.133-3.2 0.107-0.107 0.213 1.707 0.213 4.053z"></path>
</symbol>
<symbol id="mobile-phone" viewBox="0 0 32 32">
<title>mobile-phone</title>
<path fill="none" stroke="#fff" style="stroke: var(--color1, #fff)" stroke-linejoin="round" stroke-linecap="round" stroke-miterlimit="4" stroke-width="1.4545" d="M19.473 7.015c1.36 0.265 2.61 0.929 3.591 1.907s1.645 2.226 1.911 3.584l-5.501-5.491zM19.473 1.455c2.826 0.313 5.462 1.577 7.474 3.582s3.281 4.634 3.598 7.455l-11.072-11.037zM29.153 23.584v4.17c0.002 0.387-0.078 0.77-0.233 1.125s-0.383 0.673-0.669 0.935-0.623 0.461-0.991 0.585c-0.367 0.124-0.757 0.17-1.143 0.135-4.286-0.465-8.402-1.926-12.019-4.267-3.365-2.134-6.218-4.982-8.356-8.34-2.354-3.626-3.818-7.755-4.276-12.052-0.035-0.384 0.011-0.772 0.134-1.138s0.322-0.702 0.583-0.987c0.261-0.285 0.578-0.513 0.932-0.669s0.736-0.237 1.123-0.237h4.178c0.676-0.007 1.331 0.232 1.844 0.672s0.847 1.051 0.942 1.719c0.176 1.335 0.503 2.645 0.975 3.906 0.187 0.498 0.228 1.038 0.117 1.558s-0.369 0.997-0.744 1.375l-1.769 1.765c1.983 3.48 4.869 6.361 8.356 8.34l1.769-1.765c0.379-0.374 0.857-0.631 1.378-0.742s1.063-0.070 1.561 0.117c1.264 0.471 2.576 0.797 3.913 0.973 0.677 0.095 1.294 0.435 1.736 0.956s0.676 1.184 0.659 1.866z"></path>
</symbol>
<symbol id="mobile-menu" viewBox="0 0 56 32">
<title>mbile-menu</title>
<path fill="#2d4872" style="fill: var(--color2, #2d4872)" d="M1.6 0h52.8c0.884 0 1.6 0.716 1.6 1.6v3.2c0 0.884-0.716 1.6-1.6 1.6h-52.8c-0.884 0-1.6-0.716-1.6-1.6v-3.2c0-0.884 0.716-1.6 1.6-1.6z"></path>
<path fill="#2d4872" style="fill: var(--color2, #2d4872)" d="M1.6 12.8h52.8c0.884 0 1.6 0.716 1.6 1.6v3.2c0 0.884-0.716 1.6-1.6 1.6h-52.8c-0.884 0-1.6-0.716-1.6-1.6v-3.2c0-0.884 0.716-1.6 1.6-1.6z"></path>
<path fill="#2d4872" style="fill: var(--color2, #2d4872)" d="M1.6 25.6h52.8c0.884 0 1.6 0.716 1.6 1.6v3.2c0 0.884-0.716 1.6-1.6 1.6h-52.8c-0.884 0-1.6-0.716-1.6-1.6v-3.2c0-0.884 0.716-1.6 1.6-1.6z"></path>
</symbol>
<symbol id="grid" viewBox="0 0 32 32">
<title>grid</title>
<path fill="none" stroke="#6cac3d" style="stroke: var(--color3, #6cac3d)" stroke-linejoin="round" stroke-linecap="round" stroke-miterlimit="4" stroke-width="3.7647" d="M13.333 4h-9.333v9.333h9.333v-9.333z"></path>
<path fill="none" stroke="#6cac3d" style="stroke: var(--color3, #6cac3d)" stroke-linejoin="round" stroke-linecap="round" stroke-miterlimit="4" stroke-width="3.7647" d="M28 4h-9.333v9.333h9.333v-9.333z"></path>
<path fill="none" stroke="#6cac3d" style="stroke: var(--color3, #6cac3d)" stroke-linejoin="round" stroke-linecap="round" stroke-miterlimit="4" stroke-width="3.7647" d="M28 18.667h-9.333v9.333h9.333v-9.333z"></path>
<path fill="none" stroke="#6cac3d" style="stroke: var(--color3, #6cac3d)" stroke-linejoin="round" stroke-linecap="round" stroke-miterlimit="4" stroke-width="3.7647" d="M13.333 18.667h-9.333v9.333h9.333v-9.333z"></path>
</symbol>
<symbol id="file-text" viewBox="0 0 32 32">
<title>file-text</title>
<path fill="none" stroke="#6cac3d" style="stroke: var(--color3, #6cac3d)" stroke-linejoin="round" stroke-linecap="round" stroke-miterlimit="4" stroke-width="3.7647" d="M18.667 2.667h-10.667c-0.707 0-1.386 0.281-1.886 0.781s-0.781 1.178-0.781 1.886v21.333c0 0.707 0.281 1.386 0.781 1.886s1.178 0.781 1.886 0.781h16c0.707 0 1.386-0.281 1.886-0.781s0.781-1.178 0.781-1.886v-16l-8-8z"></path>
<path fill="none" stroke="#6cac3d" style="stroke: var(--color3, #6cac3d)" stroke-linejoin="round" stroke-linecap="round" stroke-miterlimit="4" stroke-width="3.7647" d="M18.667 2.667v8h8"></path>
<path fill="none" stroke="#6cac3d" style="stroke: var(--color3, #6cac3d)" stroke-linejoin="round" stroke-linecap="round" stroke-miterlimit="4" stroke-width="3.7647" d="M21.333 17.333h-10.667"></path>
<path fill="none" stroke="#6cac3d" style="stroke: var(--color3, #6cac3d)" stroke-linejoin="round" stroke-linecap="round" stroke-miterlimit="4" stroke-width="3.7647" d="M21.333 22.667h-10.667"></path>
<path fill="none" stroke="#6cac3d" style="stroke: var(--color3, #6cac3d)" stroke-linejoin="round" stroke-linecap="round" stroke-miterlimit="4" stroke-width="3.7647" d="M13.333 12h-2.667"></path>
</symbol>
<symbol id="handshake" viewBox="0 0 32 32">
<title>handshake</title>
<path d="M22.507 3.36c-0.907 0.96-2.133 1.76-2.613 1.813-8.907 0.907-8.853 0.907-10.507-0.853-0.907-0.907-1.867-1.653-2.187-1.653-0.8 0-7.2 6.56-7.2 7.36 0 0.32 0.8 1.547 1.76 2.613 2.24 2.507 2.72 4.16 1.653 5.813-0.64 0.907-0.693 1.44-0.213 2.293 0.32 0.64 0.907 1.12 1.28 1.12s0.96 0.587 1.28 1.333c0.32 0.747 0.96 1.333 1.333 1.333 0.427 0 1.013 0.587 1.333 1.333s0.96 1.333 1.333 1.333c0.427 0 1.013 0.587 1.333 1.333 0.693 1.44 3.093 1.867 4.267 0.693 0.48-0.48 0.8-0.48 1.28 0 1.173 1.173 3.573 0.747 4.267-0.693 0.32-0.747 0.907-1.333 1.333-1.333 0.373 0 0.96-0.587 1.227-1.333s0.853-1.333 1.333-1.333c0.427 0 1.12-0.587 1.44-1.333s0.907-1.333 1.28-1.333c0.373 0 0.96-0.48 1.28-1.12 0.48-0.853 0.427-1.387-0.16-2.293-0.533-0.8-0.64-1.493-0.32-1.973 0.267-0.427 0.48-1.387 0.48-2.133 0-0.8 0.64-1.973 1.6-2.88 0.907-0.853 1.6-1.92 1.6-2.4 0-0.907-6.347-7.467-7.253-7.467-0.267 0-1.28 0.8-2.24 1.76zM30.347 9.173c0.053 1.653-1.12 1.653-2.613-0.053-0.8-0.907-1.76-1.653-2.080-1.653-1.173 0-0.587 1.547 1.12 2.827 1.44 1.173 1.6 1.493 1.013 2.187-0.373 0.427-0.533 1.067-0.32 1.387 0.16 0.267 0.16 1.067 0 1.653-0.373 1.067-0.64 0.907-3.413-1.867-3.52-3.52-5.44-3.893-8.373-1.653-3.787 2.88-4 0.533-0.267-3.147 2.24-2.24 2.827-2.507 4.16-2.24 1.28 0.32 1.813 0.053 3.307-1.493l1.813-1.867 2.827 2.507c1.547 1.387 2.827 2.933 2.827 3.413zM9.333 5.867c1.333 1.387 1.76 1.547 3.68 1.227l2.133-0.32-1.973 2.293c-2.133 2.56-2.24 2.773-1.44 4.32 0.8 1.493 3.253 1.333 4.8-0.32 2.027-2.133 3.413-1.76 7.52 2.24 2.027 1.92 3.68 3.84 3.68 4.267 0 1.547-1.653 1.333-3.467-0.373-0.96-0.907-1.867-1.493-2.080-1.173-0.16 0.267 0.427 1.173 1.28 1.973 1.76 1.707 2.027 2.827 0.747 3.307-0.48 0.16-1.493-0.32-2.56-1.387-2.24-2.187-2.987-1.44-0.8 0.8 1.707 1.76 1.813 3.413 0.32 3.413-0.427 0-3.36-2.667-6.613-5.867-3.253-3.253-6.24-5.867-6.667-5.867-0.48 0-1.12 0.373-1.493 0.8-0.8 0.96-1.6 0.587-1.6-0.747 0-0.533-0.373-1.28-0.8-1.653-0.747-0.64-0.64-0.907 0.853-2.453 2.24-2.347 1.547-3.093-0.747-0.853-1.387 1.333-1.92 1.547-2.4 1.067-0.533-0.533-0.053-1.28 2.133-3.467 1.547-1.547 3.040-2.827 3.36-2.827s1.28 0.693 2.133 1.6zM9.067 16.96c0 1.067-2.613 3.84-3.627 3.84-1.387 0-1.28-1.707 0.213-3.253 1.653-1.76 3.413-2.080 3.413-0.587zM11.733 19.627c0 1.067-2.613 3.84-3.627 3.84-1.387 0-1.28-1.707 0.213-3.253 1.653-1.76 3.413-2.080 3.413-0.587zM14.4 22.293c0 1.227-2.667 3.84-3.893 3.84-1.333 0-1.12-1.6 0.533-3.307s3.36-1.973 3.36-0.533zM16.96 24.747c0.213 1.067-2.347 4.053-3.467 4.053-1.547 0-1.333-1.707 0.427-3.52 1.867-1.92 2.773-2.080 3.040-0.533zM19.733 27.573c0 0.96-1.493 1.547-2.187 0.853-0.853-0.853 0.587-2.933 1.493-2.187 0.373 0.32 0.693 0.907 0.693 1.333z"></path>
<path d="M23.467 6.4c0 0.267 0.267 0.533 0.533 0.533 0.32 0 0.533-0.267 0.533-0.533 0-0.32-0.213-0.533-0.533-0.533-0.267 0-0.533 0.213-0.533 0.533z"></path>
<path d="M6.933 6.933c0 0.267 0.267 0.533 0.533 0.533 0.32 0 0.533-0.267 0.533-0.533 0-0.32-0.213-0.533-0.533-0.533-0.267 0-0.533 0.213-0.533 0.533z"></path>
</symbol>
<symbol id="note" viewBox="0 0 32 32">
<title>note</title>
<path d="M8.907 0.96c-0.533 0.533-0.907 1.387-0.907 1.867 0 0.533-0.427 0.907-1.013 0.907s-1.227 0.213-1.387 0.533c-0.16 0.267-1.067 0.533-1.92 0.533-0.907 0-2.080 0.267-2.667 0.533-0.96 0.533-1.013 1.28-1.013 12.96 0 8.96 0.16 12.587 0.64 13.067 0.693 0.693 18.72 0.96 20.373 0.32 0.747-0.267 0.853-1.92 0.853-12.96 0-9.12-0.16-12.8-0.64-13.28-0.373-0.373-1.547-0.64-2.613-0.64-1.12 0-2.187-0.267-2.347-0.533-0.16-0.32-0.8-0.533-1.387-0.533-0.64 0-1.013-0.373-1.013-1.013 0-2.453-3.307-3.573-4.96-1.76zM12.8 3.467c0 1.067 0.267 1.333 1.28 1.333 1.173 0 1.92 0.853 1.92 2.187 0 0.267-2.187 0.48-4.853 0.48-4.693 0-4.8-0.053-4.64-1.227 0.107-0.853 0.587-1.227 1.653-1.333 1.227-0.16 1.387-0.373 1.12-1.44-0.213-0.853 0-1.387 0.64-1.76 1.387-0.747 2.88 0.16 2.88 1.76zM4.8 6.933c0 0.267-0.48 0.533-1.067 0.533-1.013 0-1.067 0.373-1.067 10.88v10.827l8.053 0.373c4.64 0.267 8.267 0.213 8.533-0.053s0.427-5.28 0.373-11.147c-0.16-10.56-0.16-10.613-1.333-10.773-1.92-0.267-1.44-1.173 0.64-1.173h1.867l-0.107 12-0.16 12.053-19.2 0.213-0.16-11.467c-0.053-6.293 0-11.733 0.107-12.107 0.32-0.8 3.52-0.96 3.52-0.16zM18.133 15.733v7.2h-4.8v5.333h-9.6v-19.733h14.4v7.2zM17.067 24.693c0 0.107-0.48 0.64-1.067 1.173-1.013 0.96-1.067 0.907-1.067-0.16 0-0.8 0.32-1.173 1.067-1.173 0.587 0 1.067 0.107 1.067 0.16zM18.133 27.2c0 0.747-0.373 1.067-1.173 1.067-1.067 0-1.12-0.053-0.16-1.067 0.533-0.587 1.067-1.067 1.173-1.067 0.053 0 0.16 0.48 0.16 1.067z"></path>
<path d="M10.667 3.2c0 0.267 0.267 0.533 0.533 0.533 0.32 0 0.533-0.267 0.533-0.533 0-0.32-0.213-0.533-0.533-0.533-0.267 0-0.533 0.213-0.533 0.533z"></path>
<path d="M6.4 12.267c0 0.267 0.267 0.533 0.533 0.533 0.32 0 0.533-0.267 0.533-0.533 0-0.32-0.213-0.533-0.533-0.533-0.267 0-0.533 0.213-0.533 0.533z"></path>
<path d="M9.067 12.267c0 0.32 1.44 0.533 3.2 0.533s3.2-0.213 3.2-0.533c0-0.32-1.44-0.533-3.2-0.533s-3.2 0.213-3.2 0.533z"></path>
<path d="M9.76 15.893c-5.013 0.213-4.053 1.173 1.173 1.173 2.507 0 4.533-0.213 4.533-0.48 0-0.64-1.867-0.853-5.707-0.693z"></path>
<path d="M6.507 18.773c0.16 0.48 1.707 0.747 4.587 0.853 3.627 0.107 4.373 0 4.373-0.693 0-0.64-0.8-0.8-4.587-0.8-3.413 0-4.533 0.16-4.373 0.64z"></path>
<path d="M6.4 21.333c0 0.48 1.6 0.64 7.84 0.747 0.747 0.053 1.493-0.267 1.653-0.64 0.16-0.48-1.013-0.64-4.64-0.64-2.88 0-4.853 0.213-4.853 0.533z"></path>
<path d="M25.813 3.467c-0.907 0.64-1.013 1.653-1.173 11.893-0.213 10.827-0.16 11.307 1.013 13.92 0.693 1.493 1.387 2.72 1.547 2.72s0.64-0.907 1.013-2.027c0.533-1.28 0.853-4.907 0.96-10.667 0.16-7.093 0.373-8.64 0.96-8.64s0.8 0.747 0.8 2.933c0 1.707 0.213 2.933 0.533 2.933 0.373 0 0.533-1.28 0.427-3.36-0.16-2.827-0.32-3.36-1.333-3.84-0.853-0.373-1.227-1.12-1.493-3.040-0.427-2.987-1.653-4.053-3.253-2.827zM27.733 4.8c0 0.267-0.373 0.533-0.853 0.533-0.427 0-0.64-0.267-0.48-0.533 0.16-0.32 0.533-0.533 0.853-0.533 0.267 0 0.48 0.213 0.48 0.533zM28.267 8.053c0 0.747-0.373 1.013-1.333 1.013-1.387 0-1.76-0.96-0.747-1.973 0.853-0.853 2.080-0.267 2.080 0.96zM28.267 17.333v7.2h-2.667v-6.827c0-3.787 0.16-7.040 0.373-7.2 0.16-0.213 0.8-0.373 1.333-0.373 0.907 0 0.96 0.587 0.96 7.2zM28.267 25.813c0 0.16-0.267 0.907-0.587 1.76-0.427 1.173-0.64 1.28-1.013 0.693-0.907-1.387-0.587-2.667 0.533-2.667 0.587 0 1.067 0.107 1.067 0.213z"></path>
</symbol>
<symbol id="worker" viewBox="0 0 30 32">
<title>worker</title>
<path d="M12 0.75c-1.85 0.95-3.7 5-3.9 8.35-0.1 1.4 0.1 2 0.9 2.4 0.55 0.3 1 1 1 1.55s0.35 1.55 0.8 2.2c0.85 1.25 0.6 2.25-0.55 2.25-0.35 0-1.65 0.45-2.9 0.95-1.7 0.75-2.35 1.35-2.95 2.9-1.050 2.5-1.7 8.4-0.95 7.95 0.3-0.2 0.55-1 0.55-1.8 0-2.65 1.050-6.4 2.050-7.3 0.9-0.85 0.95-0.8 0.95 0.95 0 1-0.2 1.95-0.5 2.1s-0.5 1.75-0.5 3.55v3.2h18v-3.2c0-1.8-0.2-3.4-0.5-3.55-0.25-0.15-0.5-1.1-0.5-2.1 0-1.75 0.050-1.8 0.95-0.95 1 0.9 2.050 4.65 2.050 7.3 0 0.8 0.25 1.6 0.55 1.8 0.75 0.45 0.15-4.85-0.85-7.65-0.6-1.65-1.2-2.25-2.95-3.1-1.25-0.6-2.6-1.050-3-1.050-1.15 0-1.5-1.4-0.55-2.45 0.45-0.5 0.8-1.35 0.8-1.95s0.45-1.3 1-1.6c0.75-0.4 0.95-0.95 0.85-2.5-0.050-1.050-0.3-2.1-0.5-2.3s-0.35-0.7-0.35-1.1c0-1.45-1.7-4.15-3.050-4.85-1.75-0.95-4.3-0.95-5.95 0zM14.5 2.55c0 0.85-0.2 1.4-0.5 1.2-0.25-0.15-0.5-0.85-0.5-1.55 0-0.65 0.25-1.2 0.5-1.2 0.3 0 0.5 0.7 0.5 1.55zM16.9 2.35c-0.2 1.95-1.4 2.1-1.4 0.2 0-1.050 0.25-1.55 0.8-1.55s0.7 0.4 0.6 1.35zM13.8 4.6c1.5 0.7 3.55-0.1 4.15-1.7l0.4-1.050 0.8 1.2c0.45 0.65 0.85 1.65 0.85 2.2 0 0.6 0.3 1.35 0.6 1.65 1.1 1.1-0.55 1.6-5.6 1.6s-6.7-0.5-5.6-1.6c0.3-0.3 0.6-1.1 0.6-1.7s0.5-1.7 1.15-2.5l1.1-1.45 0.15 1.4c0.1 0.9 0.6 1.6 1.4 1.95zM9.6 10.6c-0.45 0.45-0.6 0.35-0.6-0.6s0.15-1.050 0.6-0.6c0.45 0.45 0.45 0.75 0 1.2zM21 10.1c0 0.8-0.15 0.95-0.55 0.55-0.3-0.3-0.4-0.8-0.25-1.1 0.55-0.85 0.8-0.65 0.8 0.55zM19.5 11.45c0 1.2-0.4 2.4-1.050 3.25-0.85 1.1-1.4 1.3-3.45 1.3s-2.6-0.2-3.45-1.3c-0.65-0.85-1.050-2.050-1.050-3.25v-1.95h9v1.95zM17.5 17c0 0.15-0.55 0.9-1.25 1.75l-1.25 1.5-1.25-1.5c-0.7-0.85-1.25-1.6-1.25-1.75s1.15-0.25 2.5-0.25c1.4 0 2.5 0.1 2.5 0.25zM13.45 19.75c0.65 0.95 1.3 1.75 1.5 1.75 0.15 0 0.85-0.8 1.55-1.75 1.85-2.55 3.2-2.2 3.4 0.85l0.15 2.4h-10.050v-2.15c0-3.45 1.5-3.95 3.45-1.1zM9.5 21.5v2.5h11v-2.5c0-1.9 0.2-2.5 0.75-2.5s0.75 0.6 0.75 2.2c0 1.3 0.3 2.4 0.75 2.8s0.75 1.5 0.75 2.8v2.2h-17v-2.2c0-1.3 0.3-2.4 0.75-2.8s0.75-1.5 0.75-2.8c0-1.6 0.2-2.2 0.75-2.2s0.75 0.6 0.75 2.5z"></path>
<path d="M7.5 25c0 0.25 0.45 0.5 1 0.5s1-0.25 1-0.5c0-0.3-0.45-0.5-1-0.5s-1 0.2-1 0.5z"></path>
<path d="M20.5 25c0 0.25 0.45 0.5 1 0.5s1-0.25 1-0.5c0-0.3-0.45-0.5-1-0.5s-1 0.2-1 0.5z"></path>
</symbol>
<symbol id="guarantee" viewBox="0 0 32 32">
<title>guarantee</title>
<path d="M5.12 1.387c-0.747 0.693-0.853 2.507-0.853 11.733v10.88h-2.133c-1.92 0-2.133 0.16-2.133 1.28 0 2.72 0.907 2.987 10.453 2.987h8.747v1.6c0 1.813 0.107 1.867 1.6 0.96 0.853-0.533 1.28-0.533 2.133 0 1.493 0.907 1.6 0.853 1.6-0.96 0-1.013 0.267-1.6 0.747-1.6 0.427 0 1.173-0.373 1.6-0.853 0.747-0.693 0.853-2.507 0.853-11.733v-10.88h2.133c1.92 0 2.133-0.16 2.133-1.28 0-2.827-0.64-2.987-13.867-2.987-10.347 0-12.32 0.107-13.013 0.853zM26.667 14.24c-0.267 11.52-0.373 12.693-1.173 12.853-1.12 0.213-1.28-1.6-0.373-4.64 0.8-2.613-0.053-4.64-2.080-5.067-3.467-0.8-5.707 1.813-4.427 5.173l0.587 1.44h-13.867v-10.827c0-5.973 0.16-11.040 0.373-11.2 0.16-0.213 5.013-0.373 10.773-0.373h10.453l-0.267 12.64zM30.827 2.773c0.16 0.747-0.16 0.96-1.44 0.96-1.547 0-2.187-0.907-1.28-1.813 0.693-0.693 2.56-0.053 2.72 0.853zM23.413 19.733l1.227 1.013-1.333 1.333c-1.333 1.333-1.333 1.333-2.453 0.267-1.333-1.28-1.387-1.76-0.267-2.827 1.067-1.12 1.387-1.067 2.827 0.213zM23.467 27.147c0 2.453-0.107 2.773-0.8 2.187-0.64-0.533-0.96-0.533-1.6 0-0.693 0.587-0.8 0.267-0.8-2.187 0-2.827 0-2.88 1.6-2.88s1.6 0.053 1.6 2.88zM19.2 26.133c0 1.013-0.373 1.067-8.8 1.067-4.853 0-8.8-0.107-8.8-0.213s-0.16-0.587-0.32-1.067c-0.267-0.747 0.693-0.853 8.8-0.853 8.747 0 9.12 0.053 9.12 1.067z"></path>
<path d="M12.267 5.333c0 0.267 0.96 0.533 2.133 0.533s2.133-0.267 2.133-0.533c0-0.32-0.96-0.533-2.133-0.533s-2.133 0.213-2.133 0.533z"></path>
<path d="M17.6 5.333c0 0.267 0.48 0.533 1.067 0.533s1.067-0.267 1.067-0.533c0-0.32-0.48-0.533-1.067-0.533s-1.067 0.213-1.067 0.533z"></path>
<path d="M10.667 8c0 0.32 2.133 0.533 5.333 0.533s5.333-0.213 5.333-0.533c0-0.32-2.133-0.533-5.333-0.533s-5.333 0.213-5.333 0.533z"></path>
<path d="M8 11.2c0 0.267 0.587 0.533 1.333 0.533s1.333-0.267 1.333-0.533c0-0.32-0.587-0.533-1.333-0.533s-1.333 0.213-1.333 0.533z"></path>
<path d="M11.733 11.2c0 0.32 2.4 0.533 6.133 0.533s6.133-0.213 6.133-0.533c0-0.32-2.4-0.533-6.133-0.533s-6.133 0.213-6.133 0.533z"></path>
<path d="M8 13.867c0 0.267 1.333 0.533 2.933 0.533s2.933-0.267 2.933-0.533c0-0.32-1.333-0.533-2.933-0.533s-2.933 0.213-2.933 0.533z"></path>
<path d="M14.933 13.867c0 0.32 1.867 0.533 4.533 0.533s4.533-0.213 4.533-0.533c0-0.32-1.867-0.533-4.533-0.533s-4.533 0.213-4.533 0.533z"></path>
<path d="M8 16.533c0 0.32 2.133 0.533 5.333 0.533s5.333-0.213 5.333-0.533c0-0.32-2.133-0.533-5.333-0.533s-5.333 0.213-5.333 0.533z"></path>
<path d="M8 19.2c0 0.32 1.867 0.533 4.533 0.533s4.533-0.213 4.533-0.533c0-0.32-1.867-0.533-4.533-0.533s-4.533 0.213-4.533 0.533z"></path>
</symbol>
<symbol id="control" viewBox="0 0 32 32">
<title>control</title>
<path d="M0.487 0.417c-0.278 0.278-0.487 1.739-0.487 3.27 0 2.087 0.278 2.783 1.322 3.061 0.974 0.209 1.391 1.183 1.67 4.035 1.113 10.991 10.226 16.209 19.757 11.27 3.757-1.948 6.47-7.235 6.47-12.73 0-1.67 0.348-2.296 1.461-2.574 1.183-0.348 1.391-0.835 1.183-3.409l-0.209-2.991-15.374-0.209c-8.417-0.070-15.513 0.070-15.791 0.278zM29.913 3.826v1.739h-27.826v-3.478h27.826v1.739zM27.13 10.087c0 4.035-2.157 8.348-5.078 10.087-3.2 2.017-9.252 1.878-12.313-0.209s-4.87-5.635-4.87-9.67v-3.339h22.261v3.13z"></path>
<path d="M11.965 10.643c-3.478 3.687-0.904 9.53 4.104 9.53 3.27 0 5.496-2.365 5.496-5.635 0-4.939-6.261-7.443-9.6-3.896zM18.365 12.243c2.157 2.087 0.626 5.843-2.365 5.843-1.67 0-3.478-1.809-3.478-3.478 0-0.696 0.487-1.809 1.113-2.365 0.557-0.626 1.67-1.113 2.365-1.113s1.809 0.487 2.365 1.113z"></path>
<path d="M14.887 13.983c-0.696 1.183 0.904 2.504 1.878 1.53 0.835-0.835 0.278-2.296-0.765-2.296-0.348 0-0.835 0.348-1.113 0.765z"></path>
<path d="M0.278 22.539c-0.209 0.557 0.278 2.226 1.043 3.687 1.6 3.2 7.096 6.678 8.487 5.287 0.557-0.557-0.070-1.113-2.435-2.226-2.643-1.113-3.548-2.017-4.661-4.591-1.461-3.339-1.878-3.687-2.435-2.157z"></path>
<path d="M4.174 22.957c0 1.878 2.991 4.87 4.87 4.87 1.948 0 1.739-0.974-0.348-1.948-0.974-0.487-2.087-1.6-2.574-2.574-0.974-2.087-1.948-2.296-1.948-0.348z"></path>
<path d="M25.878 23.304c-0.487 0.974-1.6 2.087-2.574 2.574-2.087 0.974-2.296 1.948-0.348 1.948 1.878 0 4.87-2.991 4.87-4.87 0-1.948-0.974-1.739-1.948 0.348z"></path>
<path d="M29.287 24.626c-1.113 2.643-2.017 3.548-4.661 4.661-2.365 1.043-2.991 1.67-2.435 2.226s1.6 0.348 3.757-0.696c3.478-1.67 7.026-7.165 5.565-8.626-0.557-0.557-1.113 0.070-2.226 2.435z"></path>
</symbol>
<symbol id="list" viewBox="0 0 32 32">
<title>list</title>
<path d="M1.53 1.53c-0.626 0.626-0.835 4.73-0.835 14.261 0 12.939 0.070 13.426 1.391 13.426 0.765 0 1.391 0.487 1.391 1.043 0 0.904 1.6 1.043 10.435 1.043h10.435v-12.243l2.783-2.713c3.27-3.2 3.687-2.783 0.626 0.696-1.183 1.322-1.878 2.435-1.461 2.435 2.643 0 6.33-9.183 4.243-10.504-1.391-0.904-1.67-0.835-4.035 1.183l-2.157 1.809v-2.157c0-1.391 0.487-2.365 1.391-2.852 1.6-0.835 1.878-4.104 0.557-5.426-1.183-1.183-23.583-1.183-24.765 0zM5.496 2.365c0.626 0.765 0.487 1.043-0.626 1.322-1.322 0.348-1.391 0.904-1.391 12.591 0 10.435-0.139 12.243-1.043 12.243s-1.043-1.878-1.043-12.73c0-12.661 0.278-14.4 2.504-14.4 0.417 0 1.183 0.417 1.6 0.974zM25.948 2.852c0.417 0.626 0.487 1.67 0.278 2.296-0.348 0.974-1.739 1.113-9.739 1.113h-9.252v-4.939l8.974 0.209c7.443 0.209 9.183 0.417 9.739 1.322zM6.261 4.8c0 0.835-1.391 1.739-1.878 1.252s0.417-1.878 1.252-1.878c0.348 0 0.626 0.278 0.626 0.626zM23.652 10.226c0 4.383-1.252 5.078-9.461 5.078-9.391 0-10.435 1.322-1.183 1.53l6.817 0.139-6.817 0.209c-8.070 0.278-8.626 1.6-0.696 1.6h5.287l-1.461 1.6c-0.765 0.835-1.948 2.713-2.574 4.174-0.974 2.435-1.252 2.574-4.174 2.574-1.739 0-3.13 0.278-3.13 0.696s2.991 0.626 7.861 0.626c4.243-0.070 7.026-0.209 6.052-0.417-0.974-0.139-2.852-0.417-4.174-0.626l-2.435-0.417 2.435-0.974c1.322-0.557 3.617-2.157 5.078-3.617l2.574-2.504v10.783l-19.13-0.417-0.209-11.339-0.139-11.27h19.478v2.574zM30.33 10.504c0.209 0.417 0.070 1.113-0.278 1.461-0.904 0.904-3.13-0.557-2.504-1.6 0.487-0.835 2.157-0.765 2.783 0.139zM24.348 14.957c-1.67 1.739-3.409 3.13-3.757 3.13-0.417 0 0.696-1.391 2.365-3.13s3.409-3.13 3.757-3.13c0.417 0-0.696 1.391-2.365 3.13zM25.391 16.696c-1.53 1.53-3.061 2.783-3.409 2.783-0.417 0 0.696-1.391 2.365-3.13 1.67-1.67 3.2-2.922 3.409-2.783 0.139 0.209-0.904 1.6-2.365 3.13zM20.661 19.826c0.348 1.113-1.53 3.826-2.713 3.826-1.252 0-1.391-2.157-0.209-3.478 1.53-1.67 2.365-1.739 2.922-0.348zM16.696 24.417c0 0.348-0.487 0.626-1.043 0.626-0.626 0-0.835-0.417-0.626-1.043 0.417-1.043 1.67-0.765 1.67 0.417z"></path>
<path d="M9.878 10.226c2.226 0.139 5.843 0.139 8 0 2.226-0.139 0.417-0.209-3.965-0.209s-6.191 0.070-4.035 0.209z"></path>
<path d="M9.878 12.313c2.226 0.139 5.843 0.139 8 0 2.226-0.139 0.417-0.209-3.965-0.209s-6.191 0.070-4.035 0.209z"></path>
<path d="M6.609 13.913c-0.278 0.417 2.296 0.696 7.235 0.696 4.661 0 7.722-0.278 7.722-0.696s-2.852-0.696-7.235-0.696c-4.104 0-7.513 0.278-7.722 0.696z"></path>
<path d="M6.261 25.739c0 0.348 1.461 0.696 3.2 0.696 1.878 0 2.991-0.278 2.713-0.696-0.209-0.417-1.67-0.696-3.2-0.696-1.461 0-2.713 0.278-2.713 0.696z"></path>
</symbol>
<symbol id="wallpaper" viewBox="0 0 32 32">
<title>wallpaper</title>
<path d="M2.773 2.667c-1.387 1.387-1.707 4.053-1.707 13.333 0 15.36-0.427 14.933 16.64 14.933h13.227v-25.6h-8c-6.72 0-7.787 0.213-7.253 1.707 0.427 1.173 0.96 1.28 1.707 0.533 1.92-1.92 3.307-1.28 1.707 0.64-1.387 1.813-1.387 1.813 0.747 0 1.173-0.96 2.56-1.813 3.093-1.813 0.427 0 0.107 0.853-0.64 1.813-1.387 1.813-1.387 1.813 0.747 0 2.56-2.133 4.053-2.347 2.987-0.533-0.64 1.067-0.427 1.067 0.747 0 0.747-0.64 1.92-1.28 2.453-1.28 0.64 0-0.747 1.813-2.88 4.053-5.013 5.12-5.227 7.147-0.213 2.347s4.8-2.773-0.213 2.667l-4.053 4.267 4.053-3.627c5.12-4.8 5.12-3.093 0 2.56l-4.053 4.267 4.053-3.627c5.76-5.44 4.8-2.56-1.173 3.413-5.013 4.907-8.32 6.827-5.44 3.093 1.387-1.707 1.28-1.707-0.64-0.107-1.173 0.853-3.733 1.707-5.76 1.92-2.987 0.107-3.413-0.107-2.347-1.387 0.853-0.96 1.173-5.333 0.96-13.013l-0.32-11.627-3.307-0.32c-2.027-0.213-4.053 0.32-5.12 1.387zM10.667 3.733c0 0.96-0.64 1.28-1.813 0.853-1.6-0.533-1.493-0.32 0.213 1.067l2.133 1.707-2.133 0.107c-2.133 0.107-2.133 0.107 0 1.28 2.027 1.173 2.027 1.173 0 2.027-1.813 0.747-1.92 0.853-0.213 0.853 0.96 0.107 1.813 0.533 1.813 1.173 0 0.533-0.853 1.173-1.813 1.173-1.707 0.107-1.707 0.213-0.213 0.64 0.96 0.213 1.813 1.493 1.813 2.88 0 1.92-0.533 2.347-1.92 2.027-1.067-0.32-2.88 0-4.16 0.64-2.24 1.173-2.24 1.067-2.24-7.147 0-5.013 0.533-8.853 1.28-9.6 1.813-1.813 7.253-1.6 7.253 0.32zM28.693 23.147c-0.853 0.96-0.96 1.493-0.213 1.067 0.747-0.533 1.173-0.107 1.067 1.173-0.107 1.387-1.067 1.92-3.733 2.027l-3.627 0.107 3.52-3.627c3.52-3.627 5.76-4.16 2.987-0.747zM3.947 24c-0.747 1.387-1.493 2.133-1.6 1.493-0.213-0.533 0.213-1.707 0.853-2.56 1.92-2.24 2.133-1.92 0.747 1.067zM24.853 29.547c-3.093 0.213-8.213 0.213-11.2 0-3.093-0.213-0.64-0.32 5.547-0.32s8.64 0.107 5.653 0.32z"></path>
<path d="M18.667 15.147l-5.333 5.653 5.653-5.333c5.12-4.907 6.080-5.867 5.227-5.867-0.107 0-2.667 2.56-5.547 5.547z"></path>
<path d="M14.827 12.48c-1.387 1.707-1.28 1.813 0.427 0.427 0.96-0.747 1.813-1.6 1.813-1.813 0-0.853-0.853-0.32-2.24 1.387z"></path>
<path d="M17.493 13.013l-2.027 2.453 2.453-2.027c2.24-1.92 2.88-2.773 2.027-2.773-0.213 0-1.28 1.067-2.453 2.347z"></path>
<path d="M17.6 19.2c-2.88 3.2-1.28 3.627 1.6 0.533 1.387-1.493 2.027-2.667 1.387-2.667-0.533 0-1.92 0.96-2.987 2.133z"></path>
<path d="M18.027 23.147l-2.56 2.987 2.987-2.56c1.6-1.493 2.88-2.773 2.88-2.987 0-0.853-0.853-0.107-3.307 2.56z"></path>
</symbol>
<symbol id="calendar" viewBox="0 0 32 32">
<title>calendar</title>
<path fill="none" stroke="#6cac3d" style="stroke: var(--color3, #6cac3d)" stroke-linejoin="round" stroke-linecap="round" stroke-miterlimit="4" stroke-width="3.7647" d="M25.333 5.333h-18.667c-1.473 0-2.667 1.194-2.667 2.667v18.667c0 1.473 1.194 2.667 2.667 2.667h18.667c1.473 0 2.667-1.194 2.667-2.667v-18.667c0-1.473-1.194-2.667-2.667-2.667z"></path>
<path fill="none" stroke="#6cac3d" style="stroke: var(--color3, #6cac3d)" stroke-linejoin="round" stroke-linecap="round" stroke-miterlimit="4" stroke-width="3.7647" d="M21.333 2.667v5.333"></path>
<path fill="none" stroke="#6cac3d" style="stroke: var(--color3, #6cac3d)" stroke-linejoin="round" stroke-linecap="round" stroke-miterlimit="4" stroke-width="3.7647" d="M10.667 2.667v5.333"></path>
<path fill="none" stroke="#6cac3d" style="stroke: var(--color3, #6cac3d)" stroke-linejoin="round" stroke-linecap="round" stroke-miterlimit="4" stroke-width="3.7647" d="M4 13.333h24"></path>
</symbol>
<symbol id="closed-m-menu" viewBox="0 0 32 32">
<title>closed-m-menu</title>
<path fill="none" stroke="#fff" style="stroke: var(--color1, #fff)" stroke-linejoin="round" stroke-linecap="round" stroke-miterlimit="4" stroke-width="1.7297" d="M24 8l-16 16"></path>
<path fill="none" stroke="#fff" style="stroke: var(--color1, #fff)" stroke-linejoin="round" stroke-linecap="round" stroke-miterlimit="4" stroke-width="1.7297" d="M8 8l16 16"></path>
</symbol>
<symbol id="dollar-sign" viewBox="0 0 32 32">
<title>dollar-sign</title>
<path fill="none" stroke="#6cac3d" style="stroke: var(--color3, #6cac3d)" stroke-linejoin="round" stroke-linecap="round" stroke-miterlimit="4" stroke-width="3.7647" d="M16 1.333v29.333"></path>
<path fill="none" stroke="#6cac3d" style="stroke: var(--color3, #6cac3d)" stroke-linejoin="round" stroke-linecap="round" stroke-miterlimit="4" stroke-width="3.7647" d="M22.667 6.667h-10c-1.238 0-2.425 0.492-3.3 1.367s-1.367 2.062-1.367 3.3c0 1.238 0.492 2.425 1.367 3.3s2.062 1.367 3.3 1.367h6.667c1.238 0 2.425 0.492 3.3 1.367s1.367 2.062 1.367 3.3c0 1.238-0.492 2.425-1.367 3.3s-2.062 1.367-3.3 1.367h-11.333"></path>
</symbol>
<symbol id="home" viewBox="0 0 32 32">
<title>home</title>
<path fill="none" stroke="#6cac3d" style="stroke: var(--color3, #6cac3d)" stroke-linejoin="round" stroke-linecap="round" stroke-miterlimit="4" stroke-width="3.7647" d="M4 12l12-9.333 12 9.333v14.667c0 0.707-0.281 1.386-0.781 1.886s-1.178 0.781-1.886 0.781h-18.667c-0.707 0-1.386-0.281-1.886-0.781s-0.781-1.178-0.781-1.886v-14.667z"></path>
<path fill="none" stroke="#6cac3d" style="stroke: var(--color3, #6cac3d)" stroke-linejoin="round" stroke-linecap="round" stroke-miterlimit="4" stroke-width="3.7647" d="M12 29.333v-13.333h8v13.333"></path>
</symbol>
<symbol id="map-pin" viewBox="0 0 32 32">
<title>map-pin</title>
<path fill="none" stroke="#6cac3d" style="stroke: var(--color3, #6cac3d)" stroke-linejoin="round" stroke-linecap="round" stroke-miterlimit="4" stroke-width="3.7647" d="M28 13.333c0 9.333-12 17.333-12 17.333s-12-8-12-17.333c0-3.183 1.264-6.235 3.515-8.485s5.303-3.515 8.485-3.515c3.183 0 6.235 1.264 8.485 3.515s3.515 5.303 3.515 8.485z"></path>
<path fill="none" stroke="#6cac3d" style="stroke: var(--color3, #6cac3d)" stroke-linejoin="round" stroke-linecap="round" stroke-miterlimit="4" stroke-width="3.7647" d="M16 17.333c2.209 0 4-1.791 4-4s-1.791-4-4-4c-2.209 0-4 1.791-4 4s1.791 4 4 4z"></path>
</symbol>
<symbol id="arrow-down" viewBox="0 0 32 32">
<title>arrow-down</title>
<path d="M24.391 15.057l-7.057 7.057v-15.448c0-0.736-0.597-1.333-1.333-1.333s-1.333 0.597-1.333 1.333v15.448l-7.057-7.057c-0.521-0.521-1.365-0.521-1.885 0s-0.521 1.365 0 1.885l9.333 9.333c0.123 0.123 0.269 0.221 0.432 0.289 0.327 0.135 0.695 0.135 1.021 0 0.157-0.065 0.304-0.161 0.432-0.289l9.333-9.333c0.521-0.521 0.521-1.365 0-1.885s-1.365-0.521-1.885 0z"></path>
</symbol>
<symbol id="check" viewBox="0 0 32 32">
<title>check</title>
<path d="M18.769 12.308l-6.831 6.769-2.4-2.462c-1.292-1.354-2.892-2.646-3.508-2.831-1.415-0.431-2.954 0.738-2.954 2.154 0 1.046 7.877 9.292 8.862 9.292 1.046 0 16.985-16.246 16.985-17.231 0-1.231-1.169-2.462-2.4-2.462-0.492 0-3.938 3.015-7.754 6.769z"></path>
</symbol>
<symbol id="radio-click" viewBox="0 0 32 32">
<title>radio-click</title>
<path fill="#f2f2f2" style="fill: var(--color1, #f2f2f2); stroke: var(--color2, #2d4872)" stroke="#2d4872" stroke-linejoin="miter" stroke-linecap="butt" stroke-miterlimit="4" stroke-width="3.5556" d="M30.222 16c0 7.855-6.367 14.222-14.222 14.222s-14.222-6.367-14.222-14.222c0-7.855 6.367-14.222 14.222-14.222s14.222 6.367 14.222 14.222z"></path>
<path fill="#2d4872" style="fill: var(--color2, #2d4872); stroke: var(--color2, #2d4872)" stroke="#2d4872" stroke-linejoin="miter" stroke-linecap="butt" stroke-miterlimit="4" stroke-width="3.5556" d="M23.111 16c0 3.927-3.184 7.111-7.111 7.111s-7.111-3.184-7.111-7.111c0-3.927 3.184-7.111 7.111-7.111s7.111 3.184 7.111 7.111z"></path>
</symbol>
<symbol id="radio" viewBox="0 0 32 32">
<title>radio</title>
<path fill="#f2f2f2" style="fill: var(--color1, #f2f2f2); stroke: var(--color2, #2d4872)" stroke="#2d4872" stroke-linejoin="miter" stroke-linecap="butt" stroke-miterlimit="4" stroke-width="3.5556" d="M30.222 16c0 7.855-6.367 14.222-14.222 14.222s-14.222-6.367-14.222-14.222c0-7.855 6.367-14.222 14.222-14.222s14.222 6.367 14.222 14.222z"></path>
</symbol>
<symbol id="left" viewBox="0 0 32 32">
<title>left</title>
<path stroke-linejoin="round" stroke-linecap="round" stroke-miterlimit="4" stroke-width="2.6667" d="M20 8l-8 8 8 8"></path>
</symbol>
<symbol id="closed" viewBox="0 0 32 32">
<title>closed</title>
<path fill="none" stroke="#fff" style="stroke: var(--color1, #fff)" stroke-linejoin="round" stroke-linecap="round" stroke-miterlimit="4" stroke-width="1.7297" d="M24 8l-16 16"></path>
<path fill="none" stroke="#fff" style="stroke: var(--color1, #fff)" stroke-linejoin="round" stroke-linecap="round" stroke-miterlimit="4" stroke-width="1.7297" d="M8 8l16 16"></path>
</symbol>
<symbol id="mobile-phone-black" viewBox="0 0 32 32">
<title>mobile-phone-black</title>
<path stroke-linejoin="round" stroke-linecap="round" stroke-miterlimit="4" stroke-width="1.7778" d="M19.396 7.214c1.33 0.259 2.553 0.908 3.511 1.865s1.609 2.176 1.868 3.504l-5.379-5.369zM19.396 1.778c2.763 0.306 5.34 1.542 7.308 3.503s3.208 4.531 3.518 7.289l-10.826-10.792zM28.86 23.415v4.078c0.002 0.378-0.076 0.753-0.228 1.1s-0.375 0.658-0.654 0.914c-0.279 0.256-0.609 0.451-0.969 0.572s-0.74 0.166-1.117 0.132c-4.19-0.454-8.216-1.884-11.752-4.173-3.29-2.087-6.080-4.871-8.171-8.155-2.301-3.546-3.734-7.583-4.181-11.784-0.034-0.376 0.011-0.755 0.131-1.112s0.315-0.686 0.57-0.965c0.255-0.279 0.565-0.501 0.911-0.654s0.72-0.231 1.098-0.232h4.085c0.661-0.006 1.302 0.227 1.803 0.657s0.828 1.027 0.921 1.681c0.172 1.305 0.492 2.586 0.953 3.819 0.183 0.486 0.223 1.015 0.114 1.523s-0.361 0.975-0.727 1.344l-1.729 1.726c1.939 3.403 4.761 6.22 8.171 8.155l1.729-1.726c0.37-0.366 0.838-0.617 1.347-0.726s1.039-0.069 1.526 0.114c1.236 0.46 2.519 0.779 3.826 0.951 0.662 0.093 1.266 0.426 1.697 0.934s0.661 1.158 0.645 1.825z"></path>
</symbol>
<symbol id="x" viewBox="0 0 32 32">
<title>x</title>
<path d="M7.057 8.943l7.057 7.057-7.057 7.057c-0.521 0.521-0.521 1.365 0 1.885s1.365 0.521 1.885 0l7.057-7.057 7.057 7.057c0.521 0.521 1.365 0.521 1.885 0s0.521-1.365 0-1.885l-7.057-7.057 7.057-7.057c0.521-0.521 0.521-1.365 0-1.885s-1.365-0.521-1.885 0l-7.057 7.057-7.057-7.057c-0.521-0.521-1.365-0.521-1.885 0s-0.521 1.365 0 1.885z"></path>
</symbol>
<symbol id="corner-right-down" viewBox="0 0 32 32">
<title>corner-right-down</title>
<path d="M5.333 6.667h9.333c1.105 0 2.103 0.447 2.828 1.172s1.172 1.723 1.172 2.828v12.781l-4.391-4.391c-0.521-0.521-1.365-0.521-1.885 0s-0.521 1.365 0 1.885l6.667 6.667c0.123 0.123 0.269 0.221 0.432 0.289 0.327 0.135 0.695 0.135 1.021 0 0.157-0.065 0.304-0.161 0.432-0.289l6.667-6.667c0.521-0.521 0.521-1.365 0-1.885s-1.365-0.521-1.885 0l-4.391 4.391v-12.781c0-1.84-0.748-3.509-1.952-4.715s-2.875-1.952-4.715-1.952h-9.333c-0.736 0-1.333 0.597-1.333 1.333s0.597 1.333 1.333 1.333z"></path>
</symbol>
<symbol id="facebook" viewBox="0 0 32 32">
<title>facebook</title>
<path d="M22.667 4v2.667h-2.667c-0.736 0-1.404 0.3-1.885 0.781s-0.781 1.149-0.781 1.885v4c0 0.736 0.597 1.333 1.333 1.333h3.625l-0.667 2.667h-2.959c-0.736 0-1.333 0.597-1.333 1.333v9.333h-2.667v-9.333c0-0.736-0.597-1.333-1.333-1.333h-2.667v-2.667h2.667c0.736 0 1.333-0.597 1.333-1.333v-4c0-1.473 0.596-2.804 1.563-3.771s2.297-1.563 3.771-1.563zM24 1.333h-4c-2.209 0-4.211 0.897-5.657 2.343s-2.343 3.448-2.343 5.657v2.667h-2.667c-0.736 0-1.333 0.597-1.333 1.333v5.333c0 0.736 0.597 1.333 1.333 1.333h2.667v9.333c0 0.736 0.597 1.333 1.333 1.333h5.333c0.736 0 1.333-0.597 1.333-1.333v-9.333h2.667c0.621 0 1.144-0.425 1.293-1.009l1.333-5.333c0.179-0.715-0.256-1.439-0.971-1.617-0.111-0.028-0.223-0.041-0.323-0.040h-4v-2.667h4c0.736 0 1.333-0.597 1.333-1.333v-5.333c0-0.736-0.597-1.333-1.333-1.333z"></path>
</symbol>
<symbol id="instagram" viewBox="0 0 32 32">
<title>instagram</title>
<path d="M9.333 1.333c-2.209 0-4.211 0.897-5.657 2.343s-2.343 3.448-2.343 5.657v13.333c0 2.209 0.897 4.211 2.343 5.657s3.448 2.343 5.657 2.343h13.333c2.209 0 4.211-0.897 5.657-2.343s2.343-3.448 2.343-5.657v-13.333c0-2.209-0.897-4.211-2.343-5.657s-3.448-2.343-5.657-2.343zM9.333 4h13.333c1.473 0 2.804 0.596 3.771 1.563s1.563 2.297 1.563 3.771v13.333c0 1.473-0.596 2.804-1.563 3.771s-2.297 1.563-3.771 1.563h-13.333c-1.473 0-2.804-0.596-3.771-1.563s-1.563-2.297-1.563-3.771v-13.333c0-1.473 0.596-2.804 1.563-3.771s2.297-1.563 3.771-1.563zM22.652 14.964c-0.2-1.296-0.761-2.476-1.592-3.423-1.005-1.148-2.405-1.953-4.012-2.192-0.619-0.099-1.293-0.103-1.969-0.003-1.821 0.269-3.361 1.255-4.376 2.623s-1.511 3.129-1.24 4.949 1.255 3.361 2.623 4.376 3.129 1.511 4.949 1.24 3.361-1.255 4.376-2.623 1.511-3.129 1.24-4.949zM20.015 15.356c0.163 1.093-0.133 2.145-0.744 2.969s-1.533 1.412-2.625 1.573-2.145-0.133-2.969-0.744-1.412-1.533-1.573-2.625 0.133-2.145 0.744-2.969 1.533-1.412 2.625-1.573c0.417-0.061 0.82-0.056 1.16-0.003 0.987 0.147 1.821 0.627 2.424 1.315 0.5 0.571 0.84 1.284 0.96 2.057zM23.333 10c0.736 0 1.333-0.597 1.333-1.333s-0.597-1.333-1.333-1.333-1.333 0.597-1.333 1.333 0.597 1.333 1.333 1.333z"></path>
</symbol>
<symbol id="linkedin" viewBox="0 0 32 32">
<title>linkedin</title>
<path d="M21.333 9.333c-2.577 0-4.912 1.047-6.6 2.733s-2.733 4.023-2.733 6.6v9.333c0 0.736 0.597 1.333 1.333 1.333h5.333c0.736 0 1.333-0.597 1.333-1.333v-9.333c0-0.368 0.148-0.7 0.391-0.943s0.575-0.391 0.943-0.391 0.7 0.148 0.943 0.391 0.391 0.575 0.391 0.943v9.333c0 0.736 0.597 1.333 1.333 1.333h5.333c0.736 0 1.333-0.597 1.333-1.333v-9.333c0-2.577-1.047-4.912-2.733-6.6s-4.023-2.733-6.6-2.733zM21.333 12c1.841 0 3.507 0.745 4.715 1.952s1.952 2.873 1.952 4.715v8h-2.667v-8c0-1.104-0.449-2.107-1.172-2.828s-1.724-1.172-2.828-1.172-2.107 0.449-2.828 1.172-1.172 1.724-1.172 2.828v8h-2.667v-8c0-1.841 0.745-3.507 1.952-4.715s2.873-1.952 4.715-1.952zM2.667 10.667c-0.736 0-1.333 0.597-1.333 1.333v16c0 0.736 0.597 1.333 1.333 1.333h5.333c0.736 0 1.333-0.597 1.333-1.333v-16c0-0.736-0.597-1.333-1.333-1.333zM4 13.333h2.667v13.333h-2.667zM9.333 5.333c0-1.104-0.449-2.107-1.172-2.828s-1.724-1.172-2.828-1.172-2.107 0.449-2.828 1.172-1.172 1.724-1.172 2.828 0.449 2.107 1.172 2.828 1.724 1.172 2.828 1.172 2.107-0.449 2.828-1.172 1.172-1.724 1.172-2.828zM6.667 5.333c0 0.368-0.148 0.7-0.391 0.943s-0.575 0.391-0.943 0.391-0.7-0.148-0.943-0.391-0.391-0.575-0.391-0.943 0.148-0.7 0.391-0.943 0.575-0.391 0.943-0.391 0.7 0.148 0.943 0.391 0.391 0.575 0.391 0.943z"></path>
</symbol>
<symbol id="twitter" viewBox="0 0 32 32">
<title>twitter</title>
<path d="M27.777 7.016c-0.248 0.323-0.521 0.633-0.821 0.928-0.311 0.309-0.463 0.756-0.371 1.211 0.049 0.243 0.080 0.539 0.081 0.845 0 7.008-3.239 11.961-7.747 14.531-3.529 2.012-7.917 2.607-12.296 1.493 1.66-0.481 3.28-1.228 4.791-2.253 0.196-0.132 0.364-0.324 0.469-0.561 0.299-0.673-0.004-1.461-0.677-1.76-3.699-1.644-5.507-3.908-6.359-6.124-0.556-1.445-0.728-2.931-0.693-4.303 0.028-1.081 0.184-2.080 0.371-2.909 0.525 0.457 1.071 0.941 1.647 1.384 2.735 2.103 6.165 3.305 9.86 3.209 0.724-0.020 1.301-0.609 1.301-1.333v-1.348c-0.003-0.239 0.012-0.476 0.045-0.711 0.151-1.075 0.672-2.092 1.549-2.855 0.967-0.841 2.181-1.211 3.368-1.128s2.337 0.617 3.179 1.584c0.336 0.381 0.865 0.555 1.377 0.405 0.308-0.089 0.617-0.191 0.927-0.304zM29.899 2.911c-0.987 0.696-2.031 1.235-3.049 1.607-1.241-1.115-2.788-1.736-4.368-1.847-1.864-0.129-3.781 0.452-5.303 1.776-1.381 1.201-2.203 2.811-2.44 4.496-0.049 0.353-0.073 0.709-0.072 1.067-2.563-0.189-4.924-1.133-6.867-2.627-1.033-0.795-1.949-1.745-2.712-2.821-0.427-0.6-1.259-0.743-1.859-0.316-0.205 0.145-0.356 0.337-0.447 0.545 0 0-0.176 0.399-0.38 1.013-0.149 0.449-0.321 1.033-0.476 1.72-0.217 0.963-0.403 2.136-0.435 3.428-0.041 1.636 0.16 3.483 0.869 5.328 0.911 2.367 2.621 4.637 5.529 6.431-2.092 0.968-4.327 1.385-6.497 1.289-0.736-0.032-1.359 0.537-1.391 1.273-0.023 0.519 0.253 0.981 0.684 1.224 6.54 3.633 13.901 3.571 19.555 0.348 5.387-3.068 9.092-8.933 9.092-16.845-0.001-0.223-0.011-0.44-0.031-0.652 1.341-1.487 2.235-3.239 2.661-5.041 0.169-0.716-0.275-1.435-0.991-1.604-0.387-0.092-0.773-0.004-1.076 0.208z"></path>
</symbol>
</defs>
</svg>
