<svg xmlns="http://www.w3.org/2000/svg" aria-hidden="true" style="position:absolute;width:0;height:0;overflow:hidden"><defs>
<symbol id="GroupA" viewBox="0 0 32 32"><path d="M25.12 3.333c-.453.373-.88 1.04-.987 1.467-.16.72-.267.773-1.547.853-1.227.08-1.387.16-1.467.693-.133.933.667 1.653 1.813 1.653h.987l.187 1.573c.133 1.253.347 1.787.96 2.427.8.853 1.04 1.6.533 1.6-.133 0-.267.293-.267.64 0 .427-.187.72-.533.827-.293.08-.773.48-1.067.853-.48.613-.533 1.067-.533 3.973v3.307h-1.013c-.56 0-1.253.187-1.547.4-.267.213-.88.4-1.333.4-1.04 0-1.547.56-1.28 1.387.267.907.56 1.013 2.987 1.013H23.2v2.933H32v-3.227c0-2.907-.053-3.2-.453-3.12-.427.08-.48.453-.56 2.827l-.08 2.72H24v-2.133h1.84c2.347 0 3.173-.587 3.413-2.4.107-.667.347-1.333.56-1.493.293-.213.373-.907.293-3.387-.053-1.707-.027-3.12.08-3.12.4 0 .613.747.747 2.533.107 1.413.24 1.867.533 1.867s.427-.4.48-1.627c.107-2-.24-2.933-1.28-3.52-.427-.24-.8-.667-.8-.907s-.107-.533-.267-.613c-.48-.293-.293-.987.533-1.92.667-.747.8-1.12.8-2.32 0-1.04.107-1.467.4-1.6.88-.32.187-3.573-.987-4.56-.667-.56-1.067-.667-2.613-.667-1.573 0-1.947.107-2.613.667zm4.587.694c.373.293.693.773.693 1.067 0 .453-.213.507-2.667.507-2.96 0-3.253-.213-2-1.467.853-.88 2.933-.933 3.973-.107zm-1.094 2.826a60.9 60.9 0 0 1-4.4 0c-1.227-.027-.24-.08 2.187-.08s3.413.053 2.213.08zm1.44 1.574c.08.213.053.907-.08 1.493-.693 3.227-4.907 2.613-4.907-.72V8h2.4c1.947 0 2.453.08 2.587.427zm-1.786 4.906c0 .133-.293.267-.667.267s-.667-.133-.667-.267c0-.16.293-.267.667-.267s.667.107.667.267zm.533 1.6c0 .133-.587.267-1.333.267-.72 0-1.333-.133-1.333-.267 0-.16.613-.267 1.333-.267.747 0 1.333.107 1.333.267zm-3.467 4.4c0 2.773.053 3.333.4 3.333.213 0 .4.107.4.267 0 .133-.48.267-1.067.267h-1.067v-3.013c0-2.293.107-3.147.427-3.6.213-.32.507-.587.667-.587.133 0 .24 1.413.24 3.333zm3.414-2.746c.213.213.32 1.2.32 2.667v2.347h-2.933v-2.347c0-2.613.187-2.987 1.467-2.987.453 0 .96.133 1.147.32zm-.48 7.093c0 .56-.133 1.147-.32 1.333-.24.24-1.6.32-4.72.267-2.453 0-4-.08-3.493-.133.507-.08 1.12-.293 1.333-.48.293-.267 1.307-.4 3.2-.453l2.8-.08.08-.747c.053-.507.24-.72.613-.72.4 0 .507.187.507 1.013zM1.44 4.64c-.827.827-.907 1.067-.907 2.4 0 .827.107 1.707.24 1.973.16.24.32.88.427 1.413.08.533.427 1.227.8 1.573.693.64.88 1.44.4 1.733-.16.08-.267.373-.267.613s-.373.667-.8.907c-.453.24-.933.773-1.067 1.147-.16.4-.267 3.413-.267 6.827v6.107h8.8V26.4h2.213c2.4 0 2.693-.107 2.96-1.013.267-.827-.24-1.387-1.28-1.387-.453 0-1.067-.187-1.333-.4-.293-.213-.987-.4-1.52-.4H8.826l-.08-1.333c-.107-1.733-.587-1.733-.693 0l-.08 1.333H6.906c-.56 0-1.04-.133-1.04-.267 0-.16.187-.267.4-.267.347 0 .4-.56.4-3.36 0-3.627.213-4.053 1.147-2.16.533 1.067.987 1.093.987.08 0-.747-.88-1.92-1.6-2.16-.347-.107-.533-.4-.533-.827 0-.347-.107-.64-.267-.64-.507 0-.267-.747.507-1.573.587-.64.827-1.227.96-2.293.107-.8.133-1.653.027-1.893-.08-.213.027-.667.24-.987.56-.8.507-1.6-.16-2.427-.533-.667-.667-.693-3.093-.693-2.533 0-2.533 0-3.44.907zm5.6.24c.267.187.453.587.373.88-.08.4-.347.533-1.547.587-1.573.08-2.32.533-2.453 1.493-.053.453-.267.56-1.013.56-.88 0-.933-.053-1.013-.933-.08-1.147.427-2.16 1.28-2.587.88-.453 3.76-.453 4.373 0zm-.16 3.947c.053 1.28-.027 1.627-.587 2.293-.373.453-.987.88-1.333.933-1.04.213-2.267-.453-2.667-1.44-.48-1.093-.347-1.28.8-1.28.933 0 1.067-.16 1.547-1.68.133-.373.373-.48 1.147-.4l1.013.08.08 1.493zm-1.813 4.506c0 .133-.293.267-.667.267s-.667-.133-.667-.267c0-.16.293-.267.667-.267s.667.107.667.267zm.8 1.6c0 .133-.587.267-1.333.267-.72 0-1.333-.133-1.333-.267 0-.16.613-.267 1.333-.267.747 0 1.333.107 1.333.267zm-3.734 1.574c-.427.8-.347 5.813.107 6.08.187.107.427.747.507 1.413.24 1.813 1.067 2.4 3.413 2.4H8v2.133H1.067v-5.76c0-5.76.133-6.773.96-6.773.293 0 .32.107.107.507zm3.414.08c.213.213.32 1.2.32 2.667v2.347H2.934v-2.347c0-2.613.187-2.987 1.467-2.987.453 0 .96.133 1.147.32zm-.694 6.8.08.747 2.8.08c1.893.053 2.907.187 3.2.453.213.187.827.4 1.333.48.507.053-1.04.133-3.467.133-3.147.053-4.507-.027-4.747-.267-.187-.187-.32-.773-.32-1.333 0-.827.107-1.013.507-1.013.373 0 .56.213.613.72z"/><path d="M9.867 15.707c0 1.013.133 1.947.267 2.027.16.08.267 1.227.267 2.507v2.373l.827.16c1.12.213 8.987.16 9.84-.08.64-.16.667-.32.853-2.693.107-1.387.267-3.04.347-3.68.107-.613.107-1.44.027-1.813-.16-.64-.24-.667-1.973-.587-1.387.053-1.787.16-1.787.48 0 .293.373.427 1.413.48 1.333.08 1.387.107 1.387.88v.773H10.668v-1.573l2.88-.08c2.32-.053 2.853-.16 2.853-.48s-.587-.4-3.253-.48l-3.28-.08v1.867zM20.8 19.6v2h-9.253l-.187-1.413c-.08-.747-.16-1.653-.16-2V17.6h9.6v2z"/><path d="M12.453 18.32c-.107.08-.187.693-.187 1.333V20.8h1.2c1.067 0 1.2-.08 1.36-.693.293-1.12-.267-1.973-1.307-1.973-.507 0-.987.08-1.067.187zM15.387 19.093c-.107.107-.187.347-.187.56 0 .267.56.347 2.293.347 2.027 0 2.267-.053 2.187-.48-.08-.373-.427-.453-2.107-.533-1.093-.027-2.08 0-2.187.107z"/></symbol>

<symbol id="listOfWorks" viewBox="0 0 32 32"><path d="M3.739.243A2.777 2.777 0 0 0 2.261 1.93c-.104.33-.174 1.583-.174 2.8v2.226h4.348v11.496c0 12.713-.035 12.261 1.113 13.078l.539.383h10.035c9.861 0 10.035 0 10.504-.365 1.043-.783 1.2-1.165 1.2-3.078v-1.774l-2.696-.104v-24.8l-.4-.591c-.817-1.235-.4-1.2-12.035-1.2C6.382.018 4.156.071 3.738.244zm1.809 1.044c.696.365.887.974.887 2.904V5.93l-3.217-.104-.052-1.478c-.07-1.809.157-2.696.8-3.026.591-.33.974-.348 1.583-.035zm20.122.33.417.487v24.504l-7.687.035-7.704.052-.052 1.687c-.052 1.652-.052 1.687-.591 2.139-.696.591-1.583.504-2.174-.174l-.4-.452V16.069c0-11.722-.035-13.913-.261-14.435l-.243-.609 18.278.104.417.487zm3.2 26.853c0 .365-.087.957-.191 1.304-.33 1.2-.191 1.183-9.304 1.183-7.652 0-8.104-.017-7.965-.313.07-.157.174-.87.209-1.565l.07-1.252h17.183v.643z"/><path d="m14.487 2.73-1.791.609v1.165c0 2.713 1.27 5.252 3.235 6.47l.591.365.574-.365c.87-.539 1.965-1.757 2.452-2.713.574-1.165.783-2.157.8-3.687V3.339l-1.878-.626c-1.026-.348-1.948-.626-2.035-.609-.104 0-.974.278-1.948.626zm3.356.992 1.2.4-.017 1.217c0 1.026-.104 1.426-.557 2.365-.504 1.026-1.548 2.209-1.948 2.209-.348 0-1.635-1.513-2.052-2.4-.313-.696-.435-1.27-.452-2.157L14 4.121l1.13-.4c1.426-.487 1.27-.487 2.713 0z"/><path d="M16.8 5.965c-.157.417-.487.939-.713 1.165-.417.383-.417.417-.139.887.174.278.348.504.417.504.313 0 1.409-1.548 1.617-2.261.243-.852.157-1.043-.522-1.043-.278 0-.435.191-.661.748zM14.139 12.296l-1.27.07v1.026h7.304v-.522c0-.504-.035-.522-.73-.522-.417 0-1.496-.035-2.4-.07s-2.226-.035-2.904.017zM8.522 15.478V16h4.87v-1.043h-4.87v.522zM14.435 15.478V16h10.609v-1.043H14.435v.522zM8.522 17.565v.522h11.13v-1.043H8.522v.522zM20.87 17.565v.522h4.174v-1.043H20.87v.522zM8.643 19.235c-.07.07-.122.348-.122.626v.504l4.783-.104v-1.043l-2.278-.052c-1.235-.017-2.313.017-2.383.07zM14.435 19.739v.609h10.609v-1.217H14.435v.609zM8.522 21.913v.522h2.087v-1.043H8.522v.522zM11.687 21.861l.052.487 6.661.052 6.643.035v-1.043H11.634l.052.47zM8.522 24v.522h8.522v-1.043H8.522v.522zM18.087 24v.522h6.957v-1.043h-6.957v.522z"/></symbol>

<symbol id="mobile-phone" viewBox="0 0 32 32"><path fill="none" stroke="#fff" stroke-linecap="round" stroke-linejoin="round" stroke-width="1.454" d="M19.473 7.015c1.36.265 2.61.929 3.591 1.907s1.645 2.226 1.911 3.584l-5.501-5.491zm0-5.56c2.826.313 5.462 1.577 7.474 3.582s3.281 4.634 3.598 7.455L19.473 1.455zm9.68 22.129v4.17a2.776 2.776 0 0 1-1.893 2.645c-.367.124-.757.17-1.143.135a27.597 27.597 0 0 1-12.019-4.267 27.132 27.132 0 0 1-8.356-8.34A27.48 27.48 0 0 1 1.466 5.875a2.782 2.782 0 0 1 2.772-3.031h4.178a2.788 2.788 0 0 1 2.786 2.391c.176 1.335.503 2.645.975 3.906a2.78 2.78 0 0 1-.627 2.933l-1.769 1.765a22.263 22.263 0 0 0 8.356 8.34l1.769-1.765a2.788 2.788 0 0 1 2.939-.625 17.89 17.89 0 0 0 3.913.973 2.782 2.782 0 0 1 2.395 2.822z" style="stroke:var(--color1, #fff)"/></symbol>

<symbol id="mobile-menu" viewBox="0 0 56 32"><path fill="#2d4872" d="M1.6 0h52.8A1.6 1.6 0 0 1 56 1.6v3.2a1.6 1.6 0 0 1-1.6 1.6H1.6A1.6 1.6 0 0 1 0 4.8V1.6A1.6 1.6 0 0 1 1.6 0zM1.6 12.8h52.8a1.6 1.6 0 0 1 1.6 1.6v3.2a1.6 1.6 0 0 1-1.6 1.6H1.6A1.6 1.6 0 0 1 0 17.6v-3.2a1.6 1.6 0 0 1 1.6-1.6zM1.6 25.6h52.8a1.6 1.6 0 0 1 1.6 1.6v3.2a1.6 1.6 0 0 1-1.6 1.6H1.6A1.6 1.6 0 0 1 0 30.4v-3.2a1.6 1.6 0 0 1 1.6-1.6z" style="fill:var(--color2, #2d4872)"/></symbol>

<symbol id="grid" viewBox="0 0 32 32"><path fill="none" stroke="#6cac3d" stroke-linecap="round" stroke-linejoin="round" stroke-width="3.765" d="M13.333 4H4v9.333h9.333V4zM28 4h-9.333v9.333H28V4zM28 18.667h-9.333V28H28v-9.333zM13.333 18.667H4V28h9.333v-9.333z" style="stroke:var(--color3, #6cac3d)"/></symbol>

<symbol id="file-text" viewBox="0 0 32 32"><path fill="none" stroke="#6cac3d" stroke-linecap="round" stroke-linejoin="round" stroke-width="3.765" d="M18.667 2.667H8a2.668 2.668 0 0 0-2.667 2.667v21.333A2.668 2.668 0 0 0 8 29.334h16a2.668 2.668 0 0 0 2.667-2.667v-16l-8-8z" style="stroke:var(--color3, #6cac3d)"/><path fill="none" stroke="#6cac3d" stroke-linecap="round" stroke-linejoin="round" stroke-width="3.765" d="M18.667 2.667v8h8M21.333 17.333H10.666M21.333 22.667H10.666M13.333 12h-2.667" style="stroke:var(--color3, #6cac3d)"/></symbol>

<symbol id="handshake" viewBox="0 0 32 32"><path d="M22.209 3.617C20.47 5.304 20.418 5.321 19.826 5.2c-.748-.174-2.104.07-2.957.557-.574.33-.73.348-1.304.157-.852-.278-2.47-.278-3.461 0l-.817.226-1.704-1.687C7.74 2.662 7.34 2.488 6.296 3.027 5.513 3.444.209 8.905.087 9.444c-.226.852.087 1.391 1.826 3.165C3.496 14.244 3.617 14.4 3.704 15.2c.035.452.243 1.061.435 1.322l.365.47-.539.504c-.713.696-1.009 1.322-1.009 2.191 0 1.217 1.043 2.4 2.139 2.4.365 0 .47.087.47.365 0 1.026 1.148 2.243 2.122 2.243.348 0 .452.122.626.8.278.991.852 1.565 1.843 1.843.678.174.8.278.8.661 0 .643.574 1.461 1.27 1.791 1.113.539 2.07.313 3.13-.713l.643-.626.661.626c1.043 1.026 2 1.252 3.096.73.661-.313 1.287-1.2 1.287-1.843 0-.348.122-.452.8-.626.991-.278 1.565-.852 1.843-1.843.174-.678.278-.8.626-.8.974 0 2.122-1.217 2.122-2.243 0-.278.104-.365.487-.365 1.078 0 2.122-1.183 2.122-2.4 0-.817-.191-1.287-.748-1.913-.365-.383-.365-.4-.017-.957.261-.435.33-.904.348-2.087l.017-1.513 1.583-1.617c1.6-1.635 1.896-2.174 1.687-3.043-.07-.296-1.252-1.617-3.183-3.565l-3.096-3.078h-.817c-.817 0-.87.035-2.609 1.704zm5.513 2.244c1.548 1.513 2.87 2.887 2.957 3.061.139.243 0 .47-.591 1.078l-.765.783-1.687-1.652c-.922-.904-1.791-1.652-1.93-1.652-.383 0-.713.452-.591.817.052.174.8 1.026 1.67 1.878l1.565 1.548-.626.643c-.591.609-.626.678-.435 1.217.243.713.243 1.687 0 2.417l-.209.557-2.713-2.696c-1.496-1.478-2.974-2.835-3.304-2.991-.33-.174-1.043-.348-1.617-.383-1.461-.139-2.383.261-3.913 1.722-1.391 1.322-1.878 1.461-2.574.748-.8-.783-.626-1.13 1.704-3.513 1.165-1.2 2.452-2.365 2.852-2.609.8-.47 1.878-.557 2.713-.243.661.261.783.174 2.73-1.791.904-.922 1.722-1.67 1.809-1.67s1.426 1.235 2.957 2.73zM9.13 5.739c.957.957 1.861 1.739 2.017 1.739s.574-.122.939-.278c.643-.261 2.522-.365 2.87-.157.122.07-.539.87-1.617 1.983-1.27 1.304-1.861 2.035-1.948 2.435-.452 2.035 1.409 3.687 3.339 2.957.261-.087.957-.643 1.53-1.2 1.583-1.565 2.748-1.913 4.157-1.217.435.209 2.035 1.67 4.07 3.704 2.939 2.957 3.339 3.426 3.339 3.913 0 .713-.539 1.252-1.235 1.252-.452 0-.817-.261-2.157-1.583-1.67-1.635-2.209-1.878-2.313-1.043-.052.313.296.765 1.513 2.017 1.704 1.722 1.878 2.139 1.235 2.835a1.276 1.276 0 0 1-.922.383c-.47 0-.8-.243-2.122-1.565-.852-.87-1.687-1.565-1.861-1.565-.157 0-.383.174-.504.365-.174.33-.052.522 1.287 1.878.817.817 1.583 1.704 1.67 1.983.243.626-.052 1.252-.678 1.513-.678.278-.991.087-2.957-1.826-1.287-1.27-1.809-1.652-2.313-1.739-.504-.104-.643-.209-.643-.504 0-.887-1.304-2.191-2.191-2.191-.296 0-.4-.139-.504-.643-.139-.765-1.043-1.722-1.757-1.878-.887-.209-.939-.243-.939-.783 0-.73-.922-1.704-1.791-1.913-.904-.191-1.739.07-2.591.835-.661.609-.713.609-.939.296-.139-.174-.243-.696-.243-1.13 0-.713-.07-.87-.835-1.617l-.852-.835 1.548-1.496c.835-.835 1.565-1.652 1.635-1.826.122-.383-.209-.835-.591-.835-.139 0-.991.713-1.896 1.6l-1.617 1.6-.539-.539c-.383-.365-.504-.626-.435-.87.139-.452 5.548-5.791 5.861-5.791.139 0 1.026.783 1.983 1.739zm-.208 10.4c.174.157.296.504.296.87 0 .557-.191.817-1.617 2.243-1.374 1.357-1.704 1.617-2.174 1.617-.713 0-1.252-.539-1.252-1.235 0-.452.261-.817 1.443-2.017 1.861-1.93 2.452-2.191 3.304-1.478zm2.713 2.748c.209.261.365.626.365.817 0 .209-.678 1.043-1.687 2.052-1.443 1.478-1.757 1.722-2.243 1.722-.365 0-.713-.139-.939-.383-.643-.713-.47-1.113 1.339-2.939 1.443-1.478 1.757-1.722 2.243-1.722.4 0 .678.139.922.452zm2.539 2.591c.748.73.591 1.183-.991 2.817-1.739 1.774-2.226 2.07-2.922 1.791-.278-.104-.591-.417-.696-.696-.278-.696.017-1.183 1.791-2.922 1.635-1.583 2.087-1.739 2.817-.991zm2.591 2.539c.313.243.452.522.452.922 0 .487-.243.8-1.722 2.243-1.757 1.739-2.174 1.948-2.835 1.443-.417-.296-.643-.991-.487-1.409.226-.574 3.391-3.565 3.774-3.565.191 0 .557.157.817.365zm2.4 2.366c.852.887.939 1.53.278 2.139-.557.504-1.096.435-1.878-.296l-.713-.626.713-.713c.383-.4.696-.817.696-.939 0-.365.261-.226.904.435z"/><path d="M23.478 6a.793.793 0 0 0-.139.557c.07.435.835.522 1.13.139.452-.643-.47-1.322-.991-.696zM7.148 6.504c-.452.539.243 1.235.783.783.365-.296.243-.922-.209-.991-.191-.035-.452.07-.574.209z"/></symbol>

<symbol id="note" viewBox="0 0 32 32"><path d="M9.96.187c-1.213.453-2.093 1.72-2.093 3.04v.507h-.6c-.853 0-1.613.347-1.947.88l-.28.453H3.16c-1.613 0-1.96.04-2.307.253C-.04 5.867 0 5.213 0 18.493c0 11.133.013 12 .24 12.427.12.253.4.587.6.733.373.28.48.28 10.16.28s9.787 0 10.16-.28c.2-.147.48-.48.6-.733.227-.427.24-1.293.24-12.427 0-13.293.053-12.6-.88-13.173-.4-.24-.64-.267-2.307-.267l-1.867.013-.2-.373c-.293-.573-.827-.853-1.773-.933l-.84-.067V3.2c0-1.133-.747-2.36-1.76-2.88-.587-.307-1.787-.373-2.413-.133zm1.6 1.146c.32 0 1.107.827 1.24 1.307.107.387.08.653-.08 1.187-.307.987-.2 1.067 1.333 1.133 1.613.053 1.68.107 1.68 1.453v1.053H6.266V6.413c0-1.347.067-1.4 1.68-1.453 1.453-.053 1.667-.187 1.413-.88-.093-.24-.16-.707-.16-1.053 0-.507.08-.707.413-1.093.427-.48 1.053-.76 1.52-.653.147.027.333.053.427.053zM5.067 6.867v.6H4.014c-.787 0-1.12.053-1.267.213-.187.187-.213 1.347-.213 10.84 0 8.36.04 10.68.173 10.787.187.147 15.693.373 16.267.227.227-.067.427-.227.493-.413.08-.187.093-4.653.04-10.8-.067-8.747-.12-10.507-.267-10.667-.133-.133-.52-.187-1.253-.187h-1.053v-1.2h1.733c1.693 0 1.733 0 1.947.333.2.307.213 1.347.16 12.093-.067 10.227-.093 11.773-.267 11.893-.32.227-18.84.2-19.067-.027-.133-.133-.187-2.48-.213-11.92C1.2 8.252 1.214 6.852 1.4 6.572c.2-.293.267-.307 1.933-.307h1.733v.6zM18.267 16v7.2h-2.293c-1.933 0-2.32.04-2.533.227s-.24.453-.24 2.533v2.307H3.734V8.8h14.533V16zM17.2 24.573c0 .013-.6.627-1.333 1.36l-1.333 1.333v-2.733h1.333c.733 0 1.333.013 1.333.04zm1.04 2.32L18.2 28.2l-1.293.04c-.72.013-1.307-.013-1.307-.067 0-.133 2.427-2.573 2.573-2.573.053 0 .08.587.067 1.293z"/><path d="M10.56 2.693c-.373.373-.093 1.04.44 1.04.16 0 .347-.067.44-.16s.16-.28.16-.44c0-.16-.067-.347-.16-.44s-.28-.16-.44-.16c-.16 0-.347.067-.44.16zM6.467 11.813c-.28.28-.213.707.133.933.24.16.32.147.573-.027.36-.253.387-.8.04-.987-.36-.187-.493-.173-.747.08zM9.04 11.747c-.267.147-.307.6-.107.92.187.307 6.013.373 6.48.067.373-.24.413-.627.107-.92-.173-.187-.653-.213-3.227-.213-1.813 0-3.12.067-3.253.147zM6.48 15.947c-.253.24-.28.6-.053.827s8.92.227 9.147 0c.227-.227.2-.587-.053-.827-.173-.187-.773-.213-4.52-.213s-4.347.027-4.52.213zM6.507 18.413c-.28.16-.32.653-.08.893.227.227 8.92.227 9.147 0 .2-.2.2-.68 0-.88-.213-.213-8.72-.227-9.067-.013zM6.427 20.96c-.227.227-.2.587.053.827.173.187.787.213 4.573.213 3.213 0 4.4-.04 4.52-.16.227-.227.2-.867-.053-.96-.12-.04-2.173-.08-4.573-.08-3.213 0-4.4.04-4.52.16zM26.067 3.187c-.68.4-.88.84-.88 1.907 0 .747-.08 1.08-.333 1.56l-.32.613v9.467c0 8.12.027 9.587.2 10.267.267.987.72 2 1.253 2.787.333.467.413.733.413 1.28 0 .573.04.693.32.813.227.107.387.107.6 0 .227-.133.28-.28.28-.827 0-.533.08-.8.413-1.267.533-.787.987-1.8 1.253-2.787.173-.667.2-1.987.2-8.693V10.4h.453c.827 0 .88.227.88 3.293 0 2.587.013 2.707.28 2.84.213.12.347.107.6-.067l.32-.2v-2.813c0-2.333-.04-2.893-.213-3.28-.293-.6-.747-.893-1.573-.973l-.68-.067-.067-1.08c-.04-.64-.16-1.2-.28-1.4-.133-.187-.24-.76-.293-1.427-.04-.693-.147-1.227-.293-1.44-.52-.8-1.733-1.093-2.533-.6zm1.373 1.106c.093.093.16.373.16.627 0 .48 0 .48-.6.48s-.6 0-.6-.48c0-.533.187-.787.6-.787.16 0 .347.067.44.16zm.387 2.694c.347.293.373.4.373 1.24v.907h-2.4v-.907c0-.84.027-.947.373-1.24.24-.2.547-.32.827-.32s.587.12.827.32zm.44 10.48v7.067h-2.533V10.401h2.533v7.067zm-.134 8.626c0 .507-.307 1.467-.733 2.307-.387.773-.373.773-.88-.187-.347-.653-.653-1.64-.653-2.12v-.36h2.267v.36z"/></symbol>

<symbol id="worker" viewBox="0 0 30 32"><path d="M13.5.138c-1.425.275-2.887 1.4-3.65 2.813C9.5 3.601 9 5.226 9 5.739c0 .188-.125.425-.325.575-.387.313-.575 1.075-.425 1.737.063.3.063.588-.012.713-.15.3-.15 2.075.012 2.375.175.325.85.65 1.2.575.287-.05.3-.025.3.625 0 1.225.887 3.15 1.65 3.55.188.1.225.238.2.65-.037.475-.075.525-.475.637-1.175.313-3.9 1.275-4.638 1.65-1.075.538-1.563 1.038-2.05 2.113-.55 1.188-.75 2.125-1.2 5.55-.4 3.075-.388 3.125.163 3.137.275 0 .263.038.725-3.45.412-3.163.588-3.988 1.063-4.962.4-.825.513-.962 1.125-1.375.8-.55.813-.538.813 1.325v1.663l-.537.45c-.35.288-.588.625-.688.95-.213.688-.213 5.412 0 5.625.112.113 2.3.15 9.1.15s8.988-.038 9.1-.15c.113-.113.15-.887.15-2.725 0-2.425-.012-2.6-.275-3.125-.163-.313-.462-.675-.688-.813l-.4-.25-.012-1.725c0-.938.025-1.712.063-1.712.288 0 1.137.6 1.438 1.012.75 1.05 1.038 2.188 1.575 6.387l.35 2.725h.337c.188 0 .375-.038.4-.1.087-.125-.613-5.5-.863-6.65-.5-2.3-1.188-3.3-2.825-4.1-.8-.387-3.4-1.3-4.938-1.725-.087-.025-.163-.225-.163-.438 0-.313.15-.55.637-1.075.825-.875 1.238-1.787 1.325-2.963.05-.7.113-.912.238-.863.325.125 1.05-.225 1.238-.588.2-.387.262-2.188.087-2.3-.063-.037-.087-.5-.05-1.05.05-.95.038-.987-.313-1.35-.262-.25-.387-.537-.45-.95-.288-2.075-1.587-4.1-3.125-4.838-1.212-.588-2.912-.775-4.338-.5zm1.25 2.3c0 1.688-.025 1.75-.662 1.425-.738-.375-.838-.587-.838-1.7 0-1.175.075-1.262 1.037-1.275l.463-.012v1.563zm1.788-1.426.462.125v1.05c0 .9-.038 1.1-.25 1.313-.25.25-.762.5-1.012.5-.063 0-.113-.675-.113-1.563 0-1.738-.037-1.688.913-1.425zm-3.55 3.038c.9.925 2.675 1.1 3.837.375.775-.475 1.05-.987 1.05-2.025v-.788l.387.288c.913.675 1.75 2.45 1.962 4.162.075.65.137.763.438.912.288.138.337.237.337.662 0 .45-.025.488-.35.488-.2 0-.462.088-.6.188-.35.262-9.7.262-10.175 0a1.696 1.696 0 0 0-.588-.188c-.25 0-.287-.063-.287-.487s.05-.525.35-.662c.3-.15.35-.25.412-.925.162-1.763.988-3.425 2.113-4.275l.563-.438.063 1.138c.063 1.087.075 1.15.488 1.575zM9.75 9.863c0 .825-.225 1.162-.6.925-.313-.188-.363-1.537-.075-1.75.15-.113.275-.113.438-.025.188.1.238.262.238.85zM21.075 9.3c.225.9-.175 1.838-.625 1.463-.288-.238-.275-1.575.012-1.738s.525-.05.613.275zm-1.7 1.888c0 1.625-.038 2.037-.25 2.6-.313.838-1.1 1.65-2 2.075-.613.288-.837.325-2.125.325s-1.512-.038-2.137-.325c-.912-.438-1.537-1.05-1.95-1.95-.313-.65-.35-.9-.387-2.5-.025-.988-.025-1.875.025-1.975.063-.162.65-.188 4.45-.188h4.375v1.938zm-6.2 5.625c.363.113 1.113.188 1.825.188s1.462-.075 1.825-.188c.337-.1.625-.188.65-.188.012 0 .025.125.025.275 0 .262-.25.613-1.85 2.637l-.675.85-1.238-1.575c-.825-1.038-1.238-1.663-1.238-1.875 0-.175.012-.313.037-.313.012 0 .3.087.637.188zm.188 2.837c.775.988 1.45 1.875 1.525 1.975.1.137.15.15.2.025.113-.288 2.812-3.675 2.987-3.738.087-.038.525.05.95.175l.788.238.038 2.3.025 2.313h-9.75v-4.637l.725-.2c.387-.113.8-.212.912-.212.125-.012.787.725 1.6 1.762zm-4.113 1.4c0 2.1.025 2.438.213 2.587.162.137 1.2.175 5.563.175 5.175 0 5.375-.012 5.55-.238.137-.2.175-.762.175-2.6 0-1.288.012-2.35.038-2.35s.3.087.625.2l.587.2.012 1.825c.012 1.012.012 1.887 0 1.95-.075.363.163.738.55.9.775.325.813.462.813 3.113v2.375l-16.813-.012v-2.313c0-2.6.063-2.825.875-3.163l.438-.188.025-2.225.037-2.212.563-.225c.313-.113.6-.212.662-.212.05-.012.088 1.075.088 2.413z"/><path d="M7.5 24.875v.375h2.262l-.037-.35c-.037-.337-.037-.337-1.125-.375l-1.1-.038v.387zM20.337 24.575c-.05.05-.087.225-.087.387 0 .275.025.288 1.137.288h1.125l-.038-.35c-.038-.337-.05-.337-1.038-.375-.563-.012-1.05 0-1.1.05z"/></symbol>

<symbol id="agreement" viewBox="0 0 32 32"><path d="M2.661 2.661 0 5.322v13.13c0 9.983.052 13.183.209 13.339S1.687 32 5.061 32c4.017 0 4.661-.035 4.87-.278.157-.191.174-.348.035-.557-.157-.261-.678-.296-4.47-.348l-4.278-.035V6.26h2.313c1.565 0 2.383-.07 2.522-.209s.209-.957.209-2.522V1.216h16.87v17.687l-.435.4-.435.417-.835-.817c-1.252-1.217-2.557-1.617-3.809-1.148-.609.226-2.139 1.704-2.139 2.052 0 .139 1.722 1.983 3.826 4.104l3.826 3.843v3.026l-4.296.035-4.313.052v1.043l4.678.052c3.304.035 4.748-.017 4.904-.157.174-.139.243-.609.243-1.461 0-1.235 0-1.252.417-1.183.313.07.591-.087 1.148-.643.852-.852 1.217-1.635 1.217-2.609 0-.922-.365-1.617-1.374-2.661l-.8-.852.696-.609c1.043-.922 3.009-2.278 4.087-2.835 1.113-.574 1.617-1.061 2-1.948.504-1.235.243-2.4-.765-3.374a2.932 2.932 0 0 0-2.817-.765c-1.078.296-1.583.713-2.157 1.774a27.328 27.328 0 0 1-1.078 1.791l-.574.87V8.848c0-6.33-.052-8.487-.209-8.643s-2.504-.209-9.513-.209H5.321L2.66 2.657zm2.382.991v1.391H3.652c-.765 0-1.391-.017-1.391-.052 0-.122 2.522-2.696 2.661-2.713.07-.017.122.609.122 1.374zm25.114 10.922c1.043 1.113.643 2.452-.974 3.27-1.235.626-2.661 1.6-4.017 2.748l-1.113.957-.383-.4c-.487-.504-.47-.591.226-1.322.783-.8 2.47-3.183 2.991-4.209.539-1.078 1.148-1.53 2.052-1.53.574 0 .835.104 1.217.487zm-10.627 4.4c.539.278 5.843 5.548 6.139 6.104.4.748.313 1.461-.278 2.087l-.504.574-3.965-3.948-3.948-3.948.348-.383c.591-.661 1.496-.852 2.209-.487z"/><path d="M11.878 4.104c-.209.557.191.852 1.165.852s1.374-.296 1.165-.852c-.087-.209-.348-.278-1.165-.278s-1.078.07-1.165.278zM15.774 3.948c-.226.209-.122.887.157.991.487.191 1.565.104 1.878-.122.226-.174.278-.348.209-.609-.104-.33-.261-.383-1.13-.383-.557 0-1.061.052-1.113.122zM19.357 4.104c-.174.47.191.852.904.904 1.113.104 1.513-.07 1.443-.626-.052-.452-.104-.47-1.148-.522-.887-.035-1.096 0-1.2.243zM2.713 8.104c-.209.191-.278.626-.278 1.565 0 2.209-1.043 1.983 9.565 1.983 5.043 0 9.304-.052 9.461-.104.226-.087.278-.4.278-1.704 0-1.009-.07-1.67-.209-1.809-.157-.157-2.487-.209-9.374-.209-8.104 0-9.2.035-9.443.278zm5.113 1.635v.696H5.843c-2.122 0-2.174-.017-2.052-.904l.07-.487h3.965v.696zm12.696 0v.696H9.252l-.07-.487c-.035-.278-.035-.591 0-.696.052-.157 1.583-.209 5.704-.209h5.635v.696zM2.609 13.235c-.47.87-.522.852 9.635.817L21.653 14v-1.043l-9.426-.052c-9.391-.035-9.426-.035-9.617.33zM2.713 15.583c-.348.33-.348.504 0 .835.243.243 1.287.278 9.496.243 8.574-.052 9.252-.07 9.426-.365.139-.209.139-.383 0-.609-.174-.278-.852-.296-9.426-.348-8.209-.035-9.252 0-9.496.243zM2.626 18.243c-.122.226-.122.4.035.609.191.261.765.278 5.67.243 4.8-.052 5.478-.087 5.635-.33a.748.748 0 0 0 .07-.574c-.104-.243-.678-.278-5.67-.278-5.252 0-5.583.017-5.739.33zM2.609 20.713c-.157.261-.139.417.017.609s.974.243 4.522.243c4.191 0 4.313-.017 4.417-.348.261-.817-.017-.87-4.539-.87-4.104 0-4.243.017-4.417.365zM13.043 20.609c-.261.313-.174.783.209 1.026.243.139.383.104.661-.157.313-.33.33-.383.07-.748-.313-.435-.626-.487-.939-.122zM13.443 23.113c-.713.33-1.791 1.565-1.791 2.035 0 .174-.452.243-1.757.278-1.426.035-1.809.104-1.948.348-.139.209-.122.365.035.557.191.226.591.278 1.93.278 1.67 0 1.704.017 1.809.435.174.678 1.096 1.6 1.93 1.93 2.139.8 4.435-.957 4.226-3.235-.209-2.191-2.487-3.53-4.435-2.626zm2.209 1.357c1.2.696 1.148 2.435-.087 3.096-.748.417-1.687.243-2.191-.4l-.365-.47 1.078-.087c1.217-.104 1.652-.435 1.235-.939-.174-.191-.539-.278-1.27-.278-1.043 0-1.043 0-.8-.4.539-.8 1.548-1.026 2.4-.522zM11.704 31.061c-.139.383.174.852.557.852s.696-.47.557-.852c-.139-.365-.974-.365-1.113 0z"/></symbol>

<symbol id="guarantee" viewBox="0 0 32 32"><path d="M5.739.835c-.748.417-1.2 1.009-1.391 1.878-.087.365-.174 5.304-.174 10.974v10.296l-4.087.104-.052 1.043c-.052 1.252.313 2.07 1.165 2.643l.591.4H19.13v1.322c0 1.287.191 1.983.539 1.983.104 0 .626-.313 1.148-.696.539-.383 1.026-.696 1.096-.696.052 0 .539.313 1.043.696 1.339 1.009 1.461.922 1.565-.957l.087-1.565.852-.104c.713-.07.957-.209 1.513-.817l.678-.713V4.869h1.878c2.417 0 2.539-.087 2.435-1.53-.087-1.148-.383-1.722-1.252-2.365-.47-.365-.661-.365-12.417-.417C6.921.522 6.312.54 5.738.835zM27.13 1.6c0 .035-.122.365-.261.748-.209.574-.243 2.643-.261 12.313v11.617l-.435.417c-.296.313-.609.435-1.061.435h-.626l.122-1.878c.122-1.843.33-2.765.852-3.774.278-.539.209-1.217-.174-1.67-.139-.139-.243-.435-.243-.643 0-.539-.8-1.391-1.443-1.53a3.045 3.045 0 0 1-.904-.348c-.435-.313-1.217-.313-1.791.017-.261.139-.765.365-1.13.504-.487.209-.713.435-.922.922-.139.365-.365.87-.504 1.13-.33.557-.33 1.339-.035 1.791.278.417.817 1.826.817 2.139 0 .157-1.583.209-6.87.209h-6.87V13.338c0-11.548-.035-11.217.939-11.6.313-.122 20.8-.261 20.8-.139zm2.94.209c.487.261.887.922.887 1.496 0 .313-.122.348-1.67.348h-1.67l.104-.574c.122-.643.991-1.513 1.513-1.513.191 0 .557.104.835.243zm-7.67 16.8c.157.243.365.33.783.313.522-.052.557-.017.609.557.035.33.209.748.4.922.417.4.417.591 0 .817-.226.122-.365.4-.4.835-.052.609-.087.643-.626.643-.365.017-.643.122-.748.313-.226.4-.73.383-1.113-.052-.209-.226-.435-.313-.643-.243-.452.139-.8-.209-.713-.696.07-.296-.017-.487-.278-.661-.47-.278-.47-.696 0-1.113.226-.209.313-.452.261-.696a.566.566 0 0 1 .73-.696c.209.07.435-.017.643-.243.4-.435.817-.452 1.096 0zm-1.461 5.652c.435.33 1.513.33 1.948 0 .174-.139.383-.261.47-.261.07 0 .122 1.287.122 2.87s-.052 2.87-.104 2.87-.348-.191-.661-.435c-.713-.539-.939-.539-1.67 0-.33.243-.609.435-.643.435s-.052-1.287-.052-2.87c0-1.583.052-2.87.139-2.87.07 0 .278.122.452.261zm-1.809 1.826v1.043H1.947l-.452-.539c-.261-.313-.452-.748-.452-1.043v-.504H19.13v1.043z"/><path d="m12.209 5.339.052.487 4.261.104V4.869h-4.365l.052.47zM17.565 5.391v.522h2.087V4.87h-2.087v.522zM10.609 8v.522h10.783V7.479H10.609v.522zM8 11.13v.522h2.609v-1.043H8v.522zM11.774 10.73c-.07.052-.122.296-.122.522v.4H24v-1.043h-6.052c-3.339 0-6.122.052-6.174.122zM8 13.913v.522h5.913v-1.043H8v.522zM14.957 13.913v.522H24v-1.043h-9.043v.522zM8 16.522v.522l5.096.017c4.991.017 5.53.017 5.67-.104.035-.035.017-.278-.052-.522L18.61 16H8.001v.522zM8 19.13v.522h3.878c2.122 0 4.157.052 4.522.104l.643.122v-1.27H8v.522z"/></symbol>

<symbol id="control" viewBox="0 0 32 32"><path d="M1.13.157C.939.244.626.487.434.696c-.296.33-.348.678-.4 2.609-.052 1.809 0 2.33.226 2.783.33.643 1.165 1.043 2.157 1.043h.678l.07 3.339c.07 3.043.122 3.478.522 4.609 1.443 4.087 4.383 6.991 8.4 8.348 1.252.417 1.635.47 3.913.47s2.661-.052 3.913-.47c4.348-1.461 7.513-4.852 8.609-9.235.278-1.096.348-1.948.348-4.226V7.131h.783c.991 0 1.739-.365 2.087-1.043.296-.591.365-4.209.087-4.939-.087-.243-.417-.609-.73-.8-.557-.348-.887-.348-15.096-.33-7.983 0-14.678.07-14.87.139zm28.957 3.408v1.652H1.913V1.913h28.174v1.652zm-3.009 6.383c-.104 3.183-.33 4.261-1.287 6.209-.452.939-.991 1.67-1.948 2.643-6 6.07-16.33 3.304-18.557-4.974-.174-.661-.313-2.087-.365-3.878l-.104-2.817h22.365l-.104 2.817z"/><path d="M14.765 9.113c-1.078.226-2.191.887-2.974 1.739-2 2.174-1.913 5.635.209 7.757 1.113 1.113 2.4 1.635 4 1.652 1.148 0 1.478-.087 2.487-.574 2.435-1.2 3.67-3.826 2.991-6.383-.435-1.652-1.461-2.991-2.87-3.739-.522-.261-2.417-.73-2.765-.678-.052 0-.539.104-1.078.226zm2.592 2.122c2.678 1.113 3.078 4.817.678 6.435-.643.452-.887.504-2.035.504s-1.391-.052-2.035-.504c-.904-.609-1.617-1.93-1.617-3.009 0-2.591 2.661-4.417 5.009-3.426z"/><path d="M15.391 14c-.522.504-.539.852-.087 1.304.591.591 1.391.348 1.652-.47.07-.296-.017-.504-.33-.835-.539-.539-.713-.539-1.235 0zM4.087 21.739c-.365.417-.261 1.217.348 2.557.817 1.809 2.922 3.478 4.783 3.791.817.139 1.391-.226 1.391-.87 0-.504-.296-.73-1.339-1.043-1.67-.504-3.2-2.052-3.461-3.548-.209-1.165-1.061-1.617-1.722-.887zM26.574 21.687c-.157.174-.313.591-.383.939-.261 1.496-1.791 3.043-3.461 3.548-1.043.313-1.339.539-1.339 1.043 0 .643.574 1.009 1.339.887 2.487-.452 4.817-2.765 5.357-5.287.226-1.096-.835-1.896-1.513-1.13z"/><path d="M.33 22.104c-.435.435-.348 1.2.365 3.061 1.339 3.513 4.643 6.209 8.261 6.765.87.122 1.409-.33 1.235-1.061-.122-.487-.278-.557-2.104-1.113-3.009-.922-5.217-3.322-6.07-6.539-.365-1.443-.957-1.843-1.687-1.113zM30.452 22.07c-.174.174-.383.626-.435.991-.557 2.974-3.096 5.774-6.052 6.661-1.878.574-2.035.661-2.157 1.148-.139.574.33 1.13.957 1.13.748 0 3.287-.974 4.296-1.635 2.087-1.391 3.583-3.252 4.313-5.409.678-1.93.73-2.417.296-2.852-.452-.452-.783-.47-1.217-.035z"/></symbol>

<symbol id="listAndPen" viewBox="0 0 32 32"><path d="M2.417.922C2 1.148 1.426 1.67 1.13 2.07l-.522.748-.052 13.13c-.035 9.652.017 13.2.157 13.374s.609.243 1.478.243h1.27l.052.904.052.922h20.87l.052-6.348.035-6.348 2.609-2.609c1.443-1.426 2.609-2.487 2.609-2.348 0 .765-.991 2.243-2.47 3.774-1.565 1.6-1.583 1.617-1.27 1.965.33.365.33.348 1.948-1.252 1.809-1.791 2.539-2.991 2.852-4.748.104-.574.296-1.304.435-1.617.696-1.617-.348-3.339-2.017-3.339-.817 0-1.148.226-2.991 2.052l-1.704 1.687V7.564l.904-.435a3.862 3.862 0 0 0 1.443-1.183c.452-.661.522-.904.522-1.948s-.07-1.287-.522-1.93c-.278-.4-.87-.922-1.287-1.148l-.765-.4H3.183l-.765.4zm2.922.991c.47.278 1.096 1.13 1.096 1.478 0 .052-.435.087-.974.087-.835 0-1.026.07-1.478.504l-.504.504v24.035H1.566V15.912c0-13.93-.052-13.304 1.096-14 .33-.209.87-.348 1.339-.348s1.009.139 1.339.348zm20 0c.696.417 1.096 1.165 1.096 2.087s-.4 1.67-1.096 2.087c-.539.33-.939.348-9.635.348H6.626l.417-.8c.278-.539.435-1.096.435-1.635s-.157-1.096-.435-1.635l-.417-.8h9.078c8.696 0 9.096.017 9.635.348zM6.435 4.643c0 .539-1.27 1.791-1.826 1.791-.122 0-.104-1.652.035-1.791.157-.174 1.791-.157 1.791 0zm17.043 5.74v2.904l-2.157 2.191H6.434v1.043h13.809l-1.009 1.043h-12.8v.87h11.913l-1.757 1.791c-1.496 1.513-1.878 2-2.487 3.304-.539 1.113-.678 1.6-.557 1.757.139.157.052.348-.33.713-.626.591-.643.8-.157 1.096.33.209.435.174.922-.296.417-.4.609-.487.748-.348.157.157.626-.017 1.826-.626 1.461-.748 1.878-1.061 4.278-3.443l2.643-2.643v10.696H4.519V7.478h18.957v2.904zm6.609-.47c.557.557.452 1.304-.348 2.139l-.678.73-1.843-1.843.73-.678c.835-.8 1.583-.904 2.139-.348zm-3.183 2.209c.07.191-5.913 6.313-6.174 6.313-.087 0-.226-.087-.348-.209-.174-.174.435-.87 2.87-3.304 2.87-2.87 3.478-3.339 3.652-2.8zm1.218 1.2c.157.417-6.017 6.557-6.33 6.296-.139-.104-.209-.261-.191-.348.087-.226 6.122-6.226 6.278-6.226.07 0 .174.122.243.278zm-7.687 6.33.852.87-3.27 3.304-1.843-1.809 1.6-1.617c.887-.887 1.652-1.617 1.704-1.617s.487.4.957.87zM16.383 23.6c.365.348.661.696.661.765s-.435.296-.974.504c-1.287.539-1.478.348-.922-.939.226-.539.452-.974.504-.974.035 0 .365.296.73.643z"/><path d="M6.435 10v.435h15.13v-.87H6.435V10zM6.435 12v.522h15.13v-1.043H6.435v.522zM6.435 14v.435h15.13v-.87H6.435V14zM6.435 26v.609H12v-1.217H6.435v.609zM6.435 28v.522h15.13v-1.043H6.435v.522z"/></symbol>

<symbol id="wallpaper" viewBox="0 0 32 32"><path d="M3.973 1.68c-.64.347-1.52 1.147-1.973 1.76l-.8 1.147-.187 10.56C.88 22.214.933 26.08 1.12 26.8c.373 1.44 1.6 2.907 2.96 3.573 1.12.533 1.547.56 14 .56h12.853V5.066h-8c-6.933 0-8 .053-8 .4 0 .427.213.48 1.413.4.907-.053.907.187 0 1.12-.613.64-.667.827-.347 1.013.267.16.72-.08 1.653-.96 1.173-1.12 2.373-1.52 2.72-.96.08.133-.507.88-1.307 1.653-1.12 1.12-1.387 1.52-1.147 1.787.24.293.693-.027 2.347-1.653 1.68-1.627 2.24-2 2.907-2 .453 0 .827.08.827.187s-.613.8-1.333 1.547c-.96.987-1.307 1.493-1.173 1.84.133.373.56.08 2.24-1.547 1.68-1.653 2.24-2.027 2.907-2.027.453 0 .827.08.827.187s-.427.613-.933 1.147c-.827.853-.907 1.013-.56 1.307.32.267.667.08 1.947-1.147 1.547-1.52 2-1.707 2.16-.827.08.32-1.173 1.76-3.947 4.533-3.573 3.6-3.973 4.08-3.6 4.4s.827-.053 3.813-3.013c1.867-1.867 3.493-3.387 3.6-3.387.133 0 .187.427.107.933-.107.773-.773 1.547-3.893 4.64-2.053 2.053-3.76 3.84-3.76 4 0 .933.933.267 3.973-2.747 1.84-1.84 3.467-3.36 3.6-3.36s.16.453.08.987c-.133.827-.8 1.627-4.24 5.067-3.227 3.227-4 4.133-3.733 4.4s1.093-.427 4-3.333c2-2 3.76-3.653 3.867-3.653s.187.373.187.853c0 .747-.613 1.467-5.12 6C20.055 27.84 19.842 28 18.828 28h-1.067l1.787-1.813c1.467-1.493 1.76-1.893 1.44-2.133-.267-.24-.8.133-2.453 1.813C16.642 27.76 16.295 28 15.442 28c-.827 0-.96-.08-.853-.507.213-.8-.373-.88-1.093-.16-.64.64-.8.667-3.84.667-3.787 0-4.667-.24-5.253-1.493-.48-1.04-.347-1.787.48-2.72.453-.48.827-.587 2.24-.587 1.28 0 1.68.08 1.68.4 0 .267-.427.4-1.653.453l-1.68.08-.08 1.147c-.107 1.52.267 1.92 1.787 1.92 1.893 0 3.093-.453 4-1.493l.827-.933v-10.4c0-11.493-.027-11.787-1.653-12.773-1.333-.8-4.773-.773-6.373.08zm5.147.453c1.2.347 1.813 1.147 1.813 2.32v.907l-.8-.427c-.427-.213-1.333-.4-2-.4-1.04 0-1.227.08-1.147.453.053.373.4.507 1.333.56 1.413.08 2.613 1.04 2.613 2.08 0 .747 0 .747-.96.24-.427-.213-1.28-.4-1.893-.4-.96 0-1.147.08-1.147.533s.187.533 1.227.533c.987 0 1.36.133 2 .773.427.453.773 1.067.773 1.44v.667l-.987-.507c-1.333-.693-3.013-.693-3.013 0 0 .4.267.507 1.387.613 1.547.16 2.613 1.067 2.613 2.213 0 .613-.027.613-.72.24-1.04-.507-3.28-.507-3.28.027 0 .267.267.4.8.4 1.787 0 3.2 1.04 3.2 2.4 0 .533-.027.533-.8.133-.427-.213-1.333-.4-2-.4-1.04 0-1.227.08-1.147.453.053.373.4.507 1.333.56 1.573.107 2.613 1.04 2.613 2.347 0 .88 0 .88-.72.48-1.013-.507-4.613-.507-5.893.027-.533.24-1.227.667-1.547.96l-.56.533-.187-2.053c-.267-3.253-.187-12.747.133-14.187.587-2.853 3.707-4.4 6.96-3.52zm21.013 18.16c0 .667-.373 1.2-1.733 2.64-1.413 1.44-1.68 1.84-1.387 2.08.267.24.613.053 1.52-.88.64-.667 1.28-1.2 1.387-1.2s.213.373.213.827c0 .64-.347 1.2-1.653 2.533C27.013 27.84 26.747 28 25.787 28h-1.093l.72-.747c.4-.4.72-.88.72-1.067 0-.613-.693-.32-1.733.747-.88.907-1.227 1.067-2.107 1.067h-1.093l4.267-4.267c2.347-2.347 4.347-4.267 4.453-4.267.133 0 .213.373.213.827zM10 21.653c.4.373.747 1.013.853 1.6.133.853.027 1.093-.667 1.813-.693.667-1.013.8-2.16.8-1.04 0-1.36-.107-1.36-.4s.32-.4 1.2-.4c2 0 2.933-1.467 1.707-2.693-.507-.507-.8-.56-2.56-.453-1.84.133-2.053.213-2.933 1.067-1.733 1.733-1.36 4.453.747 5.6.827.453 1.787.48 13.067.48 11.467 0 12.187.027 12.133.453-.08.453-.853.48-12.187.48-13.547-.027-13.36 0-14.8-1.893-.667-.853-.773-1.253-.773-2.613 0-2.907 1.787-4.4 5.253-4.427 1.467 0 1.893.107 2.48.587zM30.133 27.2c0 .747-.08.8-.987.8h-.987l.773-.8c.427-.453.853-.8.987-.8.107 0 .213.347.213.8z"/><path d="M5.067 5.067c0 .293.187.533.4.533s.4-.24.4-.533c0-.293-.187-.533-.4-.533s-.4.24-.4.533zM5.067 8c0 .613.667.72.88.16.187-.427-.027-.693-.533-.693-.187 0-.347.24-.347.533zM5.067 10.933c0 .293.187.533.4.533s.4-.24.4-.533c0-.293-.187-.533-.4-.533s-.4.24-.4.533zM5.067 14c0 .213.187.4.4.4s.4-.187.4-.4c0-.213-.187-.4-.4-.4s-.4.187-.4.4zM5.067 17.067c0 .293.187.533.4.533s.4-.24.4-.533c0-.293-.187-.533-.4-.533s-.4.24-.4.533zM13.067 5.467c0 .213.187.4.4.4s.4-.187.4-.4c0-.213-.187-.4-.4-.4s-.4.187-.4.4zM13.867 9.467c-.48.533-.56.747-.32.987.267.267.48.16 1.013-.373.4-.373.613-.827.533-.987-.293-.453-.533-.373-1.227.373zM18.987 14.747c-4.693 4.693-5.36 5.467-5.013 5.76s1.2-.427 5.92-5.12c4.96-4.96 5.84-6.053 4.827-6.053-.187 0-2.773 2.427-5.733 5.413zM14.933 11.867c-1.36 1.36-1.653 1.787-1.387 2.053s.693-.027 2.08-1.413c1.413-1.413 1.68-1.813 1.387-2.053s-.72.053-2.08 1.413zM17.867 12.4c-1.787 1.787-2.187 2.32-1.92 2.587s.8-.133 2.613-1.947c1.84-1.84 2.213-2.347 1.92-2.587s-.827.16-2.613 1.947zM13.893 16.373c-.427.453-.533.773-.373 1.067.213.373.347.32.987-.347.427-.427.667-.907.587-1.067-.293-.427-.533-.373-1.2.347zM18.027 19.173c-2.64 2.64-3.173 3.493-2.213 3.493.187 0 1.627-1.307 3.2-2.88 2.24-2.267 2.8-2.933 2.533-3.2-.187-.187-.4-.32-.48-.32s-1.44 1.307-3.04 2.907zM18.053 22.693c-2.453 2.48-2.853 2.987-2.56 3.333s.773-.027 3.333-2.587c2.32-2.32 2.96-3.093 2.72-3.36-.16-.187-.347-.347-.453-.32-.08 0-1.467 1.333-3.04 2.933zM13.6 23.6c-.347.4-.187 1.2.213 1.2.427 0 .907-.773.747-1.2-.187-.507-.533-.507-.96 0z"/></symbol>

<symbol id="delivery" viewBox="0 0 32 32"><path d="M25.12 3.333c-.453.373-.88 1.04-.987 1.467-.16.72-.267.773-1.547.853-1.227.08-1.387.16-1.467.693-.133.933.667 1.653 1.813 1.653h.987l.187 1.573c.133 1.253.347 1.787.96 2.427.8.853 1.04 1.6.533 1.6-.133 0-.267.293-.267.64 0 .427-.187.72-.533.827-.293.08-.773.48-1.067.853-.48.613-.533 1.067-.533 3.973v3.307h-1.013c-.56 0-1.253.187-1.547.4-.267.213-.88.4-1.333.4-1.04 0-1.547.56-1.28 1.387.267.907.56 1.013 2.987 1.013H23.2v2.933H32v-3.227c0-2.907-.053-3.2-.453-3.12-.427.08-.48.453-.56 2.827l-.08 2.72H24v-2.133h1.84c2.347 0 3.173-.587 3.413-2.4.107-.667.347-1.333.56-1.493.293-.213.373-.907.293-3.387-.053-1.707-.027-3.12.08-3.12.4 0 .613.747.747 2.533.107 1.413.24 1.867.533 1.867s.427-.4.48-1.627c.107-2-.24-2.933-1.28-3.52-.427-.24-.8-.667-.8-.907s-.107-.533-.267-.613c-.48-.293-.293-.987.533-1.92.667-.747.8-1.12.8-2.32 0-1.04.107-1.467.4-1.6.88-.32.187-3.573-.987-4.56-.667-.56-1.067-.667-2.613-.667-1.573 0-1.947.107-2.613.667zm4.587.694c.373.293.693.773.693 1.067 0 .453-.213.507-2.667.507-2.96 0-3.253-.213-2-1.467.853-.88 2.933-.933 3.973-.107zm-1.094 2.826a60.9 60.9 0 0 1-4.4 0c-1.227-.027-.24-.08 2.187-.08s3.413.053 2.213.08zm1.44 1.574c.08.213.053.907-.08 1.493-.693 3.227-4.907 2.613-4.907-.72V8h2.4c1.947 0 2.453.08 2.587.427zm-1.786 4.906c0 .133-.293.267-.667.267s-.667-.133-.667-.267c0-.16.293-.267.667-.267s.667.107.667.267zm.533 1.6c0 .133-.587.267-1.333.267-.72 0-1.333-.133-1.333-.267 0-.16.613-.267 1.333-.267.747 0 1.333.107 1.333.267zm-3.467 4.4c0 2.773.053 3.333.4 3.333.213 0 .4.107.4.267 0 .133-.48.267-1.067.267h-1.067v-3.013c0-2.293.107-3.147.427-3.6.213-.32.507-.587.667-.587.133 0 .24 1.413.24 3.333zm3.414-2.746c.213.213.32 1.2.32 2.667v2.347h-2.933v-2.347c0-2.613.187-2.987 1.467-2.987.453 0 .96.133 1.147.32zm-.48 7.093c0 .56-.133 1.147-.32 1.333-.24.24-1.6.32-4.72.267-2.453 0-4-.08-3.493-.133.507-.08 1.12-.293 1.333-.48.293-.267 1.307-.4 3.2-.453l2.8-.08.08-.747c.053-.507.24-.72.613-.72.4 0 .507.187.507 1.013zM1.44 4.64c-.827.827-.907 1.067-.907 2.4 0 .827.107 1.707.24 1.973.16.24.32.88.427 1.413.08.533.427 1.227.8 1.573.693.64.88 1.44.4 1.733-.16.08-.267.373-.267.613s-.373.667-.8.907c-.453.24-.933.773-1.067 1.147-.16.4-.267 3.413-.267 6.827v6.107h8.8V26.4h2.213c2.4 0 2.693-.107 2.96-1.013.267-.827-.24-1.387-1.28-1.387-.453 0-1.067-.187-1.333-.4-.293-.213-.987-.4-1.52-.4H8.826l-.08-1.333c-.107-1.733-.587-1.733-.693 0l-.08 1.333H6.906c-.56 0-1.04-.133-1.04-.267 0-.16.187-.267.4-.267.347 0 .4-.56.4-3.36 0-3.627.213-4.053 1.147-2.16.533 1.067.987 1.093.987.08 0-.747-.88-1.92-1.6-2.16-.347-.107-.533-.4-.533-.827 0-.347-.107-.64-.267-.64-.507 0-.267-.747.507-1.573.587-.64.827-1.227.96-2.293.107-.8.133-1.653.027-1.893-.08-.213.027-.667.24-.987.56-.8.507-1.6-.16-2.427-.533-.667-.667-.693-3.093-.693-2.533 0-2.533 0-3.44.907zm5.6.24c.267.187.453.587.373.88-.08.4-.347.533-1.547.587-1.573.08-2.32.533-2.453 1.493-.053.453-.267.56-1.013.56-.88 0-.933-.053-1.013-.933-.08-1.147.427-2.16 1.28-2.587.88-.453 3.76-.453 4.373 0zm-.16 3.947c.053 1.28-.027 1.627-.587 2.293-.373.453-.987.88-1.333.933-1.04.213-2.267-.453-2.667-1.44-.48-1.093-.347-1.28.8-1.28.933 0 1.067-.16 1.547-1.68.133-.373.373-.48 1.147-.4l1.013.08.08 1.493zm-1.813 4.506c0 .133-.293.267-.667.267s-.667-.133-.667-.267c0-.16.293-.267.667-.267s.667.107.667.267zm.8 1.6c0 .133-.587.267-1.333.267-.72 0-1.333-.133-1.333-.267 0-.16.613-.267 1.333-.267.747 0 1.333.107 1.333.267zm-3.734 1.574c-.427.8-.347 5.813.107 6.08.187.107.427.747.507 1.413.24 1.813 1.067 2.4 3.413 2.4H8v2.133H1.067v-5.76c0-5.76.133-6.773.96-6.773.293 0 .32.107.107.507zm3.414.08c.213.213.32 1.2.32 2.667v2.347H2.934v-2.347c0-2.613.187-2.987 1.467-2.987.453 0 .96.133 1.147.32zm-.694 6.8.08.747 2.8.08c1.893.053 2.907.187 3.2.453.213.187.827.4 1.333.48.507.053-1.04.133-3.467.133-3.147.053-4.507-.027-4.747-.267-.187-.187-.32-.773-.32-1.333 0-.827.107-1.013.507-1.013.373 0 .56.213.613.72z"/><path d="M9.867 15.707c0 1.013.133 1.947.267 2.027.16.08.267 1.227.267 2.507v2.373l.827.16c1.12.213 8.987.16 9.84-.08.64-.16.667-.32.853-2.693.107-1.387.267-3.04.347-3.68.107-.613.107-1.44.027-1.813-.16-.64-.24-.667-1.973-.587-1.387.053-1.787.16-1.787.48 0 .293.373.427 1.413.48 1.333.08 1.387.107 1.387.88v.773H10.668v-1.573l2.88-.08c2.32-.053 2.853-.16 2.853-.48s-.587-.4-3.253-.48l-3.28-.08v1.867zM20.8 19.6v2h-9.253l-.187-1.227c-.08-.693-.16-1.6-.16-2V17.6h9.6v2z"/><path d="M12.453 18.32c-.107.08-.187.693-.187 1.333V20.8h1.2c1.067 0 1.2-.08 1.36-.693.293-1.12-.267-1.973-1.307-1.973-.507 0-.987.08-1.067.187zM15.387 19.093c-.107.107-.187.347-.187.56 0 .267.56.347 2.293.347 2.027 0 2.267-.053 2.187-.48-.08-.373-.427-.453-2.107-.533-1.093-.027-2.08 0-2.187.107z"/></symbol>

<symbol id="materials" viewBox="0 0 32 32"><path d="M26.533 1.547c-2.107 1.573-3.573 3.147-4.16 4.4l-.293.667-1.387-.64c-2.747-1.28-3.413-.933-7.307 3.707l-3.173 3.787-4.507 1.173c-2.48.64-4.773 1.28-5.12 1.387-.587.24-.587.24-.533 5.333l.08 5.12 4.907 2.773c4.667 2.667 4.933 2.773 5.867 2.533.88-.24 13.52-4.213 18.693-5.893l2.267-.747V14.854l-1.52-.827c-1.12-.587-1.493-.933-1.387-1.227.827-1.92.32-2.587-3.093-4.267-1.307-.64-2.4-1.333-2.4-1.547 0-.693.56-1.44.987-1.28.24.107 1.76-.213 3.387-.64 3.493-.987 4.32-1.627 4.053-3.173C31.707.666 31.227.24 29.814.08c-1.093-.133-1.307-.053-3.28 1.467zm3.974.373c.187.32.187.56 0 .747-.293.293-4.907 1.707-5.067 1.547-.053-.053.72-.72 1.707-1.493 1.867-1.493 2.8-1.707 3.36-.8zM20.4 7.253c.667.32 1.2.64 1.2.747 0 .08-1.547 1.067-3.467 2.213-3.28 1.973-4 2.667-3.067 3.013.4.16 7.493-3.973 7.653-4.48.053-.16 1.093.213 2.613 1.013 4.027 2.08 4.213 1.947-6.667 4.693-5.04 1.28-9.227 2.293-9.253 2.24-.107-.107 7.333-9.013 7.973-9.573.72-.613 1.547-.587 3.013.133zm8.24 7.28 1.04.613-3.173.987c-1.733.56-6.16 1.92-9.787 3.067l-6.64 2.08-2.56-1.467c-1.413-.8-3.093-1.76-3.733-2.133s-1.12-.72-1.04-.773c.187-.213 5.787-1.68 5.787-1.52 0 .053-.427.64-.933 1.253-1.44 1.76-1.173 2.267.907 1.76 1.147-.267 1.387-.24 2.187.24.507.32 1.12.56 1.387.56.587 0 .613-.96 0-1.307-.373-.187-.24-.293.72-.56.987-.267 1.307-.24 2.053.107 1.333.64 1.733.56 1.627-.293-.08-.64.027-.747.933-.96.693-.16 1.253-.16 1.68.053.987.427 1.387.373 1.493-.293.107-.72 1.253-1.093 2.827-.88.907.133 1.12.08 1.12-.24 0-.427 1.227-.907 2.4-.933.373 0 1.147.267 1.707.64zm2.027 5.68v3.947l-7.387 2.293c-9.093 2.827-11.947 3.68-12.32 3.68-.453 0-.4-7.36.027-7.653.32-.187 19.013-6.133 19.493-6.187.107-.027.187 1.76.187 3.92zm-24 .64L9.2 22.266l.08 3.813c.027 2.08 0 3.787-.107 3.787-.213 0-4.373-2.213-6.293-3.387l-1.547-.907v-7.733l1.413.773c.747.453 2.533 1.467 3.92 2.24z"/></symbol>

<symbol id="catalog" viewBox="0 0 32 32"><path d="m25.867 5.227-2.8.907H8.054L4.641 7.201c-5.067 1.547-4.64.4-4.64 12.133v9.68l.693.827c.88 1.067 1.893 1.067 4.773.107 2.08-.72 2.293-.747 10.533-.88l8.4-.16 3.2-1.12c4.8-1.653 4.4-.533 4.4-12.213v-9.76l-.773-.773c-1.013-1.013-1.76-.987-5.36.187zm4.746.426c.507.507.453 19.493-.053 19.92-.32.267-5.867 2.133-6.373 2.16-.107 0-.16-4.693-.133-10.453l.08-10.453 2.267-.72c2.507-.8 3.733-.933 4.213-.453zm-7.68 11.814V28H9.066V6.933h13.867v10.533zM8 17.68v10.48l-2.827.853c-2.64.827-2.88.853-3.467.453l-.64-.4v-9.547c0-5.227.107-9.68.24-9.893.213-.32 5.6-2.32 6.507-2.4C7.92 7.199 8 11.919 8 17.679z"/><path d="m27.28 7.787-2.213.827v3.147c0 3.68-.133 3.573 2.8 2.4l1.867-.72.08-3.04c.027-1.653-.027-3.12-.133-3.227s-1.2.187-2.4.613zm1.787 2.693v2.187l-1.307.48c-.72.24-1.44.453-1.6.453-.427 0-.4-3.893.027-4.187.427-.267 2.4-1.12 2.693-1.12.107-.027.187.96.187 2.187zM27.253 15.813c-1.653.587-2.187.907-2.107 1.227.107.507.267.48 2.8-.427 1.707-.613 2.32-1.147 1.733-1.493-.133-.08-1.2.24-2.427.693zM28.213 17.493c-.773.4-.933.747-.507 1.013.4.24 2.16-.613 2.16-1.04 0-.507-.72-.507-1.653.027zM25.68 18.4c-.693.293-.827 1.067-.187 1.067s1.44-.507 1.44-.933c0-.453-.373-.48-1.253-.133zM10.507 8.373c-.08.187-.107.933-.053 1.653l.08 1.307h10.933v-3.2l-5.413-.08c-4.427-.053-5.413 0-5.547.32zm10.026 1.36v.667h-9.067V9.067h9.067v.667zM14.027 12.96c-.24.213-.427.613-.427.853s-.293.72-.613 1.013c-.48.453-.747 1.333-1.227 3.84l-.64 3.253.587.56c.507.533.827.56 4.293.56s3.787-.027 4.293-.56l.587-.56-.64-3.28c-.507-2.587-.773-3.387-1.227-3.813-.347-.293-.613-.8-.613-1.12 0-.347-.24-.747-.507-.907-.827-.427-3.387-.347-3.867.16zm3.52 1.093c.08.267-.347.347-1.52.347-1.52 0-1.893-.16-1.44-.64.32-.32 2.827-.053 2.96.293zm1.573 4.48c.32 1.6.587 3.013.613 3.12 0 .133-1.68.213-3.733.213s-3.733-.053-3.733-.107c0-.187 1.093-5.653 1.2-5.973.107-.24.747-.32 2.587-.267l2.453.08.613 2.933zM11.6 24.293c-.427.64.453.773 4.56.72 3.547-.08 4.24-.133 4.24-.48s-.693-.4-4.32-.48c-2.933-.053-4.373.027-4.48.24zM11.52 26.453c.08.24.827.347 2.693.347 3.547 0 3.52-.507-.027-.613-2.16-.053-2.747 0-2.667.267zM18.133 26.56c0 .32.24.373 1.12.32 1.573-.107 1.68-.747.107-.747-.933 0-1.227.107-1.227.427zM5.413 15.867c-.88.373-1.093.773-.613 1.067.373.24 2.187-.613 2.08-.987-.16-.48-.533-.507-1.467-.08zM2.88 16.853c-.827.293-1.013 1.013-.267 1.013.267 0 .72-.16 1.013-.373.72-.533.213-.96-.747-.64zM4.133 18.347c-1.173.453-1.893.907-1.947 1.2-.133.613.08.587 2.587-.373 1.307-.48 2.16-.96 2.16-1.2 0-.533-.693-.453-2.8.373zM4.347 20.773c-1.067.373-1.973.773-2.053.827-.107.133-.24 4.08-.187 5.653.027.427.133.747.267.747s1.227-.373 2.4-.827l2.16-.827v-3.173c0-2.373-.08-3.173-.32-3.147-.187 0-1.2.347-2.267.747zm1.786 2.694V25.6l-.987.4c-2.293.96-2.24 1.013-2.16-1.467l.08-2.187 1.2-.48c1.893-.747 1.867-.773 1.867 1.6z"/></symbol>

<symbol id="calendar" viewBox="0 0 32 32"><path fill="none" stroke="#6cac3d" stroke-linecap="round" stroke-linejoin="round" stroke-width="3.765" d="M25.333 5.333H6.666A2.667 2.667 0 0 0 3.999 8v18.667a2.667 2.667 0 0 0 2.667 2.667h18.667A2.667 2.667 0 0 0 28 26.667V8a2.667 2.667 0 0 0-2.667-2.667zM21.333 2.667V8M10.667 2.667V8M4 13.333h24" style="stroke:var(--color3, #6cac3d)"/></symbol>

<symbol id="closed-m-menu" viewBox="0 0 32 32"><path fill="none" stroke="#fff" stroke-linecap="round" stroke-linejoin="round" stroke-width="1.73" d="M24 8 8 24M8 8l16 16" style="stroke:var(--color1, #fff)"/></symbol>

<symbol id="dollar-sign" viewBox="0 0 32 32"><path fill="none" stroke="#6cac3d" stroke-linecap="round" stroke-linejoin="round" stroke-width="3.765" d="M16 1.333v29.333M22.667 6.667h-10a4.667 4.667 0 0 0 0 9.334h6.667a4.667 4.667 0 0 1 0 9.334H8.001" style="stroke:var(--color3, #6cac3d)"/></symbol>

<symbol id="home" viewBox="0 0 32 32"><path fill="none" stroke="#6cac3d" stroke-linecap="round" stroke-linejoin="round" stroke-width="3.765" d="m4 12 12-9.333L28 12v14.667a2.668 2.668 0 0 1-2.667 2.667H6.666a2.668 2.668 0 0 1-2.667-2.667V12z" style="stroke:var(--color3, #6cac3d)"/><path fill="none" stroke="#6cac3d" stroke-linecap="round" stroke-linejoin="round" stroke-width="3.765" d="M12 29.333V16h8v13.333" style="stroke:var(--color3, #6cac3d)"/></symbol>

<symbol id="map-pin" viewBox="0 0 32 32"><path fill="none" stroke="#6cac3d" stroke-linecap="round" stroke-linejoin="round" stroke-width="3.765" d="M28 13.333c0 9.333-12 17.333-12 17.333s-12-8-12-17.333a12.003 12.003 0 0 1 12-12 12.003 12.003 0 0 1 12 12z" style="stroke:var(--color3, #6cac3d)"/><path fill="none" stroke="#6cac3d" stroke-linecap="round" stroke-linejoin="round" stroke-width="3.765" d="M16 17.333a4 4 0 1 0 0-8 4 4 0 0 0 0 8z" style="stroke:var(--color3, #6cac3d)"/></symbol>

<symbol id="arrow-down" viewBox="0 0 32 32"><path d="m24.391 15.057-7.057 7.057V6.666a1.333 1.333 0 0 0-2.666 0v15.448l-7.057-7.057a1.332 1.332 0 1 0-1.885 1.885l9.333 9.333a1.338 1.338 0 0 0 1.453.289c.157-.065.304-.161.432-.289l9.333-9.333a1.332 1.332 0 1 0-1.885-1.885z"/></symbol>

<symbol id="check" viewBox="0 0 32 32"><path d="m18.769 12.308-6.831 6.769-2.4-2.462c-1.292-1.354-2.892-2.646-3.508-2.831-1.415-.431-2.954.738-2.954 2.154 0 1.046 7.877 9.292 8.862 9.292 1.046 0 16.985-16.246 16.985-17.231 0-1.231-1.169-2.462-2.4-2.462-.492 0-3.938 3.015-7.754 6.769z"/></symbol>

<symbol id="radio-click" viewBox="0 0 32 32"><path fill="#f2f2f2" stroke="#2d4872" stroke-width="3.556" d="M30.222 16c0 7.855-6.367 14.222-14.222 14.222S1.778 23.855 1.778 16C1.778 8.145 8.145 1.778 16 1.778S30.222 8.145 30.222 16z" style="fill:var(--color1, #f2f2f2);stroke:var(--color2, #2d4872)"/><path fill="#2d4872" stroke="#2d4872" stroke-width="3.556" d="M23.111 16a7.111 7.111 0 1 1-14.223 0 7.111 7.111 0 0 1 14.223 0z" style="fill:var(--color2, #2d4872);stroke:var(--color2, #2d4872)"/></symbol>

<symbol id="radio" viewBox="0 0 32 32"><path fill="#f2f2f2" stroke="#2d4872" stroke-width="3.556" d="M30.222 16c0 7.855-6.367 14.222-14.222 14.222S1.778 23.855 1.778 16C1.778 8.145 8.145 1.778 16 1.778S30.222 8.145 30.222 16z" style="fill:var(--color1, #f2f2f2);stroke:var(--color2, #2d4872)"/></symbol>

<symbol id="left" viewBox="0 0 32 32"><path stroke-linecap="round" stroke-linejoin="round" stroke-width="2.667" d="m20 8-8 8 8 8"/></symbol>

<symbol id="closed" viewBox="0 0 32 32"><path fill="none" stroke="#fff" stroke-linecap="round" stroke-linejoin="round" stroke-width="1.73" d="M24 8 8 24M8 8l16 16" style="stroke:var(--color1, #fff)"/></symbol>

<symbol id="mobile-phone-black" viewBox="0 0 32 32"><path stroke-linecap="round" stroke-linejoin="round" stroke-width="1.778" d="M19.396 7.214a6.81 6.81 0 0 1 5.379 5.369l-5.379-5.369zm0-5.436c2.763.306 5.34 1.542 7.308 3.503s3.208 4.531 3.518 7.289L19.396 1.778zm9.464 21.637v4.078a2.707 2.707 0 0 1-.882 2.014 2.734 2.734 0 0 1-2.086.704 26.977 26.977 0 0 1-11.752-4.173 26.538 26.538 0 0 1-8.171-8.155A26.873 26.873 0 0 1 1.788 6.099a2.722 2.722 0 0 1 .701-2.077 2.726 2.726 0 0 1 2.009-.886h4.085a2.718 2.718 0 0 1 2.724 2.338c.172 1.305.492 2.586.953 3.819a2.71 2.71 0 0 1-.613 2.867l-1.729 1.726a21.766 21.766 0 0 0 8.171 8.155l1.729-1.726a2.726 2.726 0 0 1 2.873-.612c1.236.46 2.519.779 3.826.951a2.722 2.722 0 0 1 2.342 2.759z"/></symbol>

<symbol id="x" viewBox="0 0 32 32"><path d="M7.057 8.943 14.114 16l-7.057 7.057a1.332 1.332 0 1 0 1.885 1.885l7.057-7.057 7.057 7.057a1.332 1.332 0 1 0 1.885-1.885L17.884 16l7.057-7.057a1.332 1.332 0 1 0-1.885-1.885l-7.057 7.057-7.057-7.057a1.332 1.332 0 1 0-1.885 1.885z"/></symbol>

<symbol id="corner-right-down" viewBox="0 0 32 32"><path d="M5.333 6.667h9.333c1.105 0 2.103.447 2.828 1.172s1.172 1.723 1.172 2.828v12.781l-4.391-4.391a1.332 1.332 0 1 0-1.885 1.885l6.667 6.667a1.338 1.338 0 0 0 1.453.289c.157-.065.304-.161.432-.289l6.667-6.667a1.332 1.332 0 1 0-1.885-1.885l-4.391 4.391V10.667c0-1.84-.748-3.509-1.952-4.715S16.506 4 14.666 4H5.333a1.333 1.333 0 0 0 0 2.666z"/></symbol>

<symbol id="facebook" viewBox="0 0 32 32"><path d="M22.667 4v2.667H20c-.736 0-1.404.3-1.885.781s-.781 1.149-.781 1.885v4c0 .736.597 1.333 1.333 1.333h3.625l-.667 2.667h-2.959c-.736 0-1.333.597-1.333 1.333v9.333h-2.667v-9.333c0-.736-.597-1.333-1.333-1.333h-2.667v-2.667h2.667c.736 0 1.333-.597 1.333-1.333v-4c0-1.473.596-2.804 1.563-3.771S18.526 3.999 20 3.999zM24 1.333h-4c-2.209 0-4.211.897-5.657 2.343S12 7.124 12 9.333V12H9.333C8.597 12 8 12.597 8 13.333v5.333c0 .736.597 1.333 1.333 1.333H12v9.333c0 .736.597 1.333 1.333 1.333h5.333c.736 0 1.333-.597 1.333-1.333v-9.333h2.667c.621 0 1.144-.425 1.293-1.009l1.333-5.333A1.333 1.333 0 0 0 23.998 12h-4V9.333h4c.736 0 1.333-.597 1.333-1.333V2.667c0-.736-.597-1.333-1.333-1.333z"/></symbol>

<symbol id="instagram" viewBox="0 0 32 32"><path d="M9.333 1.333c-2.209 0-4.211.897-5.657 2.343S1.333 7.124 1.333 9.333v13.333c0 2.209.897 4.211 2.343 5.657s3.448 2.343 5.657 2.343h13.333c2.209 0 4.211-.897 5.657-2.343s2.343-3.448 2.343-5.657V9.333c0-2.209-.897-4.211-2.343-5.657s-3.448-2.343-5.657-2.343zm0 2.667h13.333c1.473 0 2.804.596 3.771 1.563S28 7.86 28 9.334v13.333c0 1.473-.596 2.804-1.563 3.771s-2.297 1.563-3.771 1.563H9.333c-1.473 0-2.804-.596-3.771-1.563s-1.563-2.297-1.563-3.771V9.334c0-1.473.596-2.804 1.563-3.771S7.859 4 9.333 4zm13.319 10.964a6.738 6.738 0 0 0-1.592-3.423 6.616 6.616 0 0 0-4.012-2.192 6.526 6.526 0 0 0-1.969-.003c-1.821.269-3.361 1.255-4.376 2.623s-1.511 3.129-1.24 4.949 1.255 3.361 2.623 4.376 3.129 1.511 4.949 1.24 3.361-1.255 4.376-2.623 1.511-3.129 1.24-4.949zm-2.637.392c.163 1.093-.133 2.145-.744 2.969s-1.533 1.412-2.625 1.573-2.145-.133-2.969-.744-1.412-1.533-1.573-2.625.133-2.145.744-2.969 1.533-1.412 2.625-1.573a3.97 3.97 0 0 1 3.584 1.312c.5.571.84 1.284.96 2.057zM23.333 10a1.333 1.333 0 1 0 0-2.667 1.333 1.333 0 0 0 0 2.667z"/></symbol>

<symbol id="linkedin" viewBox="0 0 32 32"><path d="M21.333 9.333c-2.577 0-4.912 1.047-6.6 2.733S12 16.089 12 18.666v9.333c0 .736.597 1.333 1.333 1.333h5.333c.736 0 1.333-.597 1.333-1.333v-9.333c0-.368.148-.7.391-.943s.575-.391.943-.391.7.148.943.391.391.575.391.943v9.333c0 .736.597 1.333 1.333 1.333h5.333c.736 0 1.333-.597 1.333-1.333v-9.333c0-2.577-1.047-4.912-2.733-6.6s-4.023-2.733-6.6-2.733zm0 2.667c1.841 0 3.507.745 4.715 1.952S28 16.825 28 18.667v8h-2.667v-8a3.998 3.998 0 1 0-8 0v8h-2.667v-8c0-1.841.745-3.507 1.952-4.715S19.491 12 21.333 12zM2.667 10.667c-.736 0-1.333.597-1.333 1.333v16c0 .736.597 1.333 1.333 1.333H8c.736 0 1.333-.597 1.333-1.333V12c0-.736-.597-1.333-1.333-1.333zM4 13.333h2.667v13.333H4zm5.333-8a3.998 3.998 0 1 0-8 0 3.998 3.998 0 1 0 8 0zm-2.666 0c0 .368-.148.7-.391.943s-.575.391-.943.391-.7-.148-.943-.391-.391-.575-.391-.943.148-.7.391-.943.575-.391.943-.391.7.148.943.391.391.575.391.943z"/></symbol>

<symbol id="twitter" viewBox="0 0 32 32"><path d="M27.777 7.016a8.91 8.91 0 0 1-.821.928 1.33 1.33 0 0 0-.371 1.211c.049.243.08.539.081.845 0 7.008-3.239 11.961-7.747 14.531-3.529 2.012-7.917 2.607-12.296 1.493a16.915 16.915 0 0 0 4.791-2.253 1.333 1.333 0 0 0-.208-2.321c-3.699-1.644-5.507-3.908-6.359-6.124-.556-1.445-.728-2.931-.693-4.303.028-1.081.184-2.08.371-2.909.525.457 1.071.941 1.647 1.384a15.45 15.45 0 0 0 9.86 3.209 1.335 1.335 0 0 0 1.301-1.333v-1.348a4.615 4.615 0 0 1 1.594-3.566c.967-.841 2.181-1.211 3.368-1.128s2.337.617 3.179 1.584c.336.381.865.555 1.377.405.308-.089.617-.191.927-.304zm2.122-4.105a13.198 13.198 0 0 1-3.049 1.607 7.291 7.291 0 0 0-4.368-1.847 7.29 7.29 0 0 0-5.303 1.776 7.285 7.285 0 0 0-2.44 4.496 7.6 7.6 0 0 0-.072 1.067A12.778 12.778 0 0 1 7.8 7.383a13.182 13.182 0 0 1-2.712-2.821 1.333 1.333 0 0 0-2.306.229s-.176.399-.38 1.013a18.238 18.238 0 0 0-.476 1.72 17.66 17.66 0 0 0-.435 3.428c-.041 1.636.16 3.483.869 5.328.911 2.367 2.621 4.637 5.529 6.431A14.007 14.007 0 0 1 1.392 24a1.333 1.333 0 0 0-.707 2.497c6.54 3.633 13.901 3.571 19.555.348 5.387-3.068 9.092-8.933 9.092-16.845a7.285 7.285 0 0 0-.031-.652 11.502 11.502 0 0 0 2.661-5.041 1.334 1.334 0 0 0-2.067-1.396z"/></symbol>

<symbol id="arrow-up" viewBox="0 0 32 32">
<title>arrow-up</title>
<path d="M7.609 16.943l7.057-7.057v15.448c0 0.736 0.597 1.333 1.333 1.333s1.333-0.597 1.333-1.333v-15.448l7.057 7.057c0.521 0.521 1.365 0.521 1.885 0s0.521-1.365 0-1.885l-9.333-9.333c-0.123-0.123-0.269-0.221-0.432-0.289s-0.337-0.101-0.511-0.101c-0.341 0-0.683 0.131-0.943 0.391l-9.333 9.333c-0.521 0.521-0.521 1.365 0 1.885s1.365 0.521 1.885 0z"></path>
</symbol></defs></svg>