<svg xmlns="http://www.w3.org/2000/svg" aria-hidden="true" style="position:absolute;width:0;height:0;overflow:hidden"><defs>
<symbol id="GroupA" viewBox="0 0 32 32"><path d="M25.12 3.333c-.453.373-.88 1.04-.987 1.467-.16.72-.267.773-1.547.853-1.227.08-1.387.16-1.467.693-.133.933.667 1.653 1.813 1.653h.987l.187 1.573c.133 1.253.347 1.787.96 2.427.8.853 1.04 1.6.533 1.6-.133 0-.267.293-.267.64 0 .427-.187.72-.533.827-.293.08-.773.48-1.067.853-.48.613-.533 1.067-.533 3.973v3.307h-1.013c-.56 0-1.253.187-1.547.4-.267.213-.88.4-1.333.4-1.04 0-1.547.56-1.28 1.387.267.907.56 1.013 2.987 1.013H23.2v2.933H32v-3.227c0-2.907-.053-3.2-.453-3.12-.427.08-.48.453-.56 2.827l-.08 2.72H24v-2.133h1.84c2.347 0 3.173-.587 3.413-2.4.107-.667.347-1.333.56-1.493.293-.213.373-.907.293-3.387-.053-1.707-.027-3.12.08-3.12.4 0 .613.747.747 2.533.107 1.413.24 1.867.533 1.867s.427-.4.48-1.627c.107-2-.24-2.933-1.28-3.52-.427-.24-.8-.667-.8-.907s-.107-.533-.267-.613c-.48-.293-.293-.987.533-1.92.667-.747.8-1.12.8-2.32 0-1.04.107-1.467.4-1.6.88-.32.187-3.573-.987-4.56-.667-.56-1.067-.667-2.613-.667-1.573 0-1.947.107-2.613.667zm4.587.694c.373.293.693.773.693 1.067 0 .453-.213.507-2.667.507-2.96 0-3.253-.213-2-1.467.853-.88 2.933-.933 3.973-.107zm-1.094 2.826a60.9 60.9 0 0 1-4.4 0c-1.227-.027-.24-.08 2.187-.08s3.413.053 2.213.08zm1.44 1.574c.08.213.053.907-.08 1.493-.693 3.227-4.907 2.613-4.907-.72V8h2.4c1.947 0 2.453.08 2.587.427zm-1.786 4.906c0 .133-.293.267-.667.267s-.667-.133-.667-.267c0-.16.293-.267.667-.267s.667.107.667.267zm.533 1.6c0 .133-.587.267-1.333.267-.72 0-1.333-.133-1.333-.267 0-.16.613-.267 1.333-.267.747 0 1.333.107 1.333.267zm-3.467 4.4c0 2.773.053 3.333.4 3.333.213 0 .4.107.4.267 0 .133-.48.267-1.067.267h-1.067v-3.013c0-2.293.107-3.147.427-3.6.213-.32.507-.587.667-.587.133 0 .24 1.413.24 3.333zm3.414-2.746c.213.213.32 1.2.32 2.667v2.347h-2.933v-2.347c0-2.613.187-2.987 1.467-2.987.453 0 .96.133 1.147.32zm-.48 7.093c0 .56-.133 1.147-.32 1.333-.24.24-1.6.32-4.72.267-2.453 0-4-.08-3.493-.133.507-.08 1.12-.293 1.333-.48.293-.267 1.307-.4 3.2-.453l2.8-.08.08-.747c.053-.507.24-.72.613-.72.4 0 .507.187.507 1.013zM1.44 4.64c-.827.827-.907 1.067-.907 2.4 0 .827.107 1.707.24 1.973.16.24.32.88.427 1.413.08.533.427 1.227.8 1.573.693.64.88 1.44.4 1.733-.16.08-.267.373-.267.613s-.373.667-.8.907c-.453.24-.933.773-1.067 1.147-.16.4-.267 3.413-.267 6.827v6.107h8.8V26.4h2.213c2.4 0 2.693-.107 2.96-1.013.267-.827-.24-1.387-1.28-1.387-.453 0-1.067-.187-1.333-.4-.293-.213-.987-.4-1.52-.4H8.826l-.08-1.333c-.107-1.733-.587-1.733-.693 0l-.08 1.333H6.906c-.56 0-1.04-.133-1.04-.267 0-.16.187-.267.4-.267.347 0 .4-.56.4-3.36 0-3.627.213-4.053 1.147-2.16.533 1.067.987 1.093.987.08 0-.747-.88-1.92-1.6-2.16-.347-.107-.533-.4-.533-.827 0-.347-.107-.64-.267-.64-.507 0-.267-.747.507-1.573.587-.64.827-1.227.96-2.293.107-.8.133-1.653.027-1.893-.08-.213.027-.667.24-.987.56-.8.507-1.6-.16-2.427-.533-.667-.667-.693-3.093-.693-2.533 0-2.533 0-3.44.907zm5.6.24c.267.187.453.587.373.88-.08.4-.347.533-1.547.587-1.573.08-2.32.533-2.453 1.493-.053.453-.267.56-1.013.56-.88 0-.933-.053-1.013-.933-.08-1.147.427-2.16 1.28-2.587.88-.453 3.76-.453 4.373 0zm-.16 3.947c.053 1.28-.027 1.627-.587 2.293-.373.453-.987.88-1.333.933-1.04.213-2.267-.453-2.667-1.44-.48-1.093-.347-1.28.8-1.28.933 0 1.067-.16 1.547-1.68.133-.373.373-.48 1.147-.4l1.013.08.08 1.493zm-1.813 4.506c0 .133-.293.267-.667.267s-.667-.133-.667-.267c0-.16.293-.267.667-.267s.667.107.667.267zm.8 1.6c0 .133-.587.267-1.333.267-.72 0-1.333-.133-1.333-.267 0-.16.613-.267 1.333-.267.747 0 1.333.107 1.333.267zm-3.734 1.574c-.427.8-.347 5.813.107 6.08.187.107.427.747.507 1.413.24 1.813 1.067 2.4 3.413 2.4H8v2.133H1.067v-5.76c0-5.76.133-6.773.96-6.773.293 0 .32.107.107.507zm3.414.08c.213.213.32 1.2.32 2.667v2.347H2.934v-2.347c0-2.613.187-2.987 1.467-2.987.453 0 .96.133 1.147.32zm-.694 6.8.08.747 2.8.08c1.893.053 2.907.187 3.2.453.213.187.827.4 1.333.48.507.053-1.04.133-3.467.133-3.147.053-4.507-.027-4.747-.267-.187-.187-.32-.773-.32-1.333 0-.827.107-1.013.507-1.013.373 0 .56.213.613.72z"/><path d="M9.867 15.707c0 1.013.133 1.947.267 2.027.16.08.267 1.227.267 2.507v2.373l.827.16c1.12.213 8.987.16 9.84-.08.64-.16.667-.32.853-2.693.107-1.387.267-3.04.347-3.68.107-.613.107-1.44.027-1.813-.16-.64-.24-.667-1.973-.587-1.387.053-1.787.16-1.787.48 0 .293.373.427 1.413.48 1.333.08 1.387.107 1.387.88v.773H10.668v-1.573l2.88-.08c2.32-.053 2.853-.16 2.853-.48s-.587-.4-3.253-.48l-3.28-.08v1.867zM20.8 19.6v2h-9.253l-.187-1.413c-.08-.747-.16-1.653-.16-2V17.6h9.6v2z"/><path d="M12.453 18.32c-.107.08-.187.693-.187 1.333V20.8h1.2c1.067 0 1.2-.08 1.36-.693.293-1.12-.267-1.973-1.307-1.973-.507 0-.987.08-1.067.187zM15.387 19.093c-.107.107-.187.347-.187.56 0 .267.56.347 2.293.347 2.027 0 2.267-.053 2.187-.48-.08-.373-.427-.453-2.107-.533-1.093-.027-2.08 0-2.187.107z"/></symbol>

<symbol id="GroupC" viewBox="0 0 32 32"><path d="M5.009 1.53c-.557.557-.835 4.174-.835 11.826v10.991H2.087c-1.6 0-2.087.278-2.087 1.391 0 2.226 2.226 2.783 11.061 2.783 7.93 0 8.417.07 8.417 1.391 0 1.53 1.043 1.878 1.809.626.278-.557.626-.557 1.183 0 1.183 1.183 1.878.904 1.878-.626 0-.765.278-1.391.626-1.391s1.183-.487 1.739-1.113c.904-.904 1.113-2.991 1.113-11.826V4.869h2.087c1.53 0 2.087-.348 2.087-1.252C32 .974 30.748.695 18.087.695c-8.626 0-12.522.278-13.078.835zm21.565 11.827c-.07 6.609-.348 12.452-.487 12.87-.557 1.6-1.878.974-1.53-.696 1.322-5.565 1.252-5.983-.139-7.374-1.878-1.878-3.2-1.809-5.009 0-1.043 1.043-1.391 2.017-1.113 3.409.487 2.365-.487 2.783-7.652 2.783H5.566V13.358c0-6.052.209-11.27.487-11.478.209-.278 5.009-.487 10.574-.487h10.157l-.209 11.965zM30.47 2.643c.139.487-.417.835-1.183.835-1.461 0-1.878-.765-.974-1.67.626-.626 1.809-.139 2.157.835zm-6.54 17.183c.139.487-.139 1.461-.626 2.226-.765.974-1.252 1.113-2.157.487-1.739-1.043-1.878-2.017-.626-3.27 1.183-1.183 2.783-.904 3.409.557zm-.834 5.565c.278.348.557 1.391.557 2.157 0 1.113-.417 1.461-1.739 1.461-1.809 0-2.017-.487-1.322-3.061.417-1.6 1.6-1.809 2.504-.557zm-3.757.835c.209.696-1.878.904-8.835.904-7.722 0-9.113-.139-9.113-1.043s1.252-1.043 8.835-.904c6.261.139 8.904.487 9.113 1.043z"/><path d="M13.426 5.357c.626.139 1.739.139 2.435 0 .626-.209.07-.348-1.252-.348s-1.878.139-1.183.348zM17.948 5.357c.487.209 1.113.139 1.322-.07.278-.209-.139-.417-.904-.348-.765 0-.974.209-.417.417zM13.009 8.139c1.67.139 4.313.139 5.913 0 1.67-.139.348-.278-2.922-.278s-4.591.139-2.991.278zM8.348 11.13c0 .348.487.696 1.043.696s1.043-.348 1.043-.696c0-.417-.487-.696-1.043-.696s-1.043.278-1.043.696zM11.826 11.13c0 .417 2.435.696 5.913.696s5.913-.278 5.913-.696c0-.417-2.435-.696-5.913-.696s-5.913.278-5.913.696zM8.348 13.913c0 .348 1.252.696 2.783.696s2.783-.348 2.783-.696c0-.417-1.252-.696-2.783-.696s-2.783.278-2.783.696zM15.304 13.913c0 .417 1.878.696 4.174.696s4.174-.278 4.174-.696c0-.417-1.878-.696-4.174-.696s-4.174.278-4.174.696zM8.348 16.696c0 .417 2.226.696 5.217.696s5.217-.278 5.217-.696c0-.417-2.226-.696-5.217-.696s-5.217.278-5.217.696zM8.696 19.13c1.67.557 8.696.765 8.696.209 0-.278-2.087-.557-4.661-.487-2.643 0-4.383.139-4.035.278z"/></symbol>

<symbol id="GroupB" viewBox="0 0 32 32"><path d="M2.922.835c-.487.487-.835 2.017-.835 3.478 0 2.504.139 2.643 2.087 2.643h2.087v11.687c0 8.139.278 11.965.835 12.522 1.183 1.183 20.8 1.183 21.983 0 .487-.487.835-1.739.835-2.783 0-1.461-.348-1.948-1.391-1.948-1.322 0-1.391-.487-1.391-12.383 0-8.696-.278-12.661-.835-13.217C25.114-.349 4.106-.349 2.923.834zm3.339 2.643c0 1.6-.278 2.087-1.391 2.087s-1.391-.487-1.391-2.087.278-2.087 1.391-2.087 1.391.487 1.391 2.087zm20.035 10.574.139 12.313-15.652.417-.209 1.878c-.139 1.391-.626 1.948-1.53 1.948-1.252 0-1.322-.835-1.53-14.609L7.305 1.321l18.783.417.209 12.313zm2.226 15.165c0 1.322-.487 1.391-8.348 1.391s-8.348-.07-8.348-1.391c0-1.322.487-1.391 8.348-1.391s8.348.07 8.348 1.391z"/><path d="M13.774 2.852c-.696.348-1.252 1.391-1.252 2.226 0 1.948 2.504 6.052 3.687 6.052 1.461 0 3.757-2.922 4.174-5.426.417-1.948.209-2.365-1.322-2.922-2.226-.904-3.757-.835-5.287.07zm3.896 1.044c1.391.557 1.461 3.061.139 4.8-.765 1.113-1.183 1.183-2.017.487-1.53-1.252-2.157-4.383-1.043-5.078s1.53-.765 2.922-.209z"/><path d="M16.487 6.4c-.278.835-.278 1.67-.07 1.878.417.487 1.67-1.391 1.67-2.574 0-1.461-1.183-.904-1.6.696zM13.913 12.522c-1.322.417-.626.557 2.435.557 2.922.07 3.757-.139 2.783-.557-1.67-.696-2.922-.696-5.217 0zM8.696 15.304c-.278.417.557.696 2.017.696 1.391 0 2.504-.348 2.504-.696 0-.417-.904-.696-2.017-.696-1.183 0-2.296.278-2.504.696zM14.609 15.304c0 .417 2.226.696 5.217.696s5.217-.278 5.217-.696c0-.417-2.226-.696-5.217-.696s-5.217.278-5.217.696zM10.922 17.878c1.67.139 4.313.139 5.913 0 1.67-.139.348-.278-2.922-.278s-4.591.139-2.991.278zM21.774 17.878c.626.139 1.739.139 2.435 0 .626-.209.07-.348-1.252-.348s-1.878.139-1.183.348zM9.6 19.965c.835.139 2.087.139 2.783 0 .626-.209-.07-.348-1.6-.278-1.53 0-2.087.139-1.183.278zM17.252 19.965c1.6.139 4.104.139 5.565 0 1.391-.139.07-.278-2.991-.278s-4.243.139-2.574.278zM8.904 22.052c.487.209 1.113.139 1.322-.07.278-.209-.139-.417-.904-.348-.765 0-.974.209-.417.417zM15.165 22.052c2.017.139 5.148.139 6.957 0s.139-.209-3.687-.209c-3.826 0-5.287.07-3.27.209zM10.226 24.139c1.252.139 3.478.139 4.87 0 1.461-.139.487-.278-2.226-.278-2.643 0-3.826.139-2.643.278zM19.687 24.139c1.043.139 2.713.139 3.826 0 1.043-.139.139-.278-1.948-.278s-2.991.139-1.878.278z"/></symbol>

<symbol id="GroupV" viewBox="0 0 32 32"><path d="M25.6 5.333c-1.493.427-6.293.853-10.773.96s-9.6.64-11.52 1.28L-.106 8.746l.32 10.88.32 10.773 2.667-.32c1.493-.107 7.467-.64 13.333-1.067 5.867-.533 11.733-1.493 13.12-2.24 2.347-1.173 2.453-1.813 2.133-11.627-.32-11.093-.64-11.627-6.187-9.813zm5.333 10.027c0 8.533-.32 10.133-1.813 10.773-1.067.533-6.72 1.173-12.587 1.6-5.867.533-11.733 1.173-13.013 1.6-2.453.747-2.453.64-2.453-9.493 0-10.027.107-10.347 2.773-11.307 1.493-.64 6.613-1.067 11.413-1.173 4.8 0 9.707-.427 10.88-.96 4.587-1.92 4.8-1.493 4.8 8.96z"/><path d="M26.133 8.533c-.32.64.107.747.96.427 2.347-.96 2.24 2.667-.107 4.48-1.707 1.28-1.707 1.28.533.747 1.707-.427 2.347-1.387 2.347-3.627 0-3.093-2.347-4.267-3.733-2.027zM10.773 9.813c-.107 1.6.853 1.92 5.227 1.92s5.333-.32 5.227-1.92c0-1.067-.32-1.28-.64-.533-.213.747-2.347 1.387-4.587 1.387s-4.373-.64-4.587-1.387c-.32-.747-.64-.533-.64.533zM12.8 14.933c-.64 1.28-1.067 3.52-.853 5.12.32 2.56.747 2.88 4.053 2.88s3.733-.32 4.053-2.88c.747-6.187-4.693-9.92-7.253-5.12zm6.187 3.947c.32 2.133-.107 2.453-2.88 2.453-3.413 0-3.84-.64-2.667-3.733 1.067-2.56 5.12-1.6 5.547 1.28zM26.88 15.893c-1.173.64-1.067 1.067.427 1.6.96.32 2.027.427 2.347.107s-.107-.533-.96-.533c-1.173 0-1.173-.213.107-1.067.853-.533 1.173-1.067.533-1.067-.533 0-1.707.427-2.453.96zM2.453 18.667c0 .747.853 1.067 2.027.747 2.453-.64 2.453-.853 0-1.493-1.173-.32-2.027 0-2.027.747zM3.52 21.013c-1.387.427-2.027 6.72-.747 6.72 2.133 0 4.693-2.56 4.693-4.8 0-2.56-1.173-3.093-3.947-1.92zM6.4 23.36c0 1.067-.747 2.24-1.6 2.667-1.6.533-2.347-2.56-.853-3.947 1.28-1.387 2.453-.747 2.453 1.28zM13.12 26.347c.96.213 2.453.213 3.2 0 .64-.32-.107-.533-1.92-.533-1.707 0-2.347.213-1.28.533z"/></symbol>

<symbol id="GroupN" viewBox="0 0 32 32"><path d="M24.853 3.2c-2.133 2.133-3.84 2.987-5.12 2.56-1.173-.533-3.2.64-6.187 3.627-2.773 2.667-6.293 4.8-8.96 5.547l-4.587 1.173v5.227c0 5.013.107 5.227 5.013 8l5.013 2.773 10.987-3.52 10.987-3.413v-5.12c0-3.627-.533-5.333-1.6-5.76-.853-.427-1.6-1.493-1.6-2.453 0-1.067-1.28-2.453-2.773-3.2-3.2-1.387-2.773-2.24 2.027-3.84 1.92-.533 3.413-1.813 3.413-2.667 0-2.773-3.2-2.24-6.613 1.067zm5.44-1.173c.32.533-.32 1.173-1.6 1.493-1.707.427-1.92.32-.853-.96 1.387-1.707 1.707-1.813 2.453-.533zm-8.96 6.08c0 .213-1.493 1.173-3.307 2.027-1.813.96-2.987 2.027-2.667 2.347s2.133-.32 4.053-1.493c2.773-1.6 4.16-1.813 5.973-1.067 1.28.64 2.347 1.387 2.347 1.707 0 .427-4.053 1.707-9.067 2.987-9.813 2.347-9.92 2.24-4.053-4.373 2.24-2.347 4.16-3.52 5.12-3.2.853.427 1.6.853 1.6 1.067zM28.8 14.72c0 .427-4.16 2.027-9.28 3.627-8.533 2.56-9.493 2.667-12.373 1.173-1.707-.853-3.307-1.28-3.627-.96-.32.213.853 1.173 2.56 2.133 2.667 1.28 3.093 2.133 2.667 4.8-.533 3.84-.427 3.84-4.48 1.707-2.56-1.28-3.2-2.347-3.2-5.013 0-1.92.747-3.84 1.92-4.693 2.133-1.707 4.907-1.92 3.947-.427-.32.533 0 1.067.96 1.067.853 0 2.347.32 3.413.747 1.387.533 1.6.32.96-.747s-.32-1.28 1.387-.853c1.28.427 2.347.213 2.347-.427 0-.533.853-.853 1.92-.747.96.107 2.987-.32 4.48-.96 3.2-1.387 6.4-1.6 6.4-.427zm2.133 5.44v4.053L22.72 26.56c-4.587 1.387-9.173 2.667-10.133 2.987-1.6.32-1.92-.213-1.92-3.307v-3.733l9.92-3.2c5.333-1.707 9.92-3.2 10.133-3.2.107-.107.213 1.707.213 4.053z"/></symbol>

<symbol id="mobile-phone" viewBox="0 0 32 32"><path fill="none" stroke="#fff" stroke-linecap="round" stroke-linejoin="round" stroke-width="1.454" d="M19.473 7.015c1.36.265 2.61.929 3.591 1.907s1.645 2.226 1.911 3.584l-5.501-5.491zm0-5.56c2.826.313 5.462 1.577 7.474 3.582s3.281 4.634 3.598 7.455L19.473 1.455zm9.68 22.129v4.17a2.776 2.776 0 0 1-1.893 2.645c-.367.124-.757.17-1.143.135a27.597 27.597 0 0 1-12.019-4.267 27.132 27.132 0 0 1-8.356-8.34A27.48 27.48 0 0 1 1.466 5.875a2.782 2.782 0 0 1 2.772-3.031h4.178a2.788 2.788 0 0 1 2.786 2.391c.176 1.335.503 2.645.975 3.906a2.78 2.78 0 0 1-.627 2.933l-1.769 1.765a22.263 22.263 0 0 0 8.356 8.34l1.769-1.765a2.788 2.788 0 0 1 2.939-.625 17.89 17.89 0 0 0 3.913.973 2.782 2.782 0 0 1 2.395 2.822z" style="stroke:var(--color1, #fff)"/></symbol>

<symbol id="mobile-menu" viewBox="0 0 56 32"><path fill="#2d4872" d="M1.6 0h52.8A1.6 1.6 0 0 1 56 1.6v3.2a1.6 1.6 0 0 1-1.6 1.6H1.6A1.6 1.6 0 0 1 0 4.8V1.6A1.6 1.6 0 0 1 1.6 0zM1.6 12.8h52.8a1.6 1.6 0 0 1 1.6 1.6v3.2a1.6 1.6 0 0 1-1.6 1.6H1.6A1.6 1.6 0 0 1 0 17.6v-3.2a1.6 1.6 0 0 1 1.6-1.6zM1.6 25.6h52.8a1.6 1.6 0 0 1 1.6 1.6v3.2a1.6 1.6 0 0 1-1.6 1.6H1.6A1.6 1.6 0 0 1 0 30.4v-3.2a1.6 1.6 0 0 1 1.6-1.6z" style="fill:var(--color2, #2d4872)"/></symbol>

<symbol id="grid" viewBox="0 0 32 32"><path fill="none" stroke="#6cac3d" stroke-linecap="round" stroke-linejoin="round" stroke-width="3.765" d="M13.333 4H4v9.333h9.333V4zM28 4h-9.333v9.333H28V4zM28 18.667h-9.333V28H28v-9.333zM13.333 18.667H4V28h9.333v-9.333z" style="stroke:var(--color3, #6cac3d)"/></symbol>

<symbol id="file-text" viewBox="0 0 32 32"><path fill="none" stroke="#6cac3d" stroke-linecap="round" stroke-linejoin="round" stroke-width="3.765" d="M18.667 2.667H8a2.668 2.668 0 0 0-2.667 2.667v21.333A2.668 2.668 0 0 0 8 29.334h16a2.668 2.668 0 0 0 2.667-2.667v-16l-8-8z" style="stroke:var(--color3, #6cac3d)"/><path fill="none" stroke="#6cac3d" stroke-linecap="round" stroke-linejoin="round" stroke-width="3.765" d="M18.667 2.667v8h8M21.333 17.333H10.666M21.333 22.667H10.666M13.333 12h-2.667" style="stroke:var(--color3, #6cac3d)"/></symbol>

<symbol id="handshake" viewBox="0 0 32 32"><path d="M22.507 3.36c-.907.96-2.133 1.76-2.613 1.813-8.907.907-8.853.907-10.507-.853C8.48 3.413 7.52 2.667 7.2 2.667c-.8 0-7.2 6.56-7.2 7.36 0 .32.8 1.547 1.76 2.613C4 15.147 4.48 16.8 3.413 18.453c-.64.907-.693 1.44-.213 2.293.32.64.907 1.12 1.28 1.12s.96.587 1.28 1.333c.32.747.96 1.333 1.333 1.333.427 0 1.013.587 1.333 1.333s.96 1.333 1.333 1.333c.427 0 1.013.587 1.333 1.333.693 1.44 3.093 1.867 4.267.693.48-.48.8-.48 1.28 0 1.173 1.173 3.573.747 4.267-.693.32-.747.907-1.333 1.333-1.333.373 0 .96-.587 1.227-1.333s.853-1.333 1.333-1.333c.427 0 1.12-.587 1.44-1.333s.907-1.333 1.28-1.333.96-.48 1.28-1.12c.48-.853.427-1.387-.16-2.293-.533-.8-.64-1.493-.32-1.973.267-.427.48-1.387.48-2.133 0-.8.64-1.973 1.6-2.88.907-.853 1.6-1.92 1.6-2.4 0-.907-6.347-7.467-7.253-7.467-.267 0-1.28.8-2.24 1.76zm7.84 5.813c.053 1.653-1.12 1.653-2.613-.053-.8-.907-1.76-1.653-2.08-1.653-1.173 0-.587 1.547 1.12 2.827 1.44 1.173 1.6 1.493 1.013 2.187-.373.427-.533 1.067-.32 1.387.16.267.16 1.067 0 1.653-.373 1.067-.64.907-3.413-1.867-3.52-3.52-5.44-3.893-8.373-1.653-3.787 2.88-4 .533-.267-3.147 2.24-2.24 2.827-2.507 4.16-2.24 1.28.32 1.813.053 3.307-1.493l1.813-1.867 2.827 2.507c1.547 1.387 2.827 2.933 2.827 3.413zM9.333 5.867c1.333 1.387 1.76 1.547 3.68 1.227l2.133-.32-1.973 2.293c-2.133 2.56-2.24 2.773-1.44 4.32.8 1.493 3.253 1.333 4.8-.32 2.027-2.133 3.413-1.76 7.52 2.24 2.027 1.92 3.68 3.84 3.68 4.267 0 1.547-1.653 1.333-3.467-.373-.96-.907-1.867-1.493-2.08-1.173-.16.267.427 1.173 1.28 1.973 1.76 1.707 2.027 2.827.747 3.307-.48.16-1.493-.32-2.56-1.387-2.24-2.187-2.987-1.44-.8.8 1.707 1.76 1.813 3.413.32 3.413-.427 0-3.36-2.667-6.613-5.867-3.253-3.253-6.24-5.867-6.667-5.867-.48 0-1.12.373-1.493.8-.8.96-1.6.587-1.6-.747 0-.533-.373-1.28-.8-1.653-.747-.64-.64-.907.853-2.453C7.093 8 6.4 7.254 4.106 9.494c-1.387 1.333-1.92 1.547-2.4 1.067-.533-.533-.053-1.28 2.133-3.467 1.547-1.547 3.04-2.827 3.36-2.827s1.28.693 2.133 1.6zM9.067 16.96c0 1.067-2.613 3.84-3.627 3.84-1.387 0-1.28-1.707.213-3.253 1.653-1.76 3.413-2.08 3.413-.587zm2.666 2.667c0 1.067-2.613 3.84-3.627 3.84-1.387 0-1.28-1.707.213-3.253 1.653-1.76 3.413-2.08 3.413-.587zm2.667 2.666c0 1.227-2.667 3.84-3.893 3.84-1.333 0-1.12-1.6.533-3.307s3.36-1.973 3.36-.533zm2.56 2.454c.213 1.067-2.347 4.053-3.467 4.053-1.547 0-1.333-1.707.427-3.52 1.867-1.92 2.773-2.08 3.04-.533zm2.773 2.826c0 .96-1.493 1.547-2.187.853-.853-.853.587-2.933 1.493-2.187.373.32.693.907.693 1.333z"/><path d="M23.467 6.4c0 .267.267.533.533.533.32 0 .533-.267.533-.533 0-.32-.213-.533-.533-.533a.534.534 0 0 0-.533.533zM6.933 6.933c0 .267.267.533.533.533.32 0 .533-.267.533-.533 0-.32-.213-.533-.533-.533a.534.534 0 0 0-.533.533z"/></symbol>

<symbol id="note" viewBox="0 0 32 32"><path d="M8.907.96C8.374 1.493 8 2.347 8 2.827c0 .533-.427.907-1.013.907s-1.227.213-1.387.533c-.16.267-1.067.533-1.92.533-.907 0-2.08.267-2.667.533C.053 5.866 0 6.613 0 18.293c0 8.96.16 12.587.64 13.067.693.693 18.72.96 20.373.32.747-.267.853-1.92.853-12.96 0-9.12-.16-12.8-.64-13.28-.373-.373-1.547-.64-2.613-.64-1.12 0-2.187-.267-2.347-.533-.16-.32-.8-.533-1.387-.533-.64 0-1.013-.373-1.013-1.013 0-2.453-3.307-3.573-4.96-1.76zM12.8 3.467c0 1.067.267 1.333 1.28 1.333 1.173 0 1.92.853 1.92 2.187 0 .267-2.187.48-4.853.48-4.693 0-4.8-.053-4.64-1.227.107-.853.587-1.227 1.653-1.333 1.227-.16 1.387-.373 1.12-1.44-.213-.853 0-1.387.64-1.76 1.387-.747 2.88.16 2.88 1.76zm-8 3.466c0 .267-.48.533-1.067.533-1.013 0-1.067.373-1.067 10.88v10.827l8.053.373c4.64.267 8.267.213 8.533-.053s.427-5.28.373-11.147c-.16-10.56-.16-10.613-1.333-10.773-1.92-.267-1.44-1.173.64-1.173h1.867l-.107 12-.16 12.053-19.2.213-.16-11.467c-.053-6.293 0-11.733.107-12.107.32-.8 3.52-.96 3.52-.16zm13.333 8.8v7.2h-4.8v5.333h-9.6V8.533h14.4v7.2zm-1.066 8.96c0 .107-.48.64-1.067 1.173-1.013.96-1.067.907-1.067-.16 0-.8.32-1.173 1.067-1.173.587 0 1.067.107 1.067.16zm1.066 2.507c0 .747-.373 1.067-1.173 1.067-1.067 0-1.12-.053-.16-1.067.533-.587 1.067-1.067 1.173-1.067.053 0 .16.48.16 1.067z"/><path d="M10.667 3.2c0 .267.267.533.533.533.32 0 .533-.267.533-.533 0-.32-.213-.533-.533-.533a.534.534 0 0 0-.533.533zM6.4 12.267c0 .267.267.533.533.533.32 0 .533-.267.533-.533 0-.32-.213-.533-.533-.533a.534.534 0 0 0-.533.533zM9.067 12.267c0 .32 1.44.533 3.2.533s3.2-.213 3.2-.533c0-.32-1.44-.533-3.2-.533s-3.2.213-3.2.533zM9.76 15.893c-5.013.213-4.053 1.173 1.173 1.173 2.507 0 4.533-.213 4.533-.48 0-.64-1.867-.853-5.707-.693zM6.507 18.773c.16.48 1.707.747 4.587.853 3.627.107 4.373 0 4.373-.693 0-.64-.8-.8-4.587-.8-3.413 0-4.533.16-4.373.64zM6.4 21.333c0 .48 1.6.64 7.84.747.747.053 1.493-.267 1.653-.64.16-.48-1.013-.64-4.64-.64-2.88 0-4.853.213-4.853.533zM25.813 3.467c-.907.64-1.013 1.653-1.173 11.893-.213 10.827-.16 11.307 1.013 13.92C26.346 30.773 27.04 32 27.2 32s.64-.907 1.013-2.027c.533-1.28.853-4.907.96-10.667.16-7.093.373-8.64.96-8.64s.8.747.8 2.933c0 1.707.213 2.933.533 2.933.373 0 .533-1.28.427-3.36-.16-2.827-.32-3.36-1.333-3.84-.853-.373-1.227-1.12-1.493-3.04-.427-2.987-1.653-4.053-3.253-2.827zm1.92 1.333c0 .267-.373.533-.853.533-.427 0-.64-.267-.48-.533.16-.32.533-.533.853-.533.267 0 .48.213.48.533zm.534 3.253c0 .747-.373 1.013-1.333 1.013-1.387 0-1.76-.96-.747-1.973.853-.853 2.08-.267 2.08.96zm0 9.28v7.2H25.6v-6.827c0-3.787.16-7.04.373-7.2.16-.213.8-.373 1.333-.373.907 0 .96.587.96 7.2zm0 8.48c0 .16-.267.907-.587 1.76-.427 1.173-.64 1.28-1.013.693-.907-1.387-.587-2.667.533-2.667.587 0 1.067.107 1.067.213z"/></symbol>

<symbol id="worker" viewBox="0 0 30 32"><path d="M12 .75c-1.85.95-3.7 5-3.9 8.35-.1 1.4.1 2 .9 2.4.55.3 1 1 1 1.55s.35 1.55.8 2.2c.85 1.25.6 2.25-.55 2.25-.35 0-1.65.45-2.9.95-1.7.75-2.35 1.35-2.95 2.9-1.05 2.5-1.7 8.4-.95 7.95.3-.2.55-1 .55-1.8 0-2.65 1.05-6.4 2.05-7.3.9-.85.95-.8.95.95 0 1-.2 1.95-.5 2.1S6 25 6 26.8V30h18v-3.2c0-1.8-.2-3.4-.5-3.55-.25-.15-.5-1.1-.5-2.1 0-1.75.05-1.8.95-.95 1 .9 2.05 4.65 2.05 7.3 0 .8.25 1.6.55 1.8.75.45.15-4.85-.85-7.65-.6-1.65-1.2-2.25-2.95-3.1-1.25-.6-2.6-1.05-3-1.05-1.15 0-1.5-1.4-.55-2.45.45-.5.8-1.35.8-1.95s.45-1.3 1-1.6c.75-.4.95-.95.85-2.5-.05-1.05-.3-2.1-.5-2.3S21 6 21 5.6c0-1.45-1.7-4.15-3.05-4.85-1.75-.95-4.3-.95-5.95 0zm2.5 1.8c0 .85-.2 1.4-.5 1.2-.25-.15-.5-.85-.5-1.55 0-.65.25-1.2.5-1.2.3 0 .5.7.5 1.55zm2.4-.2c-.2 1.95-1.4 2.1-1.4.2 0-1.05.25-1.55.8-1.55s.7.4.6 1.35zM13.8 4.6c1.5.7 3.55-.1 4.15-1.7l.4-1.05.8 1.2c.45.65.85 1.65.85 2.2 0 .6.3 1.35.6 1.65 1.1 1.1-.55 1.6-5.6 1.6S8.3 8 9.4 6.9c.3-.3.6-1.1.6-1.7s.5-1.7 1.15-2.5l1.1-1.45.15 1.4c.1.9.6 1.6 1.4 1.95zm-4.2 6c-.45.45-.6.35-.6-.6s.15-1.05.6-.6c.45.45.45.75 0 1.2zm11.4-.5c0 .8-.15.95-.55.55-.3-.3-.4-.8-.25-1.1.55-.85.8-.65.8.55zm-1.5 1.35c0 1.2-.4 2.4-1.05 3.25-.85 1.1-1.4 1.3-3.45 1.3s-2.6-.2-3.45-1.3c-.65-.85-1.05-2.05-1.05-3.25V9.5h9v1.95zm-2 5.55c0 .15-.55.9-1.25 1.75L15 20.25l-1.25-1.5c-.7-.85-1.25-1.6-1.25-1.75s1.15-.25 2.5-.25c1.4 0 2.5.1 2.5.25zm-4.05 2.75c.65.95 1.3 1.75 1.5 1.75.15 0 .85-.8 1.55-1.75 1.85-2.55 3.2-2.2 3.4.85l.15 2.4H10v-2.15c0-3.45 1.5-3.95 3.45-1.1zM9.5 21.5V24h11v-2.5c0-1.9.2-2.5.75-2.5s.75.6.75 2.2c0 1.3.3 2.4.75 2.8s.75 1.5.75 2.8V29h-17v-2.2c0-1.3.3-2.4.75-2.8S8 22.5 8 21.2c0-1.6.2-2.2.75-2.2s.75.6.75 2.5z"/><path d="M7.5 25c0 .25.45.5 1 .5s1-.25 1-.5c0-.3-.45-.5-1-.5s-1 .2-1 .5zM20.5 25c0 .25.45.5 1 .5s1-.25 1-.5c0-.3-.45-.5-1-.5s-1 .2-1 .5z"/></symbol>

<symbol id="guarantee" viewBox="0 0 32 32"><path d="M5.12 1.387c-.747.693-.853 2.507-.853 11.733V24H2.134c-1.92 0-2.133.16-2.133 1.28 0 2.72.907 2.987 10.453 2.987h8.747v1.6c0 1.813.107 1.867 1.6.96.853-.533 1.28-.533 2.133 0 1.493.907 1.6.853 1.6-.96 0-1.013.267-1.6.747-1.6.427 0 1.173-.373 1.6-.853.747-.693.853-2.507.853-11.733V4.801h2.133c1.92 0 2.133-.16 2.133-1.28C32 .694 31.36.534 18.133.534c-10.347 0-12.32.107-13.013.853zM26.667 14.24c-.267 11.52-.373 12.693-1.173 12.853-1.12.213-1.28-1.6-.373-4.64.8-2.613-.053-4.64-2.08-5.067-3.467-.8-5.707 1.813-4.427 5.173l.587 1.44H5.334V13.172c0-5.973.16-11.04.373-11.2.16-.213 5.013-.373 10.773-.373h10.453l-.267 12.64zm4.16-11.467c.16.747-.16.96-1.44.96-1.547 0-2.187-.907-1.28-1.813.693-.693 2.56-.053 2.72.853zm-7.414 16.96 1.227 1.013-1.333 1.333c-1.333 1.333-1.333 1.333-2.453.267-1.333-1.28-1.387-1.76-.267-2.827 1.067-1.12 1.387-1.067 2.827.213zm.054 7.414c0 2.453-.107 2.773-.8 2.187-.64-.533-.96-.533-1.6 0-.693.587-.8.267-.8-2.187 0-2.827 0-2.88 1.6-2.88s1.6.053 1.6 2.88zM19.2 26.133c0 1.013-.373 1.067-8.8 1.067-4.853 0-8.8-.107-8.8-.213s-.16-.587-.32-1.067c-.267-.747.693-.853 8.8-.853 8.747 0 9.12.053 9.12 1.067z"/><path d="M12.267 5.333c0 .267.96.533 2.133.533s2.133-.267 2.133-.533c0-.32-.96-.533-2.133-.533s-2.133.213-2.133.533zM17.6 5.333c0 .267.48.533 1.067.533s1.067-.267 1.067-.533c0-.32-.48-.533-1.067-.533s-1.067.213-1.067.533zM10.667 8c0 .32 2.133.533 5.333.533S21.333 8.32 21.333 8c0-.32-2.133-.533-5.333-.533s-5.333.213-5.333.533zM8 11.2c0 .267.587.533 1.333.533s1.333-.267 1.333-.533c0-.32-.587-.533-1.333-.533S8 10.88 8 11.2zM11.733 11.2c0 .32 2.4.533 6.133.533s6.133-.213 6.133-.533c0-.32-2.4-.533-6.133-.533s-6.133.213-6.133.533zM8 13.867c0 .267 1.333.533 2.933.533s2.933-.267 2.933-.533c0-.32-1.333-.533-2.933-.533S8 13.547 8 13.867zM14.933 13.867c0 .32 1.867.533 4.533.533s4.533-.213 4.533-.533c0-.32-1.867-.533-4.533-.533s-4.533.213-4.533.533zM8 16.533c0 .32 2.133.533 5.333.533s5.333-.213 5.333-.533c0-.32-2.133-.533-5.333-.533S8 16.213 8 16.533zM8 19.2c0 .32 1.867.533 4.533.533s4.533-.213 4.533-.533c0-.32-1.867-.533-4.533-.533S8 18.88 8 19.2z"/></symbol>

<symbol id="control" viewBox="0 0 32 32"><path d="M.487.417C.209.695 0 2.156 0 3.687 0 5.774.278 6.47 1.322 6.748c.974.209 1.391 1.183 1.67 4.035 1.113 10.991 10.226 16.209 19.757 11.27 3.757-1.948 6.47-7.235 6.47-12.73 0-1.67.348-2.296 1.461-2.574 1.183-.348 1.391-.835 1.183-3.409L31.654.349 16.28.14C7.863.07.767.21.489.418zm29.426 3.409v1.739H2.087V2.087h27.826v1.739zm-2.783 6.261c0 4.035-2.157 8.348-5.078 10.087-3.2 2.017-9.252 1.878-12.313-.209s-4.87-5.635-4.87-9.67V6.956H27.13v3.13z"/><path d="M11.965 10.643c-3.478 3.687-.904 9.53 4.104 9.53 3.27 0 5.496-2.365 5.496-5.635 0-4.939-6.261-7.443-9.6-3.896zm6.4 1.6c2.157 2.087.626 5.843-2.365 5.843-1.67 0-3.478-1.809-3.478-3.478 0-.696.487-1.809 1.113-2.365.557-.626 1.67-1.113 2.365-1.113s1.809.487 2.365 1.113z"/><path d="M14.887 13.983c-.696 1.183.904 2.504 1.878 1.53.835-.835.278-2.296-.765-2.296-.348 0-.835.348-1.113.765zM.278 22.539c-.209.557.278 2.226 1.043 3.687 1.6 3.2 7.096 6.678 8.487 5.287.557-.557-.07-1.113-2.435-2.226-2.643-1.113-3.548-2.017-4.661-4.591C1.251 21.357.834 21.009.277 22.539z"/><path d="M4.174 22.957c0 1.878 2.991 4.87 4.87 4.87 1.948 0 1.739-.974-.348-1.948-.974-.487-2.087-1.6-2.574-2.574-.974-2.087-1.948-2.296-1.948-.348zM25.878 23.304c-.487.974-1.6 2.087-2.574 2.574-2.087.974-2.296 1.948-.348 1.948 1.878 0 4.87-2.991 4.87-4.87 0-1.948-.974-1.739-1.948.348z"/><path d="M29.287 24.626c-1.113 2.643-2.017 3.548-4.661 4.661-2.365 1.043-2.991 1.67-2.435 2.226s1.6.348 3.757-.696c3.478-1.67 7.026-7.165 5.565-8.626-.557-.557-1.113.07-2.226 2.435z"/></symbol>

<symbol id="list" viewBox="0 0 32 32"><path d="M1.53 1.53C.904 2.156.695 6.26.695 15.791c0 12.939.07 13.426 1.391 13.426.765 0 1.391.487 1.391 1.043 0 .904 1.6 1.043 10.435 1.043h10.435V19.06l2.783-2.713c3.27-3.2 3.687-2.783.626.696-1.183 1.322-1.878 2.435-1.461 2.435 2.643 0 6.33-9.183 4.243-10.504-1.391-.904-1.67-.835-4.035 1.183l-2.157 1.809V9.809c0-1.391.487-2.365 1.391-2.852 1.6-.835 1.878-4.104.557-5.426C25.111.348 2.711.348 1.529 1.531zm3.966.835c.626.765.487 1.043-.626 1.322-1.322.348-1.391.904-1.391 12.591 0 10.435-.139 12.243-1.043 12.243s-1.043-1.878-1.043-12.73c0-12.661.278-14.4 2.504-14.4.417 0 1.183.417 1.6.974zm20.452.487c.417.626.487 1.67.278 2.296-.348.974-1.739 1.113-9.739 1.113H7.235V1.322l8.974.209c7.443.209 9.183.417 9.739 1.322zM6.261 4.8c0 .835-1.391 1.739-1.878 1.252S4.8 4.174 5.635 4.174c.348 0 .626.278.626.626zm17.391 5.426c0 4.383-1.252 5.078-9.461 5.078-9.391 0-10.435 1.322-1.183 1.53l6.817.139-6.817.209c-8.07.278-8.626 1.6-.696 1.6h5.287l-1.461 1.6c-.765.835-1.948 2.713-2.574 4.174-.974 2.435-1.252 2.574-4.174 2.574-1.739 0-3.13.278-3.13.696s2.991.626 7.861.626c4.243-.07 7.026-.209 6.052-.417-.974-.139-2.852-.417-4.174-.626l-2.435-.417 2.435-.974c1.322-.557 3.617-2.157 5.078-3.617l2.574-2.504V30.68l-19.13-.417-.209-11.339-.139-11.27h19.478v2.574zm6.678.278c.209.417.07 1.113-.278 1.461-.904.904-3.13-.557-2.504-1.6.487-.835 2.157-.765 2.783.139zm-5.982 4.453c-1.67 1.739-3.409 3.13-3.757 3.13-.417 0 .696-1.391 2.365-3.13s3.409-3.13 3.757-3.13c.417 0-.696 1.391-2.365 3.13zm1.043 1.739c-1.53 1.53-3.061 2.783-3.409 2.783-.417 0 .696-1.391 2.365-3.13 1.67-1.67 3.2-2.922 3.409-2.783.139.209-.904 1.6-2.365 3.13zm-4.73 3.13c.348 1.113-1.53 3.826-2.713 3.826-1.252 0-1.391-2.157-.209-3.478 1.53-1.67 2.365-1.739 2.922-.348zm-3.965 4.591c0 .348-.487.626-1.043.626-.626 0-.835-.417-.626-1.043.417-1.043 1.67-.765 1.67.417z"/><path d="M9.878 10.226c2.226.139 5.843.139 8 0 2.226-.139.417-.209-3.965-.209s-6.191.07-4.035.209zM9.878 12.313c2.226.139 5.843.139 8 0 2.226-.139.417-.209-3.965-.209s-6.191.07-4.035.209zM6.609 13.913c-.278.417 2.296.696 7.235.696 4.661 0 7.722-.278 7.722-.696s-2.852-.696-7.235-.696c-4.104 0-7.513.278-7.722.696zM6.261 25.739c0 .348 1.461.696 3.2.696 1.878 0 2.991-.278 2.713-.696-.209-.417-1.67-.696-3.2-.696-1.461 0-2.713.278-2.713.696z"/></symbol>

<symbol id="wallpaper" viewBox="0 0 32 32"><path d="M2.773 2.667C1.386 4.054 1.066 6.72 1.066 16c0 15.36-.427 14.933 16.64 14.933h13.227v-25.6h-8c-6.72 0-7.787.213-7.253 1.707.427 1.173.96 1.28 1.707.533 1.92-1.92 3.307-1.28 1.707.64-1.387 1.813-1.387 1.813.747 0 1.173-.96 2.56-1.813 3.093-1.813.427 0 .107.853-.64 1.813-1.387 1.813-1.387 1.813.747 0 2.56-2.133 4.053-2.347 2.987-.533-.64 1.067-.427 1.067.747 0 .747-.64 1.92-1.28 2.453-1.28.64 0-.747 1.813-2.88 4.053-5.013 5.12-5.227 7.147-.213 2.347s4.8-2.773-.213 2.667l-4.053 4.267 4.053-3.627c5.12-4.8 5.12-3.093 0 2.56l-4.053 4.267 4.053-3.627c5.76-5.44 4.8-2.56-1.173 3.413-5.013 4.907-8.32 6.827-5.44 3.093 1.387-1.707 1.28-1.707-.64-.107-1.173.853-3.733 1.707-5.76 1.92-2.987.107-3.413-.107-2.347-1.387.853-.96 1.173-5.333.96-13.013l-.32-11.627-3.307-.32c-2.027-.213-4.053.32-5.12 1.387zm7.894 1.066c0 .96-.64 1.28-1.813.853-1.6-.533-1.493-.32.213 1.067L11.2 7.36l-2.133.107c-2.133.107-2.133.107 0 1.28 2.027 1.173 2.027 1.173 0 2.027-1.813.747-1.92.853-.213.853.96.107 1.813.533 1.813 1.173 0 .533-.853 1.173-1.813 1.173-1.707.107-1.707.213-.213.64.96.213 1.813 1.493 1.813 2.88 0 1.92-.533 2.347-1.92 2.027-1.067-.32-2.88 0-4.16.64-2.24 1.173-2.24 1.067-2.24-7.147 0-5.013.533-8.853 1.28-9.6 1.813-1.813 7.253-1.6 7.253.32zm18.026 19.414c-.853.96-.96 1.493-.213 1.067.747-.533 1.173-.107 1.067 1.173-.107 1.387-1.067 1.92-3.733 2.027l-3.627.107 3.52-3.627c3.52-3.627 5.76-4.16 2.987-.747zM3.947 24c-.747 1.387-1.493 2.133-1.6 1.493-.213-.533.213-1.707.853-2.56 1.92-2.24 2.133-1.92.747 1.067zm20.906 5.547c-3.093.213-8.213.213-11.2 0-3.093-.213-.64-.32 5.547-.32s8.64.107 5.653.32z"/><path d="M18.667 15.147 13.334 20.8l5.653-5.333c5.12-4.907 6.08-5.867 5.227-5.867-.107 0-2.667 2.56-5.547 5.547zM14.827 12.48c-1.387 1.707-1.28 1.813.427.427.96-.747 1.813-1.6 1.813-1.813 0-.853-.853-.32-2.24 1.387zM17.493 13.013l-2.027 2.453 2.453-2.027c2.24-1.92 2.88-2.773 2.027-2.773-.213 0-1.28 1.067-2.453 2.347zM17.6 19.2c-2.88 3.2-1.28 3.627 1.6.533 1.387-1.493 2.027-2.667 1.387-2.667-.533 0-1.92.96-2.987 2.133zM18.027 23.147l-2.56 2.987 2.987-2.56c1.6-1.493 2.88-2.773 2.88-2.987 0-.853-.853-.107-3.307 2.56z"/></symbol>

<symbol id="calendar" viewBox="0 0 32 32"><path fill="none" stroke="#6cac3d" stroke-linecap="round" stroke-linejoin="round" stroke-width="3.765" d="M25.333 5.333H6.666A2.667 2.667 0 0 0 3.999 8v18.667a2.667 2.667 0 0 0 2.667 2.667h18.667A2.667 2.667 0 0 0 28 26.667V8a2.667 2.667 0 0 0-2.667-2.667zM21.333 2.667V8M10.667 2.667V8M4 13.333h24" style="stroke:var(--color3, #6cac3d)"/></symbol>

<symbol id="closed-m-menu" viewBox="0 0 32 32"><path fill="none" stroke="#fff" stroke-linecap="round" stroke-linejoin="round" stroke-width="1.73" d="M24 8 8 24M8 8l16 16" style="stroke:var(--color1, #fff)"/></symbol>

<symbol id="dollar-sign" viewBox="0 0 32 32"><path fill="none" stroke="#6cac3d" stroke-linecap="round" stroke-linejoin="round" stroke-width="3.765" d="M16 1.333v29.333M22.667 6.667h-10a4.667 4.667 0 0 0 0 9.334h6.667a4.667 4.667 0 0 1 0 9.334H8.001" style="stroke:var(--color3, #6cac3d)"/></symbol>

<symbol id="home" viewBox="0 0 32 32"><path fill="none" stroke="#6cac3d" stroke-linecap="round" stroke-linejoin="round" stroke-width="3.765" d="m4 12 12-9.333L28 12v14.667a2.668 2.668 0 0 1-2.667 2.667H6.666a2.668 2.668 0 0 1-2.667-2.667V12z" style="stroke:var(--color3, #6cac3d)"/><path fill="none" stroke="#6cac3d" stroke-linecap="round" stroke-linejoin="round" stroke-width="3.765" d="M12 29.333V16h8v13.333" style="stroke:var(--color3, #6cac3d)"/></symbol>

<symbol id="map-pin" viewBox="0 0 32 32"><path fill="none" stroke="#6cac3d" stroke-linecap="round" stroke-linejoin="round" stroke-width="3.765" d="M28 13.333c0 9.333-12 17.333-12 17.333s-12-8-12-17.333a12.003 12.003 0 0 1 12-12 12.003 12.003 0 0 1 12 12z" style="stroke:var(--color3, #6cac3d)"/><path fill="none" stroke="#6cac3d" stroke-linecap="round" stroke-linejoin="round" stroke-width="3.765" d="M16 17.333a4 4 0 1 0 0-8 4 4 0 0 0 0 8z" style="stroke:var(--color3, #6cac3d)"/></symbol>

<symbol id="arrow-down" viewBox="0 0 32 32"><path d="m24.391 15.057-7.057 7.057V6.666a1.333 1.333 0 0 0-2.666 0v15.448l-7.057-7.057a1.332 1.332 0 1 0-1.885 1.885l9.333 9.333a1.338 1.338 0 0 0 1.453.289c.157-.065.304-.161.432-.289l9.333-9.333a1.332 1.332 0 1 0-1.885-1.885z"/></symbol>

<symbol id="check" viewBox="0 0 32 32"><path d="m18.769 12.308-6.831 6.769-2.4-2.462c-1.292-1.354-2.892-2.646-3.508-2.831-1.415-.431-2.954.738-2.954 2.154 0 1.046 7.877 9.292 8.862 9.292 1.046 0 16.985-16.246 16.985-17.231 0-1.231-1.169-2.462-2.4-2.462-.492 0-3.938 3.015-7.754 6.769z"/></symbol>

<symbol id="radio-click" viewBox="0 0 32 32"><path fill="#f2f2f2" stroke="#2d4872" stroke-width="3.556" d="M30.222 16c0 7.855-6.367 14.222-14.222 14.222S1.778 23.855 1.778 16C1.778 8.145 8.145 1.778 16 1.778S30.222 8.145 30.222 16z" style="fill:var(--color1, #f2f2f2);stroke:var(--color2, #2d4872)"/><path fill="#2d4872" stroke="#2d4872" stroke-width="3.556" d="M23.111 16a7.111 7.111 0 1 1-14.223 0 7.111 7.111 0 0 1 14.223 0z" style="fill:var(--color2, #2d4872);stroke:var(--color2, #2d4872)"/></symbol>

<symbol id="radio" viewBox="0 0 32 32"><path fill="#f2f2f2" stroke="#2d4872" stroke-width="3.556" d="M30.222 16c0 7.855-6.367 14.222-14.222 14.222S1.778 23.855 1.778 16C1.778 8.145 8.145 1.778 16 1.778S30.222 8.145 30.222 16z" style="fill:var(--color1, #f2f2f2);stroke:var(--color2, #2d4872)"/></symbol>

<symbol id="left" viewBox="0 0 32 32"><path stroke-linecap="round" stroke-linejoin="round" stroke-width="2.667" d="m20 8-8 8 8 8"/></symbol>

<symbol id="closed" viewBox="0 0 32 32"><path fill="none" stroke="#fff" stroke-linecap="round" stroke-linejoin="round" stroke-width="1.73" d="M24 8 8 24M8 8l16 16" style="stroke:var(--color1, #fff)"/></symbol>

<symbol id="mobile-phone-black" viewBox="0 0 32 32"><path stroke-linecap="round" stroke-linejoin="round" stroke-width="1.778" d="M19.396 7.214a6.81 6.81 0 0 1 5.379 5.369l-5.379-5.369zm0-5.436c2.763.306 5.34 1.542 7.308 3.503s3.208 4.531 3.518 7.289L19.396 1.778zm9.464 21.637v4.078a2.707 2.707 0 0 1-.882 2.014 2.734 2.734 0 0 1-2.086.704 26.977 26.977 0 0 1-11.752-4.173 26.538 26.538 0 0 1-8.171-8.155A26.873 26.873 0 0 1 1.788 6.099a2.722 2.722 0 0 1 .701-2.077 2.726 2.726 0 0 1 2.009-.886h4.085a2.718 2.718 0 0 1 2.724 2.338c.172 1.305.492 2.586.953 3.819a2.71 2.71 0 0 1-.613 2.867l-1.729 1.726a21.766 21.766 0 0 0 8.171 8.155l1.729-1.726a2.726 2.726 0 0 1 2.873-.612c1.236.46 2.519.779 3.826.951a2.722 2.722 0 0 1 2.342 2.759z"/></symbol>

<symbol id="x" viewBox="0 0 32 32"><path d="M7.057 8.943 14.114 16l-7.057 7.057a1.332 1.332 0 1 0 1.885 1.885l7.057-7.057 7.057 7.057a1.332 1.332 0 1 0 1.885-1.885L17.884 16l7.057-7.057a1.332 1.332 0 1 0-1.885-1.885l-7.057 7.057-7.057-7.057a1.332 1.332 0 1 0-1.885 1.885z"/></symbol>

<symbol id="corner-right-down" viewBox="0 0 32 32"><path d="M5.333 6.667h9.333c1.105 0 2.103.447 2.828 1.172s1.172 1.723 1.172 2.828v12.781l-4.391-4.391a1.332 1.332 0 1 0-1.885 1.885l6.667 6.667a1.338 1.338 0 0 0 1.453.289c.157-.065.304-.161.432-.289l6.667-6.667a1.332 1.332 0 1 0-1.885-1.885l-4.391 4.391V10.667c0-1.84-.748-3.509-1.952-4.715S16.506 4 14.666 4H5.333a1.333 1.333 0 0 0 0 2.666z"/></symbol>

<symbol id="facebook" viewBox="0 0 32 32"><path d="M22.667 4v2.667H20c-.736 0-1.404.3-1.885.781s-.781 1.149-.781 1.885v4c0 .736.597 1.333 1.333 1.333h3.625l-.667 2.667h-2.959c-.736 0-1.333.597-1.333 1.333v9.333h-2.667v-9.333c0-.736-.597-1.333-1.333-1.333h-2.667v-2.667h2.667c.736 0 1.333-.597 1.333-1.333v-4c0-1.473.596-2.804 1.563-3.771S18.526 3.999 20 3.999zM24 1.333h-4c-2.209 0-4.211.897-5.657 2.343S12 7.124 12 9.333V12H9.333C8.597 12 8 12.597 8 13.333v5.333c0 .736.597 1.333 1.333 1.333H12v9.333c0 .736.597 1.333 1.333 1.333h5.333c.736 0 1.333-.597 1.333-1.333v-9.333h2.667c.621 0 1.144-.425 1.293-1.009l1.333-5.333A1.333 1.333 0 0 0 23.998 12h-4V9.333h4c.736 0 1.333-.597 1.333-1.333V2.667c0-.736-.597-1.333-1.333-1.333z"/></symbol>

<symbol id="instagram" viewBox="0 0 32 32"><path d="M9.333 1.333c-2.209 0-4.211.897-5.657 2.343S1.333 7.124 1.333 9.333v13.333c0 2.209.897 4.211 2.343 5.657s3.448 2.343 5.657 2.343h13.333c2.209 0 4.211-.897 5.657-2.343s2.343-3.448 2.343-5.657V9.333c0-2.209-.897-4.211-2.343-5.657s-3.448-2.343-5.657-2.343zm0 2.667h13.333c1.473 0 2.804.596 3.771 1.563S28 7.86 28 9.334v13.333c0 1.473-.596 2.804-1.563 3.771s-2.297 1.563-3.771 1.563H9.333c-1.473 0-2.804-.596-3.771-1.563s-1.563-2.297-1.563-3.771V9.334c0-1.473.596-2.804 1.563-3.771S7.859 4 9.333 4zm13.319 10.964a6.738 6.738 0 0 0-1.592-3.423 6.616 6.616 0 0 0-4.012-2.192 6.526 6.526 0 0 0-1.969-.003c-1.821.269-3.361 1.255-4.376 2.623s-1.511 3.129-1.24 4.949 1.255 3.361 2.623 4.376 3.129 1.511 4.949 1.24 3.361-1.255 4.376-2.623 1.511-3.129 1.24-4.949zm-2.637.392c.163 1.093-.133 2.145-.744 2.969s-1.533 1.412-2.625 1.573-2.145-.133-2.969-.744-1.412-1.533-1.573-2.625.133-2.145.744-2.969 1.533-1.412 2.625-1.573a3.97 3.97 0 0 1 3.584 1.312c.5.571.84 1.284.96 2.057zM23.333 10a1.333 1.333 0 1 0 0-2.667 1.333 1.333 0 0 0 0 2.667z"/></symbol>

<symbol id="linkedin" viewBox="0 0 32 32"><path d="M21.333 9.333c-2.577 0-4.912 1.047-6.6 2.733S12 16.089 12 18.666v9.333c0 .736.597 1.333 1.333 1.333h5.333c.736 0 1.333-.597 1.333-1.333v-9.333c0-.368.148-.7.391-.943s.575-.391.943-.391.7.148.943.391.391.575.391.943v9.333c0 .736.597 1.333 1.333 1.333h5.333c.736 0 1.333-.597 1.333-1.333v-9.333c0-2.577-1.047-4.912-2.733-6.6s-4.023-2.733-6.6-2.733zm0 2.667c1.841 0 3.507.745 4.715 1.952S28 16.825 28 18.667v8h-2.667v-8a3.998 3.998 0 1 0-8 0v8h-2.667v-8c0-1.841.745-3.507 1.952-4.715S19.491 12 21.333 12zM2.667 10.667c-.736 0-1.333.597-1.333 1.333v16c0 .736.597 1.333 1.333 1.333H8c.736 0 1.333-.597 1.333-1.333V12c0-.736-.597-1.333-1.333-1.333zM4 13.333h2.667v13.333H4zm5.333-8a3.998 3.998 0 1 0-8 0 3.998 3.998 0 1 0 8 0zm-2.666 0c0 .368-.148.7-.391.943s-.575.391-.943.391-.7-.148-.943-.391-.391-.575-.391-.943.148-.7.391-.943.575-.391.943-.391.7.148.943.391.391.575.391.943z"/></symbol>

<symbol id="twitter" viewBox="0 0 32 32"><path d="M27.777 7.016a8.91 8.91 0 0 1-.821.928 1.33 1.33 0 0 0-.371 1.211c.049.243.08.539.081.845 0 7.008-3.239 11.961-7.747 14.531-3.529 2.012-7.917 2.607-12.296 1.493a16.915 16.915 0 0 0 4.791-2.253 1.333 1.333 0 0 0-.208-2.321c-3.699-1.644-5.507-3.908-6.359-6.124-.556-1.445-.728-2.931-.693-4.303.028-1.081.184-2.08.371-2.909.525.457 1.071.941 1.647 1.384a15.45 15.45 0 0 0 9.86 3.209 1.335 1.335 0 0 0 1.301-1.333v-1.348a4.615 4.615 0 0 1 1.594-3.566c.967-.841 2.181-1.211 3.368-1.128s2.337.617 3.179 1.584c.336.381.865.555 1.377.405.308-.089.617-.191.927-.304zm2.122-4.105a13.198 13.198 0 0 1-3.049 1.607 7.291 7.291 0 0 0-4.368-1.847 7.29 7.29 0 0 0-5.303 1.776 7.285 7.285 0 0 0-2.44 4.496 7.6 7.6 0 0 0-.072 1.067A12.778 12.778 0 0 1 7.8 7.383a13.182 13.182 0 0 1-2.712-2.821 1.333 1.333 0 0 0-2.306.229s-.176.399-.38 1.013a18.238 18.238 0 0 0-.476 1.72 17.66 17.66 0 0 0-.435 3.428c-.041 1.636.16 3.483.869 5.328.911 2.367 2.621 4.637 5.529 6.431A14.007 14.007 0 0 1 1.392 24a1.333 1.333 0 0 0-.707 2.497c6.54 3.633 13.901 3.571 19.555.348 5.387-3.068 9.092-8.933 9.092-16.845a7.285 7.285 0 0 0-.031-.652 11.502 11.502 0 0 0 2.661-5.041 1.334 1.334 0 0 0-2.067-1.396z"/></symbol>

<symbol id="arrow-up" viewBox="0 0 32 32">
<title>arrow-up</title>
<path d="M7.609 16.943l7.057-7.057v15.448c0 0.736 0.597 1.333 1.333 1.333s1.333-0.597 1.333-1.333v-15.448l7.057 7.057c0.521 0.521 1.365 0.521 1.885 0s0.521-1.365 0-1.885l-9.333-9.333c-0.123-0.123-0.269-0.221-0.432-0.289s-0.337-0.101-0.511-0.101c-0.341 0-0.683 0.131-0.943 0.391l-9.333 9.333c-0.521 0.521-0.521 1.365 0 1.885s1.365 0.521 1.885 0z"></path>
</symbol></defs></svg>